Heroe Update Inline-Regular.ufo
<glyph name="exclam" format="2">
	<advance width="242"/>
	<unicode hex="0021"/>
	<outline>
		<contour>
			<point x="123" y="170" type="curve"/>
			<point x="127" y="170" type="line"/>
			<point x="205" y="503"/>
			<point x="326" y="723"/>
			<point x="326" y="783" type="curve" smooth="yes"/>
			<point x="326" y="810"/>
			<point x="312" y="826"/>
			<point x="294" y="831" type="curve"/>
			<point x="162" y="324" type="line"/>
			<point x="160" y="324" type="line"/>
			<point x="276" y="833" type="line"/>
			<point x="251" y="831"/>
			<point x="224" y="812"/>
			<point x="215" y="775" type="curve" smooth="yes"/>
			<point x="197" y="706"/>
			<point x="197" y="490"/>
		</contour>
		<contour>
			<point x="89" y="-8" type="curve" smooth="yes"/>
			<point x="123" y="-8"/>
			<point x="154" y="19"/>
			<point x="160" y="54" type="curve" smooth="yes"/>
			<point x="165" y="89"/>
			<point x="141" y="116"/>
			<point x="106" y="116" type="curve" smooth="yes"/>
			<point x="72" y="116"/>
			<point x="41" y="89"/>
			<point x="36" y="54" type="curve" smooth="yes"/>
			<point x="30" y="19"/>
			<point x="54" y="-8"/>
		</contour>
		<contour>
			<point x="83" y="54" type="curve" smooth="yes"/>
			<point x="84" y="62"/>
			<point x="92" y="68"/>
			<point x="99" y="68" type="curve" smooth="yes"/>
			<point x="108" y="68"/>
			<point x="113" y="62"/>
			<point x="112" y="54" type="curve" smooth="yes"/>
			<point x="111" y="46"/>
			<point x="103" y="40"/>
			<point x="96" y="40" type="curve" smooth="yes"/>
			<point x="87" y="40"/>
			<point x="82" y="46"/>
		</contour>
	</outline>
</glyph>
<glyph name="numbersign" format="2">
	<advance width="621"/>
	<unicode hex="0023"/>
	<outline>
		<contour>
			<point x="143" y="401" type="line"/>
			<point x="255.745" y="401" type="line" smooth="yes"/>
			<point x="267.306" y="401"/>
			<point x="271.752" y="395.444"/>
			<point x="269.219" y="384.165" type="curve" smooth="yes"/>
			<point x="234.781" y="230.835" type="line" smooth="yes"/>
			<point x="232.248" y="219.556"/>
			<point x="225.306" y="214"/>
			<point x="213.745" y="214" type="curve" smooth="yes"/>
			<point x="104" y="214" type="line"/>
			<point x="104" y="208" type="line"/>
			<point x="211.746" y="208" type="line" smooth="yes"/>
			<point x="223.306" y="208"/>
			<point x="227.775" y="202.439"/>
			<point x="225.287" y="191.149" type="curve" smooth="yes"/>
			<point x="203" y="90" type="line"/>
			<point x="209" y="90" type="line"/>
			<point x="231.287" y="191.149" type="line" smooth="yes"/>
			<point x="233.775" y="202.439"/>
			<point x="240.694" y="208"/>
			<point x="252.255" y="208" type="curve" smooth="yes"/>
			<point x="385.745" y="208" type="line" smooth="yes"/>
			<point x="397.306" y="208"/>
			<point x="401.775" y="202.439"/>
			<point x="399.287" y="191.149" type="curve" smooth="yes"/>
			<point x="377" y="90" type="line"/>
			<point x="383" y="90" type="line"/>
			<point x="405.287" y="191.149" type="line" smooth="yes"/>
			<point x="407.775" y="202.439"/>
			<point x="414.694" y="208"/>
			<point x="426.255" y="208" type="curve" smooth="yes"/>
			<point x="547" y="208" type="line"/>
			<point x="547" y="214" type="line"/>
			<point x="428.255" y="214" type="line" smooth="yes"/>
			<point x="416.694" y="214"/>
			<point x="412.248" y="219.556"/>
			<point x="414.781" y="230.835" type="curve" smooth="yes"/>
			<point x="449.219" y="384.165" type="line" smooth="yes"/>
			<point x="451.752" y="395.444"/>
			<point x="458.694" y="401"/>
			<point x="470.254" y="401" type="curve" smooth="yes"/>
			<point x="586" y="401" type="line"/>
			<point x="586" y="407" type="line"/>
			<point x="472.271" y="407" type="line" smooth="yes"/>
			<point x="460.699" y="407"/>
			<point x="456.27" y="412.551"/>
			<point x="458.849" y="423.82" type="curve" smooth="yes"/>
			<point x="482" y="525" type="line"/>
			<point x="476" y="525" type="line"/>
			<point x="451.984" y="423.788" type="line" smooth="yes"/>
			<point x="449.315" y="412.54"/>
			<point x="442.306" y="407"/>
			<point x="430.745" y="407" type="curve" smooth="yes"/>
			<point x="297.255" y="407" type="line" smooth="yes"/>
			<point x="285.694" y="407"/>
			<point x="281.315" y="412.54"/>
			<point x="283.984" y="423.788" type="curve" smooth="yes"/>
			<point x="308" y="525" type="line"/>
			<point x="302" y="525" type="line"/>
			<point x="277.984" y="423.788" type="line" smooth="yes"/>
			<point x="275.315" y="412.54"/>
			<point x="268.301" y="407"/>
			<point x="256.729" y="407" type="curve" smooth="yes"/>
			<point x="143" y="407" type="line"/>
		</contour>
		<contour>
			<point x="240.781" y="230.835" type="curve" smooth="yes"/>
			<point x="275.219" y="384.165" type="line" smooth="yes"/>
			<point x="277.752" y="395.444"/>
			<point x="284.694" y="401"/>
			<point x="296.255" y="401" type="curve" smooth="yes"/>
			<point x="429.745" y="401" type="line" smooth="yes"/>
			<point x="441.306" y="401"/>
			<point x="445.752" y="395.444"/>
			<point x="443.219" y="384.165" type="curve" smooth="yes"/>
			<point x="408.781" y="230.835" type="line" smooth="yes"/>
			<point x="406.248" y="219.556"/>
			<point x="399.306" y="214"/>
			<point x="387.745" y="214" type="curve" smooth="yes"/>
			<point x="254.255" y="214" type="line" smooth="yes"/>
			<point x="242.694" y="214"/>
			<point x="238.248" y="219.556"/>
		</contour>
	</outline>
</glyph>
<glyph name="dollar" format="2">
	<advance width="412"/>
	<unicode hex="0024"/>
	<outline>
		<contour>
			<point x="281" y="498" type="line"/>
			<point x="295" y="490" type="line"/>
			<point x="363" y="831" type="line"/>
			<point x="353" y="831" type="line"/>
		</contour>
		<contour>
			<point x="282" y="428" type="line"/>
			<point x="269" y="441" type="line"/>
			<point x="181" y="37" type="line"/>
			<point x="203" y="37" type="line"/>
		</contour>
		<contour>
			<point x="320" y="718" type="curve" smooth="yes"/>
			<point x="234" y="718"/>
			<point x="168" y="660"/>
			<point x="168" y="581" type="curve" smooth="yes"/>
			<point x="168" y="530"/>
			<point x="194" y="486"/>
			<point x="231" y="452" type="curve" smooth="yes"/>
			<point x="281" y="405" type="line" smooth="yes"/>
			<point x="330" y="359"/>
			<point x="351" y="319"/>
			<point x="351" y="274" type="curve" smooth="yes"/>
			<point x="351" y="189"/>
			<point x="297" y="143"/>
			<point x="213" y="143" type="curve" smooth="yes"/>
			<point x="153" y="143"/>
			<point x="109" y="170"/>
			<point x="109" y="233" type="curve" smooth="yes"/>
			<point x="109" y="284"/>
			<point x="142" y="312"/>
			<point x="175" y="312" type="curve" smooth="yes"/>
			<point x="191" y="312"/>
			<point x="208" y="305"/>
			<point x="212" y="287" type="curve"/>
			<point x="220" y="331"/>
			<point x="196" y="368"/>
			<point x="146" y="368" type="curve" smooth="yes"/>
			<point x="93" y="368"/>
			<point x="61" y="318"/>
			<point x="61" y="265" type="curve" smooth="yes"/>
			<point x="61" y="188"/>
			<point x="141" y="137"/>
			<point x="213" y="137" type="curve" smooth="yes"/>
			<point x="322" y="137"/>
			<point x="409" y="225"/>
			<point x="409" y="318" type="curve" smooth="yes"/>
			<point x="409" y="369"/>
			<point x="383" y="424"/>
			<point x="335" y="468" type="curve" smooth="yes"/>
			<point x="289" y="511" type="line" smooth="yes"/>
			<point x="256" y="542"/>
			<point x="231" y="574"/>
			<point x="231" y="620" type="curve" smooth="yes"/>
			<point x="231" y="679"/>
			<point x="266" y="713"/>
			<point x="314" y="713" type="curve" smooth="yes"/>
			<point x="344" y="713"/>
			<point x="369" y="699"/>
			<point x="384" y="671" type="curve" smooth="yes"/>
			<point x="401" y="640"/>
			<point x="408" y="593"/>
			<point x="420" y="525" type="curve"/>
			<point x="424" y="525" type="line"/>
			<point x="434" y="729" type="line"/>
			<point x="430" y="729" type="line"/>
			<point x="426" y="717"/>
			<point x="422" y="702"/>
			<point x="402" y="702" type="curve" smooth="yes"/>
			<point x="381" y="702"/>
			<point x="364" y="718"/>
		</contour>
		<contour>
			<point x="362" y="705" type="curve"/>
			<point x="363" y="706" type="line"/>
			<point x="387" y="695"/>
			<point x="400" y="686"/>
			<point x="409" y="666" type="curve" smooth="yes"/>
			<point x="418" y="646"/>
			<point x="419" y="615"/>
			<point x="417" y="594" type="curve"/>
			<point x="415" y="594" type="line"/>
			<point x="414" y="619"/>
			<point x="410" y="640"/>
			<point x="401" y="661" type="curve" smooth="yes"/>
			<point x="392" y="683"/>
			<point x="378" y="698"/>
		</contour>
		<contour>
			<point x="328" y="183" type="curve" smooth="yes"/>
			<point x="358" y="207"/>
			<point x="376" y="251"/>
			<point x="376" y="289" type="curve" smooth="yes"/>
			<point x="376" y="339"/>
			<point x="350" y="390"/>
			<point x="302" y="435" type="curve" smooth="yes"/>
			<point x="256" y="478" type="line" smooth="yes"/>
			<point x="222" y="509"/>
			<point x="196" y="546"/>
			<point x="196" y="596" type="curve" smooth="yes"/>
			<point x="196" y="623"/>
			<point x="203" y="650"/>
			<point x="226" y="677" type="curve" smooth="yes"/>
			<point x="231" y="683"/>
			<point x="238" y="684"/>
			<point x="232" y="678" type="curve" smooth="yes"/>
			<point x="210" y="656"/>
			<point x="205" y="624"/>
			<point x="205" y="601" type="curve" smooth="yes"/>
			<point x="205" y="555"/>
			<point x="229" y="521"/>
			<point x="264" y="488" type="curve" smooth="yes"/>
			<point x="310" y="445" type="line" smooth="yes"/>
			<point x="357" y="401"/>
			<point x="385" y="346"/>
			<point x="385" y="294" type="curve" smooth="yes"/>
			<point x="385" y="252"/>
			<point x="363" y="214"/>
			<point x="330" y="181" type="curve" smooth="yes"/>
			<point x="329" y="180"/>
			<point x="326" y="182"/>
		</contour>
		<contour>
			<point x="99" y="202" type="curve" smooth="yes"/>
			<point x="88" y="222"/>
			<point x="81" y="245"/>
			<point x="81" y="264" type="curve" smooth="yes"/>
			<point x="81" y="303"/>
			<point x="109" y="346"/>
			<point x="152" y="346" type="curve" smooth="yes"/>
			<point x="171" y="346"/>
			<point x="181" y="340"/>
			<point x="189" y="331" type="curve" smooth="yes"/>
			<point x="190" y="330"/>
			<point x="188" y="328"/>
			<point x="187" y="329" type="curve" smooth="yes"/>
			<point x="178" y="337"/>
			<point x="170" y="338"/>
			<point x="157" y="338" type="curve" smooth="yes"/>
			<point x="122" y="338"/>
			<point x="87" y="300"/>
			<point x="87" y="254" type="curve" smooth="yes"/>
			<point x="87" y="238"/>
			<point x="92" y="219"/>
			<point x="101" y="202" type="curve"/>
			<point x="102" y="201"/>
			<point x="100" y="200"/>
		</contour>
	</outline>
</glyph>
<glyph name="percent" format="2">
	<advance width="730"/>
	<unicode hex="0025"/>
	<outline>
		<contour>
			<point x="672" y="743" type="line"/>
			<point x="165" y="75" type="line"/>
			<point x="171" y="74" type="line"/>
			<point x="680" y="741" type="line"/>
		</contour>
		<contour>
			<point x="197" y="543" type="curve" smooth="yes"/>
			<point x="197" y="486"/>
			<point x="234" y="452"/>
			<point x="288" y="452" type="curve" smooth="yes"/>
			<point x="362" y="452"/>
			<point x="427" y="535"/>
			<point x="427" y="605" type="curve" smooth="yes"/>
			<point x="427" y="658"/>
			<point x="390" y="697"/>
			<point x="337" y="697" type="curve" smooth="yes"/>
			<point x="261" y="697"/>
			<point x="197" y="614"/>
		</contour>
		<contour>
			<point x="337" y="692" type="curve" smooth="yes"/>
			<point x="368" y="692"/>
			<point x="385" y="658"/>
			<point x="385" y="612" type="curve" smooth="yes"/>
			<point x="385" y="561"/>
			<point x="351" y="457"/>
			<point x="285" y="457" type="curve" smooth="yes"/>
			<point x="255" y="457"/>
			<point x="240" y="492"/>
			<point x="240" y="541" type="curve" smooth="yes"/>
			<point x="240" y="589"/>
			<point x="275" y="692"/>
		</contour>
		<contour>
			<point x="254" y="464" type="curve"/>
			<point x="252" y="462" type="line"/>
			<point x="229" y="477"/>
			<point x="213" y="506"/>
			<point x="214" y="543" type="curve" smooth="yes"/>
			<point x="215" y="599"/>
			<point x="255" y="670"/>
			<point x="306" y="689" type="curve"/>
			<point x="306" y="687" type="line"/>
			<point x="259" y="669"/>
			<point x="223" y="598"/>
			<point x="222" y="543" type="curve" smooth="yes"/>
			<point x="221" y="507"/>
			<point x="234" y="478"/>
		</contour>
		<contour>
			<point x="371" y="684" type="curve"/>
			<point x="373" y="686" type="line"/>
			<point x="395" y="672"/>
			<point x="409" y="643"/>
			<point x="409" y="607" type="curve" smooth="yes"/>
			<point x="409" y="552"/>
			<point x="377" y="487"/>
			<point x="324" y="463" type="curve"/>
			<point x="324" y="465" type="line"/>
			<point x="372" y="489"/>
			<point x="402" y="554"/>
			<point x="402" y="604" type="curve" smooth="yes"/>
			<point x="402" y="639"/>
			<point x="390" y="670"/>
		</contour>
		<contour>
			<point x="429" y="223" type="curve" smooth="yes"/>
			<point x="429" y="166"/>
			<point x="466" y="132"/>
			<point x="520" y="132" type="curve" smooth="yes"/>
			<point x="594" y="132"/>
			<point x="659" y="215"/>
			<point x="659" y="285" type="curve" smooth="yes"/>
			<point x="659" y="338"/>
			<point x="622" y="377"/>
			<point x="569" y="377" type="curve" smooth="yes"/>
			<point x="493" y="377"/>
			<point x="429" y="294"/>
		</contour>
		<contour>
			<point x="569" y="372" type="curve" smooth="yes"/>
			<point x="600" y="372"/>
			<point x="617" y="338"/>
			<point x="617" y="292" type="curve" smooth="yes"/>
			<point x="617" y="241"/>
			<point x="583" y="137"/>
			<point x="517" y="137" type="curve" smooth="yes"/>
			<point x="487" y="137"/>
			<point x="472" y="172"/>
			<point x="472" y="221" type="curve" smooth="yes"/>
			<point x="472" y="269"/>
			<point x="507" y="372"/>
		</contour>
		<contour>
			<point x="486" y="144" type="curve"/>
			<point x="484" y="142" type="line"/>
			<point x="461" y="157"/>
			<point x="445" y="186"/>
			<point x="446" y="223" type="curve" smooth="yes"/>
			<point x="447" y="279"/>
			<point x="487" y="350"/>
			<point x="538" y="369" type="curve"/>
			<point x="538" y="367" type="line"/>
			<point x="491" y="349"/>
			<point x="455" y="278"/>
			<point x="454" y="223" type="curve" smooth="yes"/>
			<point x="453" y="187"/>
			<point x="466" y="158"/>
		</contour>
		<contour>
			<point x="603" y="364" type="curve"/>
			<point x="605" y="366" type="line"/>
			<point x="627" y="352"/>
			<point x="641" y="323"/>
			<point x="641" y="287" type="curve" smooth="yes"/>
			<point x="641" y="232"/>
			<point x="609" y="167"/>
			<point x="556" y="143" type="curve"/>
			<point x="556" y="145" type="line"/>
			<point x="604" y="169"/>
			<point x="634" y="234"/>
			<point x="634" y="284" type="curve" smooth="yes"/>
			<point x="634" y="319"/>
			<point x="622" y="350"/>
		</contour>
	</outline>
</glyph>
<glyph name="ampersand" format="2">
	<advance width="978"/>
	<unicode hex="0026"/>
	<outline>
		<contour>
			<point x="1077" y="661" type="curve" smooth="yes"/>
			<point x="1077" y="571"/>
			<point x="1003" y="531"/>
			<point x="875" y="531" type="curve" smooth="yes"/>
			<point x="706" y="531" type="line" smooth="yes"/>
			<point x="579" y="531"/>
			<point x="492" y="458"/>
			<point x="492" y="350" type="curve" smooth="yes"/>
			<point x="492" y="273"/>
			<point x="536" y="214"/>
			<point x="593" y="214" type="curve" smooth="yes"/>
			<point x="636" y="214"/>
			<point x="673" y="247"/>
			<point x="673" y="286" type="curve" smooth="yes"/>
			<point x="673" y="307"/>
			<point x="661" y="325"/>
			<point x="642" y="334" type="curve"/>
			<point x="644" y="328"/>
			<point x="644" y="325"/>
			<point x="644" y="321" type="curve" smooth="yes"/>
			<point x="644" y="289"/>
			<point x="612" y="262"/>
			<point x="574" y="262" type="curve" smooth="yes"/>
			<point x="528" y="262"/>
			<point x="499" y="293"/>
			<point x="499" y="343" type="curve" smooth="yes"/>
			<point x="499" y="424"/>
			<point x="563" y="482"/>
			<point x="651" y="482" type="curve" smooth="yes"/>
			<point x="771" y="482"/>
			<point x="848" y="382"/>
			<point x="848" y="263" type="curve" smooth="yes"/>
			<point x="848" y="86"/>
			<point x="676" y="-60"/>
			<point x="467" y="-60" type="curve" smooth="yes"/>
			<point x="264" y="-60"/>
			<point x="113" y="77"/>
			<point x="113" y="262" type="curve" smooth="yes"/>
			<point x="113" y="387"/>
			<point x="182" y="507"/>
			<point x="310" y="535" type="curve"/>
			<point x="335" y="507"/>
			<point x="369" y="492"/>
			<point x="414" y="492" type="curve" smooth="yes"/>
			<point x="431" y="492"/>
			<point x="444" y="502"/>
			<point x="444" y="516" type="curve" smooth="yes"/>
			<point x="444" y="546"/>
			<point x="382" y="557"/>
			<point x="316" y="541" type="curve"/>
			<point x="294" y="566"/>
			<point x="280" y="609"/>
			<point x="280" y="652" type="curve" smooth="yes"/>
			<point x="280" y="796"/>
			<point x="392" y="915"/>
			<point x="502" y="915" type="curve" smooth="yes"/>
			<point x="569" y="915"/>
			<point x="633" y="879"/>
			<point x="633" y="813" type="curve" smooth="yes"/>
			<point x="633" y="770"/>
			<point x="608" y="728"/>
			<point x="573" y="728" type="curve" smooth="yes"/>
			<point x="556" y="728"/>
			<point x="545" y="739"/>
			<point x="542" y="755" type="curve"/>
			<point x="539" y="746"/>
			<point x="537" y="735"/>
			<point x="537" y="726" type="curve" smooth="yes"/>
			<point x="537" y="703"/>
			<point x="556" y="680"/>
			<point x="597" y="680" type="curve" smooth="yes"/>
			<point x="644" y="680"/>
			<point x="685" y="728"/>
			<point x="685" y="783" type="curve" smooth="yes"/>
			<point x="685" y="858"/>
			<point x="599" y="921"/>
			<point x="495" y="921" type="curve" smooth="yes"/>
			<point x="358" y="921"/>
			<point x="244" y="817"/>
			<point x="244" y="687" type="curve" smooth="yes"/>
			<point x="244" y="632"/>
			<point x="265" y="581"/>
			<point x="306" y="539" type="curve"/>
			<point x="160" y="515"/>
			<point x="44" y="366"/>
			<point x="44" y="204" type="curve" smooth="yes"/>
			<point x="44" y="10"/>
			<point x="209" y="-138"/>
			<point x="425" y="-138" type="curve" smooth="yes"/>
			<point x="660" y="-138"/>
			<point x="855" y="40"/>
			<point x="855" y="253" type="curve" smooth="yes"/>
			<point x="855" y="323"/>
			<point x="834" y="433"/>
			<point x="740" y="485" type="curve" smooth="yes"/>
			<point x="736" y="487"/>
			<point x="725" y="484"/>
			<point x="736" y="479" type="curve"/>
			<point x="860" y="460" type="line" smooth="yes"/>
			<point x="1010" y="437"/>
			<point x="1084" y="542"/>
			<point x="1084" y="651" type="curve" smooth="yes"/>
			<point x="1084" y="721"/>
			<point x="1045" y="787"/>
			<point x="980" y="787" type="curve" smooth="yes"/>
			<point x="936" y="787"/>
			<point x="903" y="750"/>
			<point x="903" y="718" type="curve" smooth="yes"/>
			<point x="903" y="697"/>
			<point x="912" y="677"/>
			<point x="934" y="667" type="curve"/>
			<point x="933" y="671"/>
			<point x="932" y="675"/>
			<point x="932" y="679" type="curve" smooth="yes"/>
			<point x="932" y="706"/>
			<point x="957" y="739"/>
			<point x="1003" y="739" type="curve" smooth="yes"/>
			<point x="1037" y="739"/>
			<point x="1077" y="720"/>
		</contour>
		<contour>
			<point x="807" y="93" type="curve" smooth="yes"/>
			<point x="729" y="-25"/>
			<point x="593" y="-105"/>
			<point x="439" y="-105" type="curve" smooth="yes"/>
			<point x="232" y="-105"/>
			<point x="77" y="37"/>
			<point x="77" y="230" type="curve" smooth="yes"/>
			<point x="77" y="332"/>
			<point x="121" y="427"/>
			<point x="189" y="481" type="curve"/>
			<point x="190" y="482"/>
			<point x="192" y="480"/>
			<point x="191" y="479" type="curve"/>
			<point x="128" y="425"/>
			<point x="87" y="332"/>
			<point x="87" y="230" type="curve" smooth="yes"/>
			<point x="87" y="46"/>
			<point x="237" y="-92"/>
			<point x="439" y="-92" type="curve" smooth="yes"/>
			<point x="593" y="-92"/>
			<point x="727" y="-16"/>
			<point x="805" y="95" type="curve"/>
			<point x="806" y="96"/>
			<point x="808" y="95"/>
		</contour>
		<contour>
			<point x="528" y="442" type="curve"/>
			<point x="526" y="442" type="line"/>
			<point x="554" y="489"/>
			<point x="615" y="514"/>
			<point x="689" y="514" type="curve" smooth="yes"/>
			<point x="740" y="514"/>
			<point x="820" y="504"/>
			<point x="871" y="504" type="curve" smooth="yes"/>
			<point x="962" y="504"/>
			<point x="1045" y="531"/>
			<point x="1071" y="603" type="curve"/>
			<point x="1073" y="603" type="line"/>
			<point x="1046" y="525"/>
			<point x="963" y="492"/>
			<point x="871" y="492" type="curve" smooth="yes"/>
			<point x="814" y="492"/>
			<point x="734" y="502"/>
			<point x="677" y="502" type="curve" smooth="yes"/>
			<point x="610" y="502"/>
			<point x="555" y="482"/>
		</contour>
		<contour>
			<point x="556" y="722" type="curve"/>
			<point x="557" y="722" type="line"/>
			<point x="563" y="712"/>
			<point x="571" y="707"/>
			<point x="588" y="707" type="curve" smooth="yes"/>
			<point x="626" y="707"/>
			<point x="657" y="759"/>
			<point x="657" y="801" type="curve" smooth="yes"/>
			<point x="657" y="833"/>
			<point x="640" y="864"/>
			<point x="611" y="882" type="curve"/>
			<point x="612" y="884" type="line"/>
			<point x="645" y="863"/>
			<point x="664" y="829"/>
			<point x="664" y="794" type="curve" smooth="yes"/>
			<point x="664" y="745"/>
			<point x="629" y="701"/>
			<point x="590" y="701" type="curve" smooth="yes"/>
			<point x="571" y="701"/>
			<point x="561" y="712"/>
		</contour>
		<contour>
			<point x="928" y="682" type="curve"/>
			<point x="928" y="680" type="line"/>
			<point x="919" y="686"/>
			<point x="915" y="696"/>
			<point x="915" y="707" type="curve" smooth="yes"/>
			<point x="915" y="742"/>
			<point x="950" y="767"/>
			<point x="986" y="767" type="curve" smooth="yes"/>
			<point x="1028" y="767"/>
			<point x="1049" y="741"/>
			<point x="1057" y="732" type="curve"/>
			<point x="1055" y="730" type="line"/>
			<point x="1047" y="739"/>
			<point x="1033" y="761"/>
			<point x="994" y="761" type="curve" smooth="yes"/>
			<point x="955" y="761"/>
			<point x="922" y="735"/>
			<point x="922" y="699" type="curve" smooth="yes"/>
			<point x="922" y="692"/>
			<point x="926" y="685"/>
		</contour>
		<contour>
			<point x="647" y="321" type="curve"/>
			<point x="647" y="323" type="line"/>
			<point x="656" y="317"/>
			<point x="660" y="307"/>
			<point x="660" y="296" type="curve" smooth="yes"/>
			<point x="660" y="261"/>
			<point x="625" y="236"/>
			<point x="589" y="236" type="curve" smooth="yes"/>
			<point x="547" y="236"/>
			<point x="526" y="262"/>
			<point x="518" y="271" type="curve"/>
			<point x="520" y="273" type="line"/>
			<point x="528" y="264"/>
			<point x="542" y="242"/>
			<point x="581" y="242" type="curve" smooth="yes"/>
			<point x="620" y="242"/>
			<point x="653" y="268"/>
			<point x="653" y="304" type="curve" smooth="yes"/>
			<point x="653" y="311"/>
			<point x="649" y="318"/>
		</contour>
		<contour>
			<point x="296" y="560" type="curve"/>
			<point x="272" y="587"/>
			<point x="257" y="632"/>
			<point x="257" y="676" type="curve" smooth="yes"/>
			<point x="257" y="807"/>
			<point x="364" y="903"/>
			<point x="463" y="915" type="curve"/>
			<point x="464" y="915"/>
			<point x="464" y="913"/>
			<point x="463" y="913" type="curve"/>
			<point x="368" y="901"/>
			<point x="264" y="802"/>
			<point x="264" y="669" type="curve" smooth="yes"/>
			<point x="264" y="627"/>
			<point x="277" y="585"/>
			<point x="298" y="562" type="curve"/>
			<point x="299" y="561"/>
			<point x="297" y="559"/>
		</contour>
	</outline>
</glyph>
<glyph name="parenleft" format="2">
	<advance width="363"/>
	<unicode hex="0028"/>
	<outline>
		<contour>
			<point x="540" y="864" type="curve"/>
			<point x="536" y="867" type="line"/>
			<point x="395" y="834"/>
			<point x="162" y="618"/>
			<point x="110" y="366" type="curve" smooth="yes"/>
			<point x="58" y="116"/>
			<point x="110" y="-80"/>
			<point x="239" y="-194" type="curve"/>
			<point x="244" y="-192" type="line"/>
			<point x="113" y="-67"/>
			<point x="146" y="176"/>
			<point x="187" y="359" type="curve" smooth="yes"/>
			<point x="240" y="594"/>
			<point x="380" y="825"/>
		</contour>
		<contour>
			<point x="186" y="-124" type="curve"/>
			<point x="185" y="-126" type="line"/>
			<point x="91" y="27"/>
			<point x="107" y="206"/>
			<point x="140" y="362" type="curve" smooth="yes"/>
			<point x="179" y="543"/>
			<point x="295" y="723"/>
			<point x="428" y="812" type="curve"/>
			<point x="430" y="811" type="line"/>
			<point x="299" y="721"/>
			<point x="195" y="541"/>
			<point x="154" y="361" type="curve" smooth="yes"/>
			<point x="117" y="197"/>
			<point x="107" y="13"/>
		</contour>
	</outline>
</glyph>
<glyph name="parenright" format="2">
	<advance width="376"/>
	<unicode hex="0029"/>
	<outline>
		<contour>
			<point x="-104" y="-191" type="curve"/>
			<point x="-100" y="-194" type="line"/>
			<point x="42" y="-161"/>
			<point x="277" y="71"/>
			<point x="328" y="339" type="curve" smooth="yes"/>
			<point x="373" y="576"/>
			<point x="328" y="753"/>
			<point x="197" y="867" type="curve"/>
			<point x="192" y="865" type="line"/>
			<point x="328" y="740"/>
			<point x="281" y="516"/>
			<point x="251" y="346" type="curve" smooth="yes"/>
			<point x="206" y="93"/>
			<point x="57" y="-152"/>
		</contour>
		<contour>
			<point x="243" y="805" type="curve"/>
			<point x="244" y="807" type="line"/>
			<point x="342" y="650"/>
			<point x="325" y="504"/>
			<point x="296" y="341" type="curve" smooth="yes"/>
			<point x="263" y="156"/>
			<point x="136" y="-50"/>
			<point x="3" y="-139" type="curve"/>
			<point x="1" y="-138" type="line"/>
			<point x="132" y="-48"/>
			<point x="247" y="158"/>
			<point x="282" y="342" type="curve" smooth="yes"/>
			<point x="314" y="512"/>
			<point x="326" y="664"/>
		</contour>
	</outline>
</glyph>
<glyph name="plus" format="2">
	<advance width="431"/>
	<unicode hex="002B"/>
	<outline>
		<contour>
			<point x="78" y="334" type="line"/>
			<point x="218.409" y="334" type="line" smooth="yes"/>
			<point x="224.165" y="334"/>
			<point x="226.371" y="331.236"/>
			<point x="225.094" y="325.623" type="curve" smooth="yes"/>
			<point x="194" y="189" type="line"/>
			<point x="205" y="189" type="line"/>
			<point x="236.094" y="325.623" type="line" smooth="yes"/>
			<point x="237.371" y="331.236"/>
			<point x="240.835" y="334"/>
			<point x="246.591" y="334" type="curve" smooth="yes"/>
			<point x="388" y="334" type="line"/>
			<point x="389" y="344" type="line"/>
			<point x="248.591" y="344" type="line" smooth="yes"/>
			<point x="242.835" y="344"/>
			<point x="240.633" y="346.763"/>
			<point x="241.919" y="352.374" type="curve" smooth="yes"/>
			<point x="273" y="488" type="line"/>
			<point x="262" y="488" type="line"/>
			<point x="230.919" y="352.374" type="line" smooth="yes"/>
			<point x="229.633" y="346.763"/>
			<point x="226.165" y="344"/>
			<point x="220.409" y="344" type="curve" smooth="yes"/>
			<point x="79" y="344" type="line"/>
		</contour>
	</outline>
</glyph>
<glyph name="period" format="2">
	<advance width="228"/>
	<unicode hex="002E"/>
	<outline>
		<contour>
			<point x="152" y="55" type="curve" smooth="yes"/>
			<point x="158" y="92"/>
			<point x="133" y="120"/>
			<point x="96" y="120" type="curve" smooth="yes"/>
			<point x="61" y="120"/>
			<point x="28" y="92"/>
			<point x="22" y="55" type="curve" smooth="yes"/>
			<point x="16" y="18"/>
			<point x="42" y="-10"/>
			<point x="79" y="-10" type="curve" smooth="yes"/>
			<point x="114" y="-10"/>
			<point x="146" y="18"/>
		</contour>
		<contour>
			<point x="74" y="55" type="curve" smooth="yes"/>
			<point x="75" y="62"/>
			<point x="82" y="68"/>
			<point x="89" y="68" type="curve" smooth="yes"/>
			<point x="96" y="68"/>
			<point x="101" y="62"/>
			<point x="100" y="55" type="curve" smooth="yes"/>
			<point x="99" y="48"/>
			<point x="92" y="42"/>
			<point x="85" y="42" type="curve" smooth="yes"/>
			<point x="78" y="42"/>
			<point x="73" y="48"/>
		</contour>
	</outline>
</glyph>
<glyph name="slash" format="2">
	<advance width="485"/>
	<unicode hex="002F"/>
	<outline>
		<contour>
			<point x="515" y="858" type="line"/>
			<point x="70" y="-169" type="line"/>
			<point x="79" y="-169" type="line"/>
			<point x="525" y="858" type="line"/>
		</contour>
	</outline>
</glyph>
<glyph name="zero" format="2">
	<advance width="802"/>
	<unicode hex="0030"/>
	<outline>
		<contour>
			<point x="77" y="337" type="curve" smooth="yes"/>
			<point x="69" y="120"/>
			<point x="191" y="-15"/>
			<point x="379" y="-15" type="curve" smooth="yes"/>
			<point x="649" y="-15"/>
			<point x="859" y="308"/>
			<point x="859" y="554" type="curve" smooth="yes"/>
			<point x="859" y="748"/>
			<point x="738" y="891"/>
			<point x="562" y="891" type="curve" smooth="yes"/>
			<point x="327" y="891"/>
			<point x="87" y="627"/>
		</contour>
		<contour>
			<point x="562" y="886" type="curve" smooth="yes"/>
			<point x="695" y="886"/>
			<point x="774" y="753"/>
			<point x="774" y="569" type="curve" smooth="yes"/>
			<point x="774" y="363"/>
			<point x="621" y="-10"/>
			<point x="368" y="-10" type="curve" smooth="yes"/>
			<point x="234" y="-10"/>
			<point x="157" y="134"/>
			<point x="164" y="332" type="curve" smooth="yes"/>
			<point x="173" y="576"/>
			<point x="349" y="886"/>
		</contour>
		<contour>
			<point x="265" y="15" type="curve"/>
			<point x="265" y="13" type="line"/>
			<point x="165" y="55"/>
			<point x="113" y="173"/>
			<point x="113" y="333" type="curve" smooth="yes"/>
			<point x="113" y="542"/>
			<point x="269" y="806"/>
			<point x="458" y="869" type="curve"/>
			<point x="458" y="867" type="line"/>
			<point x="282" y="806"/>
			<point x="127" y="539"/>
			<point x="127" y="333" type="curve" smooth="yes"/>
			<point x="127" y="187"/>
			<point x="169" y="56"/>
		</contour>
		<contour>
			<point x="662" y="866" type="curve"/>
			<point x="662" y="868" type="line"/>
			<point x="762" y="828"/>
			<point x="825" y="711"/>
			<point x="825" y="561" type="curve" smooth="yes"/>
			<point x="825" y="312"/>
			<point x="653" y="64"/>
			<point x="467" y="3" type="curve"/>
			<point x="467" y="5" type="line"/>
			<point x="653" y="68"/>
			<point x="811" y="324"/>
			<point x="811" y="561" type="curve" smooth="yes"/>
			<point x="811" y="708"/>
			<point x="759" y="825"/>
		</contour>
	</outline>
</glyph>
<glyph name="one" format="2">
	<advance width="311"/>
	<unicode hex="0031"/>
	<outline>
		<contour>
			<point x="243" y="733" type="curve" smooth="yes"/>
			<point x="92" y="86" type="line" smooth="yes"/>
			<point x="79" y="30"/>
			<point x="61" y="10"/>
			<point x="-3" y="6" type="curve" smooth="yes"/>
			<point x="-33" y="4" type="line"/>
			<point x="-33" y="0" type="line"/>
			<point x="104" y="0" type="line"/>
			<point x="293" y="805" type="line"/>
			<point x="312" y="827" type="line"/>
			<point x="118" y="0" type="line"/>
			<point x="259" y="0" type="line"/>
			<point x="260" y="4" type="line"/>
			<point x="225" y="7" type="line" smooth="yes"/>
			<point x="170" y="12"/>
			<point x="157" y="26"/>
			<point x="169" y="79" type="curve" smooth="yes"/>
			<point x="362" y="898" type="line"/>
			<point x="358" y="900" type="line"/>
			<point x="307" y="820"/>
			<point x="239" y="741"/>
			<point x="128" y="697" type="curve"/>
			<point x="130" y="693" type="line"/>
			<point x="167" y="707"/>
			<point x="199" y="722"/>
			<point x="228" y="742" type="curve" smooth="yes"/>
			<point x="243" y="753"/>
			<point x="247" y="751"/>
		</contour>
	</outline>
</glyph>
<glyph name="two" format="2">
	<advance width="614"/>
	<unicode hex="0032"/>
	<outline>
		<contour>
			<point x="39" y="80" type="curve"/>
			<point x="29" y="46" type="line"/>
			<point x="510" y="46" type="line"/>
			<point x="582" y="216" type="line"/>
			<point x="577" y="216" type="line"/>
			<point x="526" y="113"/>
			<point x="513" y="80"/>
			<point x="451" y="80" type="curve" smooth="yes"/>
			<point x="64" y="80" type="line" smooth="yes"/>
			<point x="45" y="80"/>
			<point x="57" y="94"/>
			<point x="61" y="101" type="curve" smooth="yes"/>
			<point x="181" y="293"/>
			<point x="380" y="381"/>
			<point x="505" y="468" type="curve" smooth="yes"/>
			<point x="616" y="545"/>
			<point x="669" y="624"/>
			<point x="669" y="715" type="curve" smooth="yes"/>
			<point x="669" y="828"/>
			<point x="581" y="901"/>
			<point x="444" y="901" type="curve" smooth="yes"/>
			<point x="301" y="901"/>
			<point x="170" y="806"/>
			<point x="170" y="703" type="curve" smooth="yes"/>
			<point x="170" y="650"/>
			<point x="209" y="610"/>
			<point x="262" y="610" type="curve" smooth="yes"/>
			<point x="316" y="610"/>
			<point x="353" y="654"/>
			<point x="351" y="715" type="curve"/>
			<point x="341" y="696"/>
			<point x="323" y="685"/>
			<point x="302" y="685" type="curve" smooth="yes"/>
			<point x="266" y="685"/>
			<point x="239" y="713"/>
			<point x="239" y="751" type="curve" smooth="yes"/>
			<point x="239" y="827"/>
			<point x="321" y="890"/>
			<point x="420" y="890" type="curve" smooth="yes"/>
			<point x="521" y="890"/>
			<point x="580" y="831"/>
			<point x="580" y="730" type="curve" smooth="yes"/>
			<point x="580" y="477"/>
			<point x="211" y="381"/>
		</contour>
		<contour>
			<point x="25" y="34" type="line"/>
			<point x="15" y="0" type="line"/>
			<point x="491" y="0" type="line"/>
			<point x="505" y="34" type="line"/>
		</contour>
		<contour>
			<point x="618" y="724" type="curve" smooth="yes"/>
			<point x="618" y="799"/>
			<point x="590" y="875"/>
			<point x="470" y="891" type="curve"/>
			<point x="470" y="892" type="line"/>
			<point x="604" y="876"/>
			<point x="632" y="800"/>
			<point x="632" y="724" type="curve" smooth="yes"/>
			<point x="632" y="574"/>
			<point x="445" y="450"/>
			<point x="294" y="344" type="curve"/>
			<point x="292" y="345" type="line"/>
			<point x="460" y="463"/>
			<point x="618" y="581"/>
		</contour>
		<contour>
			<point x="278" y="849" type="curve"/>
			<point x="281" y="850" type="line"/>
			<point x="240" y="820"/>
			<point x="201" y="779"/>
			<point x="201" y="728" type="curve" smooth="yes"/>
			<point x="201" y="686"/>
			<point x="231" y="647"/>
			<point x="271" y="647" type="curve" smooth="yes"/>
			<point x="287" y="647"/>
			<point x="310" y="650"/>
			<point x="327" y="668" type="curve"/>
			<point x="327" y="666" type="line"/>
			<point x="309" y="647"/>
			<point x="282" y="638"/>
			<point x="262" y="638" type="curve" smooth="yes"/>
			<point x="220" y="638"/>
			<point x="193" y="675"/>
			<point x="193" y="720" type="curve" smooth="yes"/>
			<point x="193" y="773"/>
			<point x="237" y="819"/>
		</contour>
	</outline>
</glyph>
<glyph name="three" format="2">
	<advance width="641"/>
	<unicode hex="0033"/>
	<outline>
		<contour>
			<point x="456" y="492" type="curve" smooth="yes"/>
			<point x="439" y="495"/>
			<point x="439" y="497"/>
			<point x="455" y="502" type="curve" smooth="yes"/>
			<point x="556" y="534"/>
			<point x="683" y="610"/>
			<point x="683" y="732" type="curve" smooth="yes"/>
			<point x="683" y="829"/>
			<point x="595" y="901"/>
			<point x="469" y="901" type="curve" smooth="yes"/>
			<point x="331" y="901"/>
			<point x="200" y="806"/>
			<point x="198" y="703" type="curve" smooth="yes"/>
			<point x="197" y="650"/>
			<point x="233" y="610"/>
			<point x="282" y="610" type="curve" smooth="yes"/>
			<point x="336" y="610"/>
			<point x="376" y="656"/>
			<point x="374" y="715" type="curve"/>
			<point x="365" y="696"/>
			<point x="347" y="685"/>
			<point x="327" y="685" type="curve" smooth="yes"/>
			<point x="291" y="685"/>
			<point x="264" y="718"/>
			<point x="266" y="758" type="curve" smooth="yes"/>
			<point x="270" y="830"/>
			<point x="348" y="891"/>
			<point x="438" y="890" type="curve" smooth="yes"/>
			<point x="538" y="889"/>
			<point x="597" y="831"/>
			<point x="597" y="736" type="curve" smooth="yes"/>
			<point x="597" y="659"/>
			<point x="500" y="497"/>
			<point x="414" y="497" type="curve" smooth="yes"/>
			<point x="412" y="497" type="line" smooth="yes"/>
			<point x="396" y="497"/>
			<point x="383" y="500"/>
			<point x="368" y="496" type="curve"/>
			<point x="368" y="487" type="line"/>
			<point x="376" y="489"/>
			<point x="386" y="489"/>
			<point x="386" y="489" type="curve"/>
			<point x="484" y="489"/>
			<point x="541" y="422"/>
			<point x="541" y="308" type="curve" smooth="yes"/>
			<point x="541" y="135"/>
			<point x="411" y="-11"/>
			<point x="257" y="-11" type="curve" smooth="yes"/>
			<point x="155" y="-11"/>
			<point x="81" y="51"/>
			<point x="81" y="135" type="curve" smooth="yes"/>
			<point x="81" y="189"/>
			<point x="115" y="232"/>
			<point x="158" y="232" type="curve" smooth="yes"/>
			<point x="179" y="232"/>
			<point x="195" y="221"/>
			<point x="199" y="203" type="curve"/>
			<point x="205" y="214"/>
			<point x="208" y="225"/>
			<point x="208" y="235" type="curve" smooth="yes"/>
			<point x="208" y="271"/>
			<point x="171" y="301"/>
			<point x="128" y="301" type="curve" smooth="yes"/>
			<point x="67" y="301"/>
			<point x="10" y="249"/>
			<point x="10" y="171" type="curve" smooth="yes"/>
			<point x="10" y="43"/>
			<point x="140" y="-18"/>
			<point x="251" y="-18" type="curve" smooth="yes"/>
			<point x="465" y="-18"/>
			<point x="623" y="125"/>
			<point x="623" y="301" type="curve" smooth="yes"/>
			<point x="623" y="401"/>
			<point x="558" y="474"/>
		</contour>
		<contour>
			<point x="354" y="672" type="curve"/>
			<point x="354" y="670" type="line"/>
			<point x="336" y="651"/>
			<point x="309" y="642"/>
			<point x="289" y="642" type="curve" smooth="yes"/>
			<point x="248" y="642"/>
			<point x="222" y="677"/>
			<point x="222" y="720" type="curve" smooth="yes"/>
			<point x="222" y="773"/>
			<point x="266" y="819"/>
			<point x="307" y="849" type="curve"/>
			<point x="310" y="850" type="line"/>
			<point x="269" y="820"/>
			<point x="230" y="779"/>
			<point x="230" y="728" type="curve" smooth="yes"/>
			<point x="230" y="688"/>
			<point x="259" y="651"/>
			<point x="298" y="651" type="curve" smooth="yes"/>
			<point x="314" y="651"/>
			<point x="337" y="654"/>
		</contour>
		<contour>
			<point x="490" y="892" type="curve"/>
			<point x="490" y="894" type="line"/>
			<point x="612" y="877"/>
			<point x="647" y="799"/>
			<point x="647" y="731" type="curve" smooth="yes"/>
			<point x="647" y="631"/>
			<point x="566" y="556"/>
			<point x="484" y="519" type="curve"/>
			<point x="484" y="521" type="line"/>
			<point x="562" y="561"/>
			<point x="633" y="635"/>
			<point x="633" y="731" type="curve" smooth="yes"/>
			<point x="633" y="798"/>
			<point x="599" y="875"/>
		</contour>
		<contour>
			<point x="465" y="479" type="curve"/>
			<point x="465" y="481" type="line"/>
			<point x="550" y="462"/>
			<point x="591" y="387"/>
			<point x="591" y="302" type="curve" smooth="yes"/>
			<point x="591" y="170"/>
			<point x="495" y="50"/>
			<point x="365" y="4" type="curve"/>
			<point x="365" y="6" type="line"/>
			<point x="487" y="52"/>
			<point x="577" y="172"/>
			<point x="577" y="304" type="curve" smooth="yes"/>
			<point x="577" y="386"/>
			<point x="542" y="460"/>
		</contour>
		<contour>
			<point x="136" y="16" type="curve"/>
			<point x="134" y="14" type="line"/>
			<point x="76" y="49"/>
			<point x="43" y="96"/>
			<point x="43" y="165" type="curve" smooth="yes"/>
			<point x="43" y="219"/>
			<point x="81" y="269"/>
			<point x="136" y="269" type="curve" smooth="yes"/>
			<point x="151" y="269"/>
			<point x="166" y="265"/>
			<point x="176" y="256" type="curve"/>
			<point x="175" y="254" type="line"/>
			<point x="166" y="261"/>
			<point x="155" y="264"/>
			<point x="143" y="264" type="curve" smooth="yes"/>
			<point x="91" y="264"/>
			<point x="51" y="208"/>
			<point x="51" y="159" type="curve" smooth="yes"/>
			<point x="51" y="95"/>
			<point x="82" y="48"/>
		</contour>
	</outline>
</glyph>
<glyph name="four" format="2">
	<advance width="597"/>
	<unicode hex="0034"/>
	<outline>
		<contour>
			<point x="1" y="215" type="curve"/>
			<point x="1" y="210" type="line"/>
			<point x="65" y="210" type="line"/>
			<point x="219" y="296"/>
			<point x="378" y="458"/>
			<point x="452" y="649" type="curve"/>
			<point x="454" y="649" type="line"/>
			<point x="381" y="459"/>
			<point x="232" y="297"/>
			<point x="89" y="210" type="curve"/>
			<point x="397" y="210" type="line" smooth="yes"/>
			<point x="411" y="210"/>
			<point x="416" y="204"/>
			<point x="413" y="190" type="curve" smooth="yes"/>
			<point x="387" y="86" type="line" smooth="yes"/>
			<point x="373" y="30"/>
			<point x="356" y="10"/>
			<point x="292" y="6" type="curve" smooth="yes"/>
			<point x="262" y="4" type="line"/>
			<point x="262" y="0" type="line"/>
			<point x="399" y="0" type="line"/>
			<point x="579" y="752" type="line"/>
			<point x="542" y="736" type="line"/>
			<point x="424" y="235" type="line" smooth="yes"/>
			<point x="421" y="221"/>
			<point x="412" y="215"/>
			<point x="398" y="215" type="curve" smooth="yes"/>
			<point x="178" y="215" type="line" smooth="yes"/>
			<point x="161" y="215"/>
			<point x="160" y="219"/>
			<point x="173" y="230" type="curve" smooth="yes"/>
			<point x="307" y="337"/>
			<point x="485" y="593"/>
			<point x="485" y="781" type="curve" smooth="yes"/>
			<point x="485" y="869"/>
			<point x="440" y="942"/>
			<point x="362" y="942" type="curve" smooth="yes"/>
			<point x="315" y="942"/>
			<point x="262" y="914"/>
			<point x="262" y="859" type="curve" smooth="yes"/>
			<point x="262" y="799"/>
			<point x="301" y="771"/>
			<point x="351" y="771" type="curve"/>
			<point x="335" y="779"/>
			<point x="325" y="796"/>
			<point x="325" y="817" type="curve" smooth="yes"/>
			<point x="325" y="845"/>
			<point x="357" y="884"/>
			<point x="399" y="884" type="curve" smooth="yes"/>
			<point x="437" y="884"/>
			<point x="476" y="872"/>
			<point x="476" y="785" type="curve" smooth="yes"/>
			<point x="476" y="568"/>
			<point x="179" y="271"/>
		</contour>
		<contour>
			<point x="594" y="758" type="line"/>
			<point x="413" y="0" type="line"/>
			<point x="554" y="0" type="line"/>
			<point x="555" y="4" type="line"/>
			<point x="520" y="7" type="line" smooth="yes"/>
			<point x="465" y="12"/>
			<point x="451" y="26"/>
			<point x="464" y="79" type="curve" smooth="yes"/>
			<point x="492" y="190" type="line" smooth="yes"/>
			<point x="496" y="204"/>
			<point x="504" y="210"/>
			<point x="518" y="210" type="curve" smooth="yes"/>
			<point x="592" y="210" type="line"/>
			<point x="592" y="215" type="line"/>
			<point x="519" y="215" type="line" smooth="yes"/>
			<point x="505" y="215"/>
			<point x="500" y="221"/>
			<point x="503" y="235" type="curve" smooth="yes"/>
			<point x="631" y="776" type="line"/>
		</contour>
		<contour>
			<point x="370" y="920" type="curve" smooth="yes"/>
			<point x="397" y="920"/>
			<point x="437" y="902"/>
			<point x="457" y="874" type="curve"/>
			<point x="455" y="874" type="line"/>
			<point x="435" y="900"/>
			<point x="397" y="912"/>
			<point x="373" y="912" type="curve" smooth="yes"/>
			<point x="335" y="912"/>
			<point x="293" y="879"/>
			<point x="293" y="839" type="curve" smooth="yes"/>
			<point x="293" y="823"/>
			<point x="299" y="807"/>
			<point x="313" y="794" type="curve"/>
			<point x="311" y="792" type="line"/>
			<point x="294" y="807"/>
			<point x="286" y="826"/>
			<point x="286" y="845" type="curve" smooth="yes"/>
			<point x="286" y="892"/>
			<point x="326" y="920"/>
		</contour>
	</outline>
</glyph>
<glyph name="five" format="2">
	<advance width="641"/>
	<unicode hex="0035"/>
	<outline>
		<contour>
			<point x="251" y="-18" type="curve" smooth="yes"/>
			<point x="433" y="-18"/>
			<point x="632" y="125"/>
			<point x="632" y="321" type="curve" smooth="yes"/>
			<point x="632" y="459"/>
			<point x="476" y="604"/>
			<point x="257" y="535" type="curve"/>
			<point x="249" y="542" type="line"/>
			<point x="322" y="793" type="line"/>
			<point x="557" y="793" type="line" smooth="yes"/>
			<point x="619" y="793"/>
			<point x="649" y="784"/>
			<point x="649" y="657" type="curve"/>
			<point x="656" y="657" type="line"/>
			<point x="660.005" y="830" type="line"/>
			<point x="520.5" y="830" type="line"/>
			<point x="347.203" y="830" type="line"/>
			<point x="335" y="814" type="line"/>
			<point x="328" y="814" type="line"/>
			<point x="353" y="891" type="line"/>
			<point x="343" y="891" type="line"/>
			<point x="238" y="528" type="line"/>
			<point x="231" y="526" type="line"/>
			<point x="234" y="522" type="line"/>
			<point x="462" y="597"/>
			<point x="547" y="445"/>
			<point x="547" y="325" type="curve" smooth="yes"/>
			<point x="547" y="165"/>
			<point x="431" y="-11"/>
			<point x="257" y="-11" type="curve" smooth="yes"/>
			<point x="155" y="-11"/>
			<point x="81" y="51"/>
			<point x="81" y="135" type="curve" smooth="yes"/>
			<point x="81" y="189"/>
			<point x="115" y="232"/>
			<point x="158" y="232" type="curve" smooth="yes"/>
			<point x="179" y="232"/>
			<point x="195" y="221"/>
			<point x="199" y="203" type="curve"/>
			<point x="205" y="214"/>
			<point x="208" y="225"/>
			<point x="208" y="235" type="curve" smooth="yes"/>
			<point x="208" y="271"/>
			<point x="171" y="301"/>
			<point x="128" y="301" type="curve" smooth="yes"/>
			<point x="65" y="301"/>
			<point x="10" y="237"/>
			<point x="10" y="163" type="curve" smooth="yes"/>
			<point x="10" y="60"/>
			<point x="113" y="-18"/>
		</contour>
		<contour>
			<point x="380" y="873" type="line"/>
			<point x="354.831" y="840" type="line"/>
			<point x="525" y="840" type="line"/>
			<point x="660.236" y="840" type="line"/>
			<point x="661" y="873" type="line"/>
		</contour>
		<contour>
			<point x="370" y="9" type="curve"/>
			<point x="370" y="11" type="line"/>
			<point x="493" y="56"/>
			<point x="584" y="183"/>
			<point x="584" y="322" type="curve" smooth="yes"/>
			<point x="584" y="427"/>
			<point x="517" y="524"/>
			<point x="408" y="543" type="curve"/>
			<point x="408" y="545" type="line"/>
			<point x="525" y="526"/>
			<point x="598" y="429"/>
			<point x="598" y="322" type="curve" smooth="yes"/>
			<point x="598" y="182"/>
			<point x="501" y="54"/>
		</contour>
		<contour>
			<point x="39" y="157" type="curve" smooth="yes"/>
			<point x="39" y="214"/>
			<point x="78" y="270"/>
			<point x="136" y="270" type="curve" smooth="yes"/>
			<point x="150" y="270"/>
			<point x="164" y="266"/>
			<point x="173" y="256" type="curve"/>
			<point x="172" y="254" type="line"/>
			<point x="164" y="262"/>
			<point x="154" y="265"/>
			<point x="143" y="265" type="curve" smooth="yes"/>
			<point x="89" y="265"/>
			<point x="49" y="203"/>
			<point x="49" y="151" type="curve" smooth="yes"/>
			<point x="49" y="89"/>
			<point x="78" y="48"/>
			<point x="136" y="14" type="curve"/>
			<point x="134" y="12" type="line"/>
			<point x="72" y="48"/>
			<point x="39" y="90"/>
		</contour>
	</outline>
</glyph>
<glyph name="six" format="2">
	<advance width="660"/>
	<unicode hex="0036"/>
	<outline>
		<contour>
			<point x="460" y="559" type="curve" smooth="yes"/>
			<point x="337" y="559"/>
			<point x="207" y="449"/>
			<point x="207" y="338" type="curve" smooth="yes"/>
			<point x="207" y="288"/>
			<point x="247" y="248"/>
			<point x="293" y="248" type="curve" smooth="yes"/>
			<point x="342" y="248"/>
			<point x="362" y="288"/>
			<point x="362" y="320" type="curve" smooth="yes"/>
			<point x="362" y="326"/>
			<point x="362" y="332"/>
			<point x="361" y="338" type="curve"/>
			<point x="353" y="317"/>
			<point x="333" y="305"/>
			<point x="312" y="305" type="curve" smooth="yes"/>
			<point x="276" y="305"/>
			<point x="254" y="338"/>
			<point x="254" y="379" type="curve" smooth="yes"/>
			<point x="254" y="481"/>
			<point x="350" y="550"/>
			<point x="453" y="550" type="curve" smooth="yes"/>
			<point x="558" y="550"/>
			<point x="591" y="451"/>
			<point x="591" y="354" type="curve" smooth="yes"/>
			<point x="591" y="179"/>
			<point x="468" y="-12"/>
			<point x="303" y="-12" type="curve" smooth="yes"/>
			<point x="212" y="-12"/>
			<point x="120" y="46"/>
			<point x="120" y="215" type="curve" smooth="yes"/>
			<point x="120" y="603"/>
			<point x="606" y="975"/>
			<point x="895" y="975" type="curve" smooth="yes"/>
			<point x="910" y="975"/>
			<point x="909" y="974"/>
			<point x="918" y="974" type="curve"/>
			<point x="919" y="978" type="line"/>
			<point x="909" y="979"/>
			<point x="898" y="979"/>
			<point x="887" y="979" type="curve" smooth="yes"/>
			<point x="552" y="979"/>
			<point x="40" y="612"/>
			<point x="40" y="239" type="curve" smooth="yes"/>
			<point x="40" y="72"/>
			<point x="143" y="-18"/>
			<point x="287" y="-18" type="curve" smooth="yes"/>
			<point x="488" y="-18"/>
			<point x="677" y="157"/>
			<point x="677" y="343" type="curve" smooth="yes"/>
			<point x="677" y="460"/>
			<point x="595" y="559"/>
		</contour>
		<contour>
			<point x="509" y="546" type="curve"/>
			<point x="509" y="548" type="line"/>
			<point x="603" y="532"/>
			<point x="642" y="440"/>
			<point x="642" y="350" type="curve" smooth="yes"/>
			<point x="642" y="214"/>
			<point x="548" y="66"/>
			<point x="416" y="12" type="curve"/>
			<point x="416" y="14" type="line"/>
			<point x="540" y="68"/>
			<point x="628" y="215"/>
			<point x="628" y="350" type="curve" smooth="yes"/>
			<point x="628" y="439"/>
			<point x="594" y="530"/>
		</contour>
		<contour>
			<point x="187" y="11" type="curve"/>
			<point x="187" y="9" type="line"/>
			<point x="123" y="40"/>
			<point x="73" y="111"/>
			<point x="73" y="225" type="curve" smooth="yes"/>
			<point x="73" y="534"/>
			<point x="405" y="832"/>
			<point x="697" y="940" type="curve"/>
			<point x="697" y="938" type="line"/>
			<point x="412" y="830"/>
			<point x="87" y="531"/>
			<point x="87" y="221" type="curve" smooth="yes"/>
			<point x="87" y="110"/>
			<point x="130" y="42"/>
		</contour>
		<contour>
			<point x="275" y="472" type="curve"/>
			<point x="277" y="470" type="line"/>
			<point x="249" y="433"/>
			<point x="237" y="404"/>
			<point x="236" y="368" type="curve" smooth="yes"/>
			<point x="235" y="341"/>
			<point x="241" y="311"/>
			<point x="259" y="295" type="curve" smooth="yes"/>
			<point x="288" y="269"/>
			<point x="337" y="277"/>
			<point x="353" y="310" type="curve"/>
			<point x="355" y="310" type="line"/>
			<point x="334" y="266"/>
			<point x="284" y="257"/>
			<point x="253" y="283" type="curve" smooth="yes"/>
			<point x="235" y="299"/>
			<point x="228" y="329"/>
			<point x="229" y="357" type="curve" smooth="yes"/>
			<point x="230" y="395"/>
			<point x="247" y="435"/>
		</contour>
	</outline>
</glyph>
<glyph name="seven" format="2">
	<advance width="549"/>
	<unicode hex="0037"/>
	<outline>
		<contour>
			<point x="246" y="-40" type="curve" smooth="yes"/>
			<point x="302" y="-40"/>
			<point x="347" y="-4"/>
			<point x="347" y="54" type="curve" smooth="yes"/>
			<point x="347" y="109"/>
			<point x="304" y="131"/>
			<point x="257" y="131" type="curve"/>
			<point x="273" y="123"/>
			<point x="283" y="106"/>
			<point x="283" y="85" type="curve" smooth="yes"/>
			<point x="283" y="48"/>
			<point x="247" y="14"/>
			<point x="207" y="14" type="curve" smooth="yes"/>
			<point x="156" y="14"/>
			<point x="127" y="41"/>
			<point x="127" y="102" type="curve" smooth="yes"/>
			<point x="127" y="251"/>
			<point x="552" y="539"/>
			<point x="635" y="793" type="curve"/>
			<point x="641" y="830" type="line"/>
			<point x="447" y="830" type="line"/>
			<point x="216" y="830" type="line"/>
			<point x="141" y="657" type="line"/>
			<point x="147" y="657" type="line"/>
			<point x="206" y="760"/>
			<point x="212" y="793"/>
			<point x="274" y="793" type="curve" smooth="yes"/>
			<point x="613" y="793" type="line" smooth="yes"/>
			<point x="632" y="793"/>
			<point x="620" y="779"/>
			<point x="616" y="772" type="curve" smooth="yes"/>
			<point x="519" y="581"/>
			<point x="115" y="432"/>
			<point x="115" y="130" type="curve" smooth="yes"/>
			<point x="115" y="63"/>
			<point x="156" y="-40"/>
		</contour>
		<contour>
			<point x="235" y="873" type="line"/>
			<point x="221" y="840" type="line"/>
			<point x="450" y="840" type="line"/>
			<point x="643" y="840" type="line"/>
			<point x="649" y="873" type="line"/>
		</contour>
		<contour>
			<point x="371" y="490" type="curve" smooth="yes"/>
			<point x="460" y="569"/>
			<point x="553" y="655"/>
			<point x="604" y="741" type="curve"/>
			<point x="606" y="739" type="line"/>
			<point x="554" y="651"/>
			<point x="473" y="565"/>
			<point x="383" y="484" type="curve" smooth="yes"/>
			<point x="254" y="368"/>
			<point x="150" y="262"/>
			<point x="126" y="134" type="curve"/>
			<point x="124" y="134" type="line"/>
			<point x="148" y="262"/>
			<point x="243" y="377"/>
		</contour>
		<contour>
			<point x="162" y="11" type="curve"/>
			<point x="164" y="13" type="line"/>
			<point x="188" y="-10"/>
			<point x="214" y="-13"/>
			<point x="237" y="-13" type="curve" smooth="yes"/>
			<point x="271" y="-13"/>
			<point x="311" y="12"/>
			<point x="311" y="68" type="curve" smooth="yes"/>
			<point x="311" y="99"/>
			<point x="291" y="113"/>
			<point x="291" y="113" type="curve"/>
			<point x="291" y="115" type="line"/>
			<point x="291" y="115"/>
			<point x="321" y="92"/>
			<point x="321" y="55" type="curve" smooth="yes"/>
			<point x="321" y="3"/>
			<point x="277" y="-21"/>
			<point x="243" y="-21" type="curve" smooth="yes"/>
			<point x="220" y="-21"/>
			<point x="186" y="-13"/>
		</contour>
	</outline>
</glyph>
<glyph name="eight" format="2">
	<advance width="674"/>
	<unicode hex="0038"/>
	<outline>
		<contour>
			<point x="453" y="539" type="curve"/>
			<point x="458" y="535" type="line"/>
			<point x="551" y="576"/>
			<point x="673" y="639"/>
			<point x="673" y="750" type="curve" smooth="yes"/>
			<point x="673" y="837"/>
			<point x="594" y="902"/>
			<point x="488" y="902" type="curve" smooth="yes"/>
			<point x="365" y="902"/>
			<point x="229" y="809"/>
			<point x="229" y="675" type="curve" smooth="yes"/>
			<point x="229" y="608"/>
			<point x="264" y="548"/>
			<point x="324" y="512" type="curve" smooth="yes"/>
			<point x="468" y="426" type="line" smooth="yes"/>
			<point x="539" y="383"/>
			<point x="576" y="319"/>
			<point x="576" y="238" type="curve" smooth="yes"/>
			<point x="576" y="90"/>
			<point x="458" y="-7"/>
			<point x="314" y="-7" type="curve" smooth="yes"/>
			<point x="191" y="-7"/>
			<point x="121" y="67"/>
			<point x="121" y="195" type="curve" smooth="yes"/>
			<point x="121" y="349"/>
			<point x="221" y="445"/>
			<point x="344" y="511" type="curve"/>
			<point x="340" y="517" type="line"/>
			<point x="200" y="453"/>
			<point x="32" y="372"/>
			<point x="32" y="195" type="curve" smooth="yes"/>
			<point x="32" y="64"/>
			<point x="126" y="-18"/>
			<point x="278" y="-18" type="curve" smooth="yes"/>
			<point x="446" y="-18"/>
			<point x="660" y="86"/>
			<point x="660" y="280" type="curve" smooth="yes"/>
			<point x="660" y="371"/>
			<point x="610" y="452"/>
			<point x="526" y="502" type="curve" smooth="yes"/>
			<point x="387" y="585" type="line" smooth="yes"/>
			<point x="336" y="615"/>
			<point x="307" y="660"/>
			<point x="307" y="716" type="curve" smooth="yes"/>
			<point x="307" y="814"/>
			<point x="391" y="896"/>
			<point x="488" y="896" type="curve" smooth="yes"/>
			<point x="566" y="896"/>
			<point x="617" y="844"/>
			<point x="617" y="765" type="curve" smooth="yes"/>
			<point x="617" y="666"/>
			<point x="534" y="587"/>
		</contour>
		<contour>
			<point x="519" y="63" type="curve"/>
			<point x="584" y="123"/>
			<point x="616" y="193"/>
			<point x="616" y="253" type="curve" smooth="yes"/>
			<point x="616" y="339"/>
			<point x="584" y="404"/>
			<point x="492" y="459" type="curve" smooth="yes"/>
			<point x="353" y="542" type="line" smooth="yes"/>
			<point x="284" y="583"/>
			<point x="266" y="629"/>
			<point x="266" y="691" type="curve" smooth="yes"/>
			<point x="266" y="747"/>
			<point x="299" y="817"/>
			<point x="345" y="850" type="curve"/>
			<point x="346" y="851"/>
			<point x="348" y="849"/>
			<point x="347" y="848" type="curve"/>
			<point x="305" y="815"/>
			<point x="274" y="748"/>
			<point x="274" y="693" type="curve" smooth="yes"/>
			<point x="274" y="634"/>
			<point x="293" y="594"/>
			<point x="362" y="553" type="curve" smooth="yes"/>
			<point x="501" y="470" type="line" smooth="yes"/>
			<point x="594" y="414"/>
			<point x="624" y="343"/>
			<point x="624" y="255" type="curve" smooth="yes"/>
			<point x="624" y="195"/>
			<point x="590" y="122"/>
			<point x="521" y="61" type="curve"/>
			<point x="520" y="60"/>
			<point x="518" y="62"/>
		</contour>
		<contour>
			<point x="567" y="880" type="curve"/>
			<point x="567" y="882" type="line"/>
			<point x="620" y="861"/>
			<point x="651" y="815"/>
			<point x="651" y="762" type="curve" smooth="yes"/>
			<point x="651" y="672"/>
			<point x="583" y="607"/>
			<point x="491" y="556" type="curve"/>
			<point x="491" y="558" type="line"/>
			<point x="577" y="608"/>
			<point x="641" y="673"/>
			<point x="641" y="762" type="curve" smooth="yes"/>
			<point x="641" y="814"/>
			<point x="614" y="859"/>
		</contour>
		<contour>
			<point x="189" y="11" type="curve"/>
			<point x="189" y="9" type="line"/>
			<point x="118" y="40"/>
			<point x="67" y="105"/>
			<point x="67" y="201" type="curve" smooth="yes"/>
			<point x="67" y="329"/>
			<point x="154" y="410"/>
			<point x="275" y="480" type="curve"/>
			<point x="277" y="478" type="line"/>
			<point x="162" y="407"/>
			<point x="81" y="325"/>
			<point x="81" y="197" type="curve" smooth="yes"/>
			<point x="81" y="104"/>
			<point x="126" y="42"/>
		</contour>
	</outline>
</glyph>
<glyph name="nine" format="2">
	<advance width="677"/>
	<unicode hex="0039"/>
	<outline>
		<contour>
			<point x="308" y="316" type="curve" smooth="yes"/>
			<point x="433" y="316"/>
			<point x="565" y="428"/>
			<point x="565" y="540" type="curve" smooth="yes"/>
			<point x="565" y="591"/>
			<point x="524" y="632"/>
			<point x="477" y="632" type="curve" smooth="yes"/>
			<point x="428" y="632"/>
			<point x="407" y="591"/>
			<point x="407" y="559" type="curve" smooth="yes"/>
			<point x="407" y="553"/>
			<point x="407" y="547"/>
			<point x="408" y="540" type="curve"/>
			<point x="416" y="562"/>
			<point x="437" y="574"/>
			<point x="458" y="574" type="curve" smooth="yes"/>
			<point x="494" y="574"/>
			<point x="517" y="540"/>
			<point x="517" y="499" type="curve" smooth="yes"/>
			<point x="517" y="395"/>
			<point x="419" y="325"/>
			<point x="315" y="325" type="curve" smooth="yes"/>
			<point x="208" y="325"/>
			<point x="175" y="426"/>
			<point x="175" y="524" type="curve" smooth="yes"/>
			<point x="175" y="702"/>
			<point x="300" y="896"/>
			<point x="467" y="896" type="curve" smooth="yes"/>
			<point x="559" y="896"/>
			<point x="653" y="837"/>
			<point x="653" y="665" type="curve" smooth="yes"/>
			<point x="653" y="272"/>
			<point x="160" y="-106"/>
			<point x="-134" y="-106" type="curve" smooth="yes"/>
			<point x="-149" y="-106"/>
			<point x="-148" y="-105"/>
			<point x="-157" y="-105" type="curve"/>
			<point x="-158" y="-109" type="line"/>
			<point x="-148" y="-110"/>
			<point x="-137" y="-110"/>
			<point x="-126" y="-110" type="curve" smooth="yes"/>
			<point x="214" y="-110"/>
			<point x="734" y="262"/>
			<point x="734" y="641" type="curve" smooth="yes"/>
			<point x="734" y="810"/>
			<point x="629" y="902"/>
			<point x="483" y="902" type="curve" smooth="yes"/>
			<point x="279" y="902"/>
			<point x="88" y="724"/>
			<point x="88" y="535" type="curve" smooth="yes"/>
			<point x="88" y="417"/>
			<point x="171" y="316"/>
		</contour>
		<contour>
			<point x="586" y="871" type="curve"/>
			<point x="586" y="873" type="line"/>
			<point x="650" y="842"/>
			<point x="700" y="771"/>
			<point x="700" y="657" type="curve" smooth="yes"/>
			<point x="700" y="344"/>
			<point x="368" y="42"/>
			<point x="76" y="-66" type="curve"/>
			<point x="76" y="-64" type="line"/>
			<point x="361" y="44"/>
			<point x="686" y="347"/>
			<point x="686" y="661" type="curve" smooth="yes"/>
			<point x="686" y="772"/>
			<point x="643" y="840"/>
		</contour>
		<contour>
			<point x="259" y="332" type="curve"/>
			<point x="259" y="330" type="line"/>
			<point x="165" y="346"/>
			<point x="126" y="440"/>
			<point x="126" y="532" type="curve" smooth="yes"/>
			<point x="126" y="668"/>
			<point x="220" y="816"/>
			<point x="352" y="870" type="curve"/>
			<point x="352" y="868" type="line"/>
			<point x="228" y="814"/>
			<point x="140" y="667"/>
			<point x="140" y="532" type="curve" smooth="yes"/>
			<point x="140" y="441"/>
			<point x="174" y="348"/>
		</contour>
		<contour>
			<point x="496" y="409" type="curve"/>
			<point x="494" y="411" type="line"/>
			<point x="522" y="448"/>
			<point x="534" y="477"/>
			<point x="535" y="513" type="curve" smooth="yes"/>
			<point x="536" y="540"/>
			<point x="530" y="570"/>
			<point x="512" y="586" type="curve" smooth="yes"/>
			<point x="483" y="612"/>
			<point x="434" y="604"/>
			<point x="418" y="571" type="curve"/>
			<point x="416" y="571" type="line"/>
			<point x="437" y="615"/>
			<point x="487" y="624"/>
			<point x="518" y="598" type="curve" smooth="yes"/>
			<point x="536" y="582"/>
			<point x="543" y="552"/>
			<point x="542" y="524" type="curve" smooth="yes"/>
			<point x="541" y="486"/>
			<point x="524" y="446"/>
		</contour>
	</outline>
</glyph>
<glyph name="colon" format="2">
	<advance width="240"/>
	<unicode hex="003A"/>
	<outline>
		<contour>
			<point x="152" y="55" type="curve" smooth="yes"/>
			<point x="158" y="92"/>
			<point x="133" y="120"/>
			<point x="96" y="120" type="curve" smooth="yes"/>
			<point x="61" y="120"/>
			<point x="28" y="92"/>
			<point x="22" y="55" type="curve" smooth="yes"/>
			<point x="16" y="18"/>
			<point x="42" y="-10"/>
			<point x="79" y="-10" type="curve" smooth="yes"/>
			<point x="114" y="-10"/>
			<point x="146" y="18"/>
		</contour>
		<contour>
			<point x="74" y="55" type="curve" smooth="yes"/>
			<point x="75" y="62"/>
			<point x="82" y="68"/>
			<point x="89" y="68" type="curve" smooth="yes"/>
			<point x="96" y="68"/>
			<point x="101" y="62"/>
			<point x="100" y="55" type="curve" smooth="yes"/>
			<point x="99" y="48"/>
			<point x="92" y="42"/>
			<point x="85" y="42" type="curve" smooth="yes"/>
			<point x="78" y="42"/>
			<point x="73" y="48"/>
		</contour>
		<contour>
			<point x="262" y="515" type="curve" smooth="yes"/>
			<point x="268" y="552"/>
			<point x="243" y="580"/>
			<point x="206" y="580" type="curve" smooth="yes"/>
			<point x="171" y="580"/>
			<point x="138" y="552"/>
			<point x="132" y="515" type="curve" smooth="yes"/>
			<point x="126" y="478"/>
			<point x="152" y="450"/>
			<point x="189" y="450" type="curve" smooth="yes"/>
			<point x="224" y="450"/>
			<point x="256" y="478"/>
		</contour>
		<contour>
			<point x="184" y="515" type="curve" smooth="yes"/>
			<point x="185" y="522"/>
			<point x="192" y="528"/>
			<point x="199" y="528" type="curve" smooth="yes"/>
			<point x="206" y="528"/>
			<point x="211" y="522"/>
			<point x="210" y="515" type="curve" smooth="yes"/>
			<point x="209" y="508"/>
			<point x="202" y="502"/>
			<point x="195" y="502" type="curve" smooth="yes"/>
			<point x="188" y="502"/>
			<point x="183" y="508"/>
		</contour>
	</outline>
</glyph>
<glyph name="equal" format="2">
	<advance width="525"/>
	<unicode hex="003D"/>
	<outline>
		<contour>
			<point x="109" y="249" type="curve"/>
			<point x="108" y="239" type="line"/>
			<point x="108" y="239"/>
			<point x="418" y="239"/>
			<point x="418" y="239" type="curve"/>
			<point x="419" y="249" type="line"/>
			<point x="419" y="249"/>
			<point x="109" y="249"/>
		</contour>
		<contour>
			<point x="141" y="406" type="curve"/>
			<point x="140" y="396" type="line"/>
			<point x="140" y="396"/>
			<point x="450" y="396"/>
			<point x="450" y="396" type="curve"/>
			<point x="451" y="406" type="line"/>
			<point x="451" y="406"/>
			<point x="141" y="406"/>
		</contour>
	</outline>
</glyph>
<glyph name="question" format="2">
	<advance width="551"/>
	<unicode hex="003F"/>
	<outline>
		<contour>
			<point x="199" y="195" type="curve"/>
			<point x="204" y="195" type="line"/>
			<point x="208" y="220"/>
			<point x="216" y="248"/>
			<point x="230" y="269" type="curve" smooth="yes"/>
			<point x="280" y="343"/>
			<point x="378" y="388"/>
			<point x="455" y="448" type="curve" smooth="yes"/>
			<point x="530" y="506"/>
			<point x="585" y="579"/>
			<point x="585" y="653" type="curve" smooth="yes"/>
			<point x="585" y="780"/>
			<point x="486" y="835"/>
			<point x="381" y="835" type="curve" smooth="yes"/>
			<point x="229" y="835"/>
			<point x="130" y="723"/>
			<point x="130" y="636" type="curve" smooth="yes"/>
			<point x="130" y="586"/>
			<point x="165" y="544"/>
			<point x="209" y="544" type="curve" smooth="yes"/>
			<point x="275" y="544"/>
			<point x="304" y="596"/>
			<point x="302" y="649" type="curve"/>
			<point x="291" y="628"/>
			<point x="273" y="619"/>
			<point x="258" y="619" type="curve" smooth="yes"/>
			<point x="226" y="619"/>
			<point x="195" y="642"/>
			<point x="195" y="694" type="curve" smooth="yes"/>
			<point x="195" y="742"/>
			<point x="247" y="824"/>
			<point x="350" y="824" type="curve" smooth="yes"/>
			<point x="459" y="824"/>
			<point x="502" y="754"/>
			<point x="502" y="682" type="curve" smooth="yes"/>
			<point x="502" y="486"/>
			<point x="209" y="383"/>
		</contour>
		<contour>
			<point x="250" y="55" type="curve" smooth="yes"/>
			<point x="256" y="92"/>
			<point x="231" y="120"/>
			<point x="194" y="120" type="curve" smooth="yes"/>
			<point x="159" y="120"/>
			<point x="126" y="92"/>
			<point x="120" y="55" type="curve" smooth="yes"/>
			<point x="114" y="18"/>
			<point x="140" y="-10"/>
			<point x="177" y="-10" type="curve" smooth="yes"/>
			<point x="212" y="-10"/>
			<point x="244" y="18"/>
		</contour>
		<contour>
			<point x="171" y="56" type="curve" smooth="yes"/>
			<point x="172" y="64"/>
			<point x="180" y="70"/>
			<point x="187" y="70" type="curve" smooth="yes"/>
			<point x="196" y="70"/>
			<point x="201" y="64"/>
			<point x="200" y="56" type="curve" smooth="yes"/>
			<point x="199" y="48"/>
			<point x="191" y="42"/>
			<point x="184" y="42" type="curve" smooth="yes"/>
			<point x="175" y="42"/>
			<point x="170" y="48"/>
		</contour>
		<contour>
			<point x="397" y="824" type="curve"/>
			<point x="397" y="826" type="line"/>
			<point x="524" y="811"/>
			<point x="551" y="738"/>
			<point x="551" y="666" type="curve" smooth="yes"/>
			<point x="551" y="503"/>
			<point x="380" y="452"/>
			<point x="251" y="306" type="curve"/>
			<point x="249" y="307" type="line"/>
			<point x="372" y="454"/>
			<point x="537" y="506"/>
			<point x="537" y="668" type="curve" smooth="yes"/>
			<point x="537" y="737"/>
			<point x="510" y="809"/>
		</contour>
		<contour>
			<point x="284" y="605" type="curve"/>
			<point x="284" y="603" type="line"/>
			<point x="269" y="583"/>
			<point x="245" y="574"/>
			<point x="227" y="574" type="curve" smooth="yes"/>
			<point x="187" y="574"/>
			<point x="161" y="610"/>
			<point x="161" y="653" type="curve" smooth="yes"/>
			<point x="161" y="705"/>
			<point x="195" y="751"/>
			<point x="226" y="780" type="curve"/>
			<point x="229" y="781" type="line"/>
			<point x="198" y="752"/>
			<point x="169" y="711"/>
			<point x="169" y="661" type="curve" smooth="yes"/>
			<point x="169" y="621"/>
			<point x="198" y="583"/>
			<point x="236" y="583" type="curve" smooth="yes"/>
			<point x="250" y="583"/>
			<point x="270" y="586"/>
		</contour>
	</outline>
</glyph>
<glyph name="at" format="2">
	<advance width="875"/>
	<unicode hex="0040"/>
	<outline>
		<contour>
			<point x="66" y="274" type="curve" smooth="yes"/>
			<point x="66" y="77"/>
			<point x="213" y="-75"/>
			<point x="417" y="-75" type="curve" smooth="yes"/>
			<point x="494" y="-75"/>
			<point x="569" y="-56"/>
			<point x="639" y="-22" type="curve"/>
			<point x="636" y="-18" type="line"/>
			<point x="567" y="-52"/>
			<point x="493" y="-71"/>
			<point x="417" y="-71" type="curve" smooth="yes"/>
			<point x="215" y="-71"/>
			<point x="70" y="79"/>
			<point x="70" y="274" type="curve" smooth="yes"/>
			<point x="70" y="514"/>
			<point x="279" y="722"/>
			<point x="507" y="722" type="curve" smooth="yes"/>
			<point x="708" y="722"/>
			<point x="854" y="572"/>
			<point x="854" y="378" type="curve" smooth="yes"/>
			<point x="854" y="228"/>
			<point x="750" y="102"/>
			<point x="644" y="102" type="curve" smooth="yes"/>
			<point x="589" y="102"/>
			<point x="533" y="145"/>
			<point x="563" y="270" type="curve" smooth="yes"/>
			<point x="623" y="521" type="line"/>
			<point x="603" y="521" type="line"/>
			<point x="544" y="270" type="line" smooth="yes"/>
			<point x="527" y="202"/>
			<point x="540" y="115"/>
			<point x="617" y="101" type="curve"/>
			<point x="617" y="99" type="line"/>
			<point x="531" y="114"/>
			<point x="518" y="200"/>
			<point x="534" y="270" type="curve" smooth="yes"/>
			<point x="593" y="521" type="line"/>
			<point x="573" y="521" type="line"/>
			<point x="561" y="474" type="line"/>
			<point x="551" y="513"/>
			<point x="521" y="530"/>
			<point x="482" y="530" type="curve" smooth="yes"/>
			<point x="401" y="530"/>
			<point x="315" y="438"/>
			<point x="290" y="323" type="curve" smooth="yes"/>
			<point x="266" y="208"/>
			<point x="301" y="116"/>
			<point x="385" y="116" type="curve" smooth="yes"/>
			<point x="433" y="116"/>
			<point x="477" y="162"/>
			<point x="508" y="244" type="curve"/>
			<point x="502" y="153"/>
			<point x="540" y="92"/>
			<point x="637" y="92" type="curve" smooth="yes"/>
			<point x="740" y="92"/>
			<point x="858" y="217"/>
			<point x="858" y="378" type="curve" smooth="yes"/>
			<point x="858" y="574"/>
			<point x="710" y="726"/>
			<point x="507" y="726" type="curve" smooth="yes"/>
			<point x="277" y="726"/>
			<point x="66" y="516"/>
		</contour>
		<contour>
			<point x="350" y="323" type="curve" smooth="yes"/>
			<point x="384" y="456"/>
			<point x="434" y="526"/>
			<point x="486" y="526" type="curve" smooth="yes"/>
			<point x="516" y="526"/>
			<point x="541" y="512"/>
			<point x="552" y="476" type="curve" smooth="yes"/>
			<point x="558" y="454"/>
			<point x="550" y="431"/>
			<point x="542" y="394" type="curve"/>
			<point x="529" y="340" type="line"/>
			<point x="513" y="278" type="line"/>
			<point x="482" y="177"/>
			<point x="436" y="123"/>
			<point x="390" y="123" type="curve" smooth="yes"/>
			<point x="338" y="123"/>
			<point x="316" y="189"/>
		</contour>
		<contour>
			<point x="315" y="323" type="curve" smooth="yes"/>
			<point x="344" y="439"/>
			<point x="395" y="501"/>
			<point x="449" y="520" type="curve"/>
			<point x="449" y="519" type="line"/>
			<point x="402" y="500"/>
			<point x="354" y="433"/>
			<point x="327" y="323" type="curve" smooth="yes"/>
			<point x="308" y="246"/>
			<point x="305" y="165"/>
			<point x="351" y="130" type="curve"/>
			<point x="350" y="129" type="line"/>
			<point x="295" y="160"/>
			<point x="298" y="256"/>
		</contour>
	</outline>
</glyph>
<glyph name="B" format="2">
	<advance width="1266"/>
	<unicode hex="0042"/>
	<outline>
		<contour>
			<point x="826" y="-53" type="curve" smooth="yes"/>
			<point x="1003" y="-53"/>
			<point x="1239" y="31"/>
			<point x="1239" y="246" type="curve" smooth="yes"/>
			<point x="1239" y="352"/>
			<point x="1163" y="420"/>
			<point x="1051" y="449" type="curve" smooth="yes"/>
			<point x="1033" y="454"/>
			<point x="1014" y="455"/>
			<point x="993" y="458" type="curve" smooth="yes"/>
			<point x="986" y="459"/>
			<point x="990" y="464"/>
			<point x="998" y="464" type="curve" smooth="yes"/>
			<point x="1136" y="464"/>
			<point x="1272" y="546"/>
			<point x="1272" y="698" type="curve" smooth="yes"/>
			<point x="1272" y="818"/>
			<point x="1172" y="897"/>
			<point x="1006" y="897" type="curve" smooth="yes"/>
			<point x="972" y="897"/>
			<point x="910" y="891"/>
			<point x="873" y="891" type="curve" smooth="yes"/>
			<point x="871" y="891" type="line" smooth="yes"/>
			<point x="867" y="891"/>
			<point x="864" y="892"/>
			<point x="860" y="892" type="curve"/>
			<point x="749" y="424" type="line"/>
			<point x="640" y="-38" type="line"/>
			<point x="732" y="-43"/>
			<point x="787" y="-53"/>
		</contour>
		<contour>
			<point x="693" y="36" type="curve" smooth="yes"/>
			<point x="882" y="832" type="line" smooth="yes"/>
			<point x="897" y="894"/>
			<point x="972" y="890"/>
			<point x="1005" y="890" type="curve" smooth="yes"/>
			<point x="1126" y="888"/>
			<point x="1200" y="811"/>
			<point x="1200" y="703" type="curve" smooth="yes"/>
			<point x="1200" y="533"/>
			<point x="1060" y="466"/>
			<point x="910" y="461" type="curve"/>
			<point x="910" y="456" type="line"/>
			<point x="918" y="456" type="line" smooth="yes"/>
			<point x="1111" y="456"/>
			<point x="1155" y="350"/>
			<point x="1155" y="263" type="curve" smooth="yes"/>
			<point x="1155" y="136"/>
			<point x="1060" y="-46"/>
			<point x="819" y="-46" type="curve" smooth="yes"/>
			<point x="761" y="-46"/>
			<point x="675" y="-40"/>
		</contour>
		<contour>
			<point x="1" y="393" type="curve" smooth="yes"/>
			<point x="1" y="245"/>
			<point x="124" y="123"/>
			<point x="301" y="123" type="curve" smooth="yes"/>
			<point x="461" y="123"/>
			<point x="615" y="229"/>
			<point x="615" y="370" type="curve" smooth="yes"/>
			<point x="615" y="428"/>
			<point x="570" y="473"/>
			<point x="517" y="473" type="curve" smooth="yes"/>
			<point x="461" y="473"/>
			<point x="438" y="428"/>
			<point x="438" y="391" type="curve" smooth="yes"/>
			<point x="438" y="384"/>
			<point x="438" y="377"/>
			<point x="440" y="370" type="curve"/>
			<point x="449" y="395"/>
			<point x="472" y="408"/>
			<point x="495" y="408" type="curve" smooth="yes"/>
			<point x="536" y="408"/>
			<point x="562" y="371"/>
			<point x="562" y="324" type="curve" smooth="yes"/>
			<point x="562" y="200"/>
			<point x="430" y="128"/>
			<point x="312" y="128" type="curve" smooth="yes"/>
			<point x="150" y="128"/>
			<point x="70" y="281"/>
			<point x="70" y="422" type="curve" smooth="yes"/>
			<point x="70" y="754"/>
			<point x="345" y="891"/>
			<point x="642" y="891" type="curve" smooth="yes"/>
			<point x="765" y="891"/>
			<point x="807" y="885"/>
			<point x="784" y="789" type="curve" smooth="yes"/>
			<point x="609" y="36" type="line" smooth="yes"/>
			<point x="597" y="-14"/>
			<point x="568" y="-34"/>
			<point x="493" y="-34" type="curve"/>
			<point x="493" y="-38" type="line"/>
			<point x="549" y="-36" type="line"/>
			<point x="577" y="-36"/>
			<point x="602" y="-37"/>
			<point x="625" y="-38" type="curve"/>
			<point x="734" y="424" type="line"/>
			<point x="845" y="893" type="line"/>
			<point x="755" y="900"/>
			<point x="627" y="900"/>
			<point x="620" y="900" type="curve" smooth="yes"/>
			<point x="321" y="900"/>
			<point x="1" y="702"/>
		</contour>
		<contour>
			<point x="1190" y="253" type="curve" smooth="yes"/>
			<point x="1190" y="327"/>
			<point x="1165" y="403"/>
			<point x="1052" y="439" type="curve"/>
			<point x="1052" y="441" type="line"/>
			<point x="1179" y="404"/>
			<point x="1204" y="327"/>
			<point x="1204" y="251" type="curve" smooth="yes"/>
			<point x="1204" y="153"/>
			<point x="1120" y="-6"/>
			<point x="930" y="-38" type="curve"/>
			<point x="930" y="-36" type="line"/>
			<point x="1112" y="-4"/>
			<point x="1190" y="154"/>
		</contour>
		<contour>
			<point x="1051" y="476" type="curve"/>
			<point x="1051" y="478" type="line"/>
			<point x="1155" y="508"/>
			<point x="1229" y="587"/>
			<point x="1229" y="702" type="curve" smooth="yes"/>
			<point x="1229" y="799"/>
			<point x="1165" y="869"/>
			<point x="1073" y="886" type="curve"/>
			<point x="1073" y="888" type="line"/>
			<point x="1174" y="871"/>
			<point x="1243" y="799"/>
			<point x="1243" y="699" type="curve" smooth="yes"/>
			<point x="1243" y="582"/>
			<point x="1154" y="503"/>
		</contour>
		<contour>
			<point x="32" y="417" type="curve" smooth="yes"/>
			<point x="32" y="528"/>
			<point x="89" y="661"/>
			<point x="171" y="731" type="curve"/>
			<point x="173" y="729" type="line"/>
			<point x="96" y="658"/>
			<point x="44" y="528"/>
			<point x="44" y="421" type="curve" smooth="yes"/>
			<point x="44" y="259"/>
			<point x="134" y="162"/>
			<point x="246" y="133" type="curve"/>
			<point x="244" y="133" type="line"/>
			<point x="127" y="161"/>
			<point x="32" y="255"/>
		</contour>
		<contour>
			<point x="514" y="447" type="curve" smooth="yes"/>
			<point x="562" y="447"/>
			<point x="596" y="403"/>
			<point x="596" y="345" type="curve" smooth="yes"/>
			<point x="596" y="305"/>
			<point x="579" y="262"/>
			<point x="546" y="227" type="curve"/>
			<point x="544" y="229" type="line"/>
			<point x="579" y="265"/>
			<point x="591" y="306"/>
			<point x="591" y="344" type="curve" smooth="yes"/>
			<point x="591" y="403"/>
			<point x="548" y="440"/>
			<point x="502" y="440" type="curve" smooth="yes"/>
			<point x="489" y="440"/>
			<point x="475" y="436"/>
			<point x="469" y="426" type="curve"/>
			<point x="467" y="426" type="line"/>
			<point x="476" y="440"/>
			<point x="495" y="447"/>
		</contour>
	</outline>
</glyph>
<glyph name="E" format="2">
	<advance width="717"/>
	<unicode hex="0045"/>
	<anchor x="639" y="951" name="top"/>
	<outline>
		<contour>
			<point x="620" y="890" type="curve" smooth="yes"/>
			<point x="716" y="890"/>
			<point x="787" y="832"/>
			<point x="787" y="754" type="curve" smooth="yes"/>
			<point x="787" y="697"/>
			<point x="754" y="649"/>
			<point x="715" y="649" type="curve" smooth="yes"/>
			<point x="695" y="649"/>
			<point x="681" y="662"/>
			<point x="678" y="682" type="curve"/>
			<point x="674" y="674"/>
			<point x="672" y="662"/>
			<point x="672" y="646" type="curve" smooth="yes"/>
			<point x="672" y="612"/>
			<point x="697" y="590"/>
			<point x="735" y="590" type="curve" smooth="yes"/>
			<point x="789" y="590"/>
			<point x="835" y="648"/>
			<point x="835" y="716" type="curve" smooth="yes"/>
			<point x="835" y="816"/>
			<point x="740" y="895"/>
			<point x="620" y="895" type="curve" smooth="yes"/>
			<point x="425" y="895"/>
			<point x="242" y="762"/>
			<point x="242" y="554" type="curve" smooth="yes"/>
			<point x="242" y="502"/>
			<point x="253" y="463"/>
			<point x="271" y="434" type="curve"/>
			<point x="149" y="365"/>
			<point x="46" y="237"/>
			<point x="46" y="107" type="curve" smooth="yes"/>
			<point x="46" y="-24"/>
			<point x="164" y="-125"/>
			<point x="318" y="-125" type="curve" smooth="yes"/>
			<point x="481" y="-125"/>
			<point x="647" y="1"/>
			<point x="699" y="165" type="curve"/>
			<point x="690" y="169" type="line"/>
			<point x="654" y="35"/>
			<point x="502" y="-76"/>
			<point x="356" y="-76" type="curve" smooth="yes"/>
			<point x="223" y="-76"/>
			<point x="131" y="13"/>
			<point x="131" y="141" type="curve" smooth="yes"/>
			<point x="131" y="255"/>
			<point x="197" y="356"/>
			<point x="282" y="418" type="curve"/>
			<point x="331" y="357"/>
			<point x="411" y="349"/>
			<point x="443" y="349" type="curve" smooth="yes"/>
			<point x="510" y="349"/>
			<point x="580" y="387"/>
			<point x="580" y="428" type="curve" smooth="yes"/>
			<point x="580" y="457"/>
			<point x="544" y="488"/>
			<point x="452" y="488" type="curve" smooth="yes"/>
			<point x="411" y="488"/>
			<point x="367" y="478"/>
			<point x="325" y="461" type="curve"/>
			<point x="316" y="487"/>
			<point x="312" y="516"/>
			<point x="312" y="547" type="curve" smooth="yes"/>
			<point x="312" y="728"/>
			<point x="436" y="890"/>
		</contour>
		<contour>
			<point x="456" y="482" type="curve" smooth="yes"/>
			<point x="527" y="482"/>
			<point x="551" y="447"/>
			<point x="551" y="425" type="curve" smooth="yes"/>
			<point x="551" y="391"/>
			<point x="516" y="359"/>
			<point x="459" y="359" type="curve" smooth="yes"/>
			<point x="398" y="359"/>
			<point x="354" y="395"/>
			<point x="331" y="448" type="curve"/>
			<point x="371" y="469"/>
			<point x="414" y="482"/>
		</contour>
		<contour>
			<point x="429" y="356" type="curve"/>
			<point x="422" y="356" type="line"/>
			<point x="363" y="365"/>
			<point x="268" y="403"/>
			<point x="268" y="554" type="curve" smooth="yes"/>
			<point x="268" y="724"/>
			<point x="388" y="843"/>
			<point x="538" y="882" type="curve"/>
			<point x="538" y="880" type="line"/>
			<point x="396" y="845"/>
			<point x="282" y="720"/>
			<point x="282" y="552" type="curve" smooth="yes"/>
			<point x="282" y="399"/>
			<point x="376" y="363"/>
		</contour>
		<contour>
			<point x="573" y="-9" type="curve"/>
			<point x="575" y="-10" type="line"/>
			<point x="497" y="-75"/>
			<point x="415" y="-104"/>
			<point x="327" y="-104" type="curve" smooth="yes"/>
			<point x="202" y="-104"/>
			<point x="81" y="-31"/>
			<point x="81" y="123" type="curve" smooth="yes"/>
			<point x="81" y="233"/>
			<point x="153" y="341"/>
			<point x="245" y="407" type="curve"/>
			<point x="247" y="407" type="line"/>
			<point x="160" y="341"/>
			<point x="93" y="234"/>
			<point x="93" y="129" type="curve" smooth="yes"/>
			<point x="93" y="-23"/>
			<point x="214" y="-96"/>
			<point x="337" y="-96" type="curve" smooth="yes"/>
			<point x="418" y="-96"/>
			<point x="500" y="-71"/>
		</contour>
		<contour>
			<point x="680" y="646" type="curve"/>
			<point x="682" y="646" type="line"/>
			<point x="689" y="631"/>
			<point x="702" y="623"/>
			<point x="727" y="623" type="curve" smooth="yes"/>
			<point x="779" y="623"/>
			<point x="811" y="693"/>
			<point x="811" y="734" type="curve" smooth="yes"/>
			<point x="811" y="781"/>
			<point x="785" y="826"/>
			<point x="743" y="853" type="curve"/>
			<point x="745" y="855" type="line"/>
			<point x="792" y="825"/>
			<point x="818" y="777"/>
			<point x="818" y="728" type="curve" smooth="yes"/>
			<point x="818" y="677"/>
			<point x="784" y="615"/>
			<point x="729" y="615" type="curve" smooth="yes"/>
			<point x="701" y="615"/>
			<point x="687" y="633"/>
		</contour>
	</outline>
</glyph>
<glyph name="F" format="2">
	<advance width="1064"/>
	<unicode hex="0046"/>
	<outline>
		<contour>
			<point x="1054" y="778" type="curve"/>
			<point x="1058" y="778" type="line"/>
			<point x="984" y="715"/>
			<point x="926" y="611"/>
			<point x="893" y="470" type="curve" smooth="yes"/>
			<point x="816" y="138" type="line" smooth="yes"/>
			<point x="769" y="-65"/>
			<point x="644" y="-257"/>
			<point x="447" y="-288" type="curve"/>
			<point x="444" y="-287" type="line"/>
			<point x="646" y="-249"/>
			<point x="756" y="-61"/>
			<point x="803" y="140" type="curve" smooth="yes"/>
			<point x="880" y="472" type="line" smooth="yes"/>
			<point x="913" y="613"/>
			<point x="980" y="717"/>
		</contour>
		<contour>
			<point x="795" y="373" type="curve" smooth="yes"/>
			<point x="806" y="373" type="line" smooth="yes"/>
			<point x="815" y="373"/>
			<point x="819" y="369"/>
			<point x="817" y="360" type="curve" smooth="yes"/>
			<point x="774" y="166" type="line" smooth="yes"/>
			<point x="728" y="-41"/>
			<point x="616" y="-288"/>
			<point x="381" y="-288" type="curve" smooth="yes"/>
			<point x="287" y="-288"/>
			<point x="221" y="-232"/>
			<point x="221" y="-152" type="curve" smooth="yes"/>
			<point x="221" y="-93"/>
			<point x="260" y="-48"/>
			<point x="311" y="-48" type="curve" smooth="yes"/>
			<point x="336" y="-48"/>
			<point x="356" y="-63"/>
			<point x="362" y="-86" type="curve"/>
			<point x="365" y="-78"/>
			<point x="367" y="-69"/>
			<point x="367" y="-57" type="curve" smooth="yes"/>
			<point x="367" y="-10"/>
			<point x="335" y="22"/>
			<point x="287" y="22" type="curve" smooth="yes"/>
			<point x="224" y="22"/>
			<point x="172" y="-36"/>
			<point x="172" y="-105" type="curve" smooth="yes"/>
			<point x="172" y="-222"/>
			<point x="263" y="-297"/>
			<point x="404" y="-297" type="curve" smooth="yes"/>
			<point x="589" y="-297"/>
			<point x="786" y="-142"/>
			<point x="849" y="125" type="curve" smooth="yes"/>
			<point x="904" y="360" type="line" smooth="yes"/>
			<point x="906" y="369"/>
			<point x="912" y="373"/>
			<point x="921" y="373" type="curve" smooth="yes"/>
			<point x="946" y="373" type="line" smooth="yes"/>
			<point x="1008" y="373"/>
			<point x="1019" y="318"/>
			<point x="1012" y="266" type="curve" smooth="yes"/>
			<point x="1007" y="228" type="line"/>
			<point x="1012" y="228" type="line"/>
			<point x="1090" y="522" type="line"/>
			<point x="1085" y="522" type="line"/>
			<point x="1073" y="493" type="line" smooth="yes"/>
			<point x="1052" y="442"/>
			<point x="1012" y="379"/>
			<point x="947" y="379" type="curve" smooth="yes"/>
			<point x="923" y="379" type="line" smooth="yes"/>
			<point x="914" y="379"/>
			<point x="910" y="383"/>
			<point x="912" y="392" type="curve" smooth="yes"/>
			<point x="936" y="494" type="line" smooth="yes"/>
			<point x="989" y="720"/>
			<point x="1094" y="828"/>
			<point x="1176" y="852" type="curve"/>
			<point x="1172" y="857" type="line"/>
			<point x="1149" y="852"/>
			<point x="1123" y="847"/>
			<point x="1101" y="847" type="curve" smooth="yes"/>
			<point x="940" y="848"/>
			<point x="796" y="909"/>
			<point x="641" y="909" type="curve" smooth="yes"/>
			<point x="293" y="909"/>
			<point x="-28" y="665"/>
			<point x="-28" y="402" type="curve" smooth="yes"/>
			<point x="-28" y="230"/>
			<point x="111" y="104"/>
			<point x="281" y="104" type="curve" smooth="yes"/>
			<point x="415" y="104"/>
			<point x="565" y="204"/>
			<point x="565" y="329" type="curve" smooth="yes"/>
			<point x="565" y="382"/>
			<point x="529" y="425"/>
			<point x="485" y="425" type="curve" smooth="yes"/>
			<point x="436" y="425"/>
			<point x="400" y="393"/>
			<point x="400" y="349" type="curve" smooth="yes"/>
			<point x="400" y="342"/>
			<point x="400" y="336"/>
			<point x="402" y="329" type="curve"/>
			<point x="409" y="350"/>
			<point x="430" y="364"/>
			<point x="453" y="364" type="curve" smooth="yes"/>
			<point x="490" y="364"/>
			<point x="516" y="332"/>
			<point x="516" y="286" type="curve" smooth="yes"/>
			<point x="516" y="181"/>
			<point x="405" y="116"/>
			<point x="314" y="116" type="curve" smooth="yes"/>
			<point x="164" y="116"/>
			<point x="37" y="216"/>
			<point x="37" y="403" type="curve" smooth="yes"/>
			<point x="37" y="691"/>
			<point x="218" y="852"/>
			<point x="544" y="852" type="curve" smooth="yes"/>
			<point x="648" y="852"/>
			<point x="1001" y="787"/>
			<point x="1071" y="813" type="curve" smooth="yes"/>
			<point x="1093" y="821"/>
			<point x="1091" y="809"/>
			<point x="1078" y="802" type="curve" smooth="yes"/>
			<point x="984" y="749"/>
			<point x="880" y="644"/>
			<point x="838" y="455" type="curve" smooth="yes"/>
			<point x="824" y="392" type="line" smooth="yes"/>
			<point x="822" y="383"/>
			<point x="816" y="379"/>
			<point x="807" y="379" type="curve" smooth="yes"/>
			<point x="795" y="379" type="line" smooth="yes"/>
			<point x="704" y="379"/>
			<point x="628" y="327"/>
			<point x="628" y="264" type="curve" smooth="yes"/>
			<point x="628" y="231"/>
			<point x="650" y="205"/>
			<point x="676" y="202" type="curve"/>
			<point x="677" y="204" type="line"/>
			<point x="661" y="208"/>
			<point x="650" y="227"/>
			<point x="650" y="253" type="curve" smooth="yes"/>
			<point x="650" y="326"/>
			<point x="707" y="373"/>
		</contour>
		<contour>
			<point x="1062" y="831" type="curve"/>
			<point x="1053" y="828" type="line"/>
			<point x="889" y="823"/>
			<point x="732" y="879"/>
			<point x="570" y="879" type="curve" smooth="yes"/>
			<point x="468" y="879"/>
			<point x="366" y="854"/>
			<point x="289" y="816" type="curve"/>
			<point x="289" y="818" type="line"/>
			<point x="365" y="858"/>
			<point x="482" y="888"/>
			<point x="587" y="888" type="curve" smooth="yes"/>
			<point x="741" y="888"/>
			<point x="899" y="830"/>
		</contour>
		<contour>
			<point x="-1" y="402" type="curve" smooth="yes"/>
			<point x="-1" y="529"/>
			<point x="48" y="633"/>
			<point x="136" y="713" type="curve"/>
			<point x="134" y="711"/>
			<point x="133" y="709"/>
			<point x="131" y="707" type="curve" smooth="yes"/>
			<point x="51" y="631"/>
			<point x="11" y="525"/>
			<point x="11" y="406" type="curve" smooth="yes"/>
			<point x="11" y="212"/>
			<point x="149" y="111"/>
			<point x="298" y="111" type="curve"/>
			<point x="298" y="109" type="line"/>
			<point x="142" y="109"/>
			<point x="-1" y="208"/>
		</contour>
		<contour>
			<point x="293" y="-12" type="curve" smooth="yes"/>
			<point x="309" y="-12"/>
			<point x="324" y="-16"/>
			<point x="334" y="-27" type="curve"/>
			<point x="332" y="-29" type="line"/>
			<point x="323" y="-20"/>
			<point x="313" y="-18"/>
			<point x="302" y="-18" type="curve" smooth="yes"/>
			<point x="233" y="-18"/>
			<point x="196" y="-85"/>
			<point x="196" y="-138" type="curve" smooth="yes"/>
			<point x="196" y="-160"/>
			<point x="201" y="-180"/>
			<point x="209" y="-197" type="curve"/>
			<point x="207" y="-197" type="line"/>
			<point x="196" y="-177"/>
			<point x="189" y="-150"/>
			<point x="189" y="-123" type="curve" smooth="yes"/>
			<point x="189" y="-71"/>
			<point x="224" y="-12"/>
		</contour>
		<contour>
			<point x="471" y="399" type="curve" smooth="yes"/>
			<point x="513" y="399"/>
			<point x="543" y="360"/>
			<point x="543" y="308" type="curve" smooth="yes"/>
			<point x="543" y="289"/>
			<point x="539" y="270"/>
			<point x="531" y="250" type="curve" smooth="yes"/>
			<point x="526" y="238"/>
			<point x="520" y="227"/>
			<point x="512" y="217" type="curve"/>
			<point x="531" y="247"/>
			<point x="538" y="277"/>
			<point x="538" y="307" type="curve" smooth="yes"/>
			<point x="538" y="357"/>
			<point x="501" y="390"/>
			<point x="460" y="390" type="curve" smooth="yes"/>
			<point x="448" y="390"/>
			<point x="430" y="387"/>
			<point x="423" y="376" type="curve"/>
			<point x="421" y="376" type="line"/>
			<point x="431" y="391"/>
			<point x="451" y="399"/>
		</contour>
	</outline>
</glyph>
<glyph name="H" format="2">
	<advance width="1392"/>
	<unicode hex="0048"/>
	<outline>
		<contour>
			<point x="0" y="451" type="curve" smooth="yes"/>
			<point x="0" y="279"/>
			<point x="149" y="155"/>
			<point x="318" y="155" type="curve" smooth="yes"/>
			<point x="471" y="155"/>
			<point x="642" y="268"/>
			<point x="642" y="408" type="curve" smooth="yes"/>
			<point x="642" y="464"/>
			<point x="603" y="511"/>
			<point x="550" y="511" type="curve" smooth="yes"/>
			<point x="502" y="511"/>
			<point x="465" y="478"/>
			<point x="465" y="429" type="curve" smooth="yes"/>
			<point x="465" y="422"/>
			<point x="465" y="415"/>
			<point x="467" y="408" type="curve"/>
			<point x="476" y="433"/>
			<point x="499" y="446"/>
			<point x="522" y="446" type="curve" smooth="yes"/>
			<point x="563" y="446"/>
			<point x="589" y="409"/>
			<point x="589" y="362" type="curve" smooth="yes"/>
			<point x="589" y="240"/>
			<point x="463" y="170"/>
			<point x="352" y="170" type="curve" smooth="yes"/>
			<point x="199" y="170"/>
			<point x="69" y="276"/>
			<point x="69" y="475" type="curve" smooth="yes"/>
			<point x="69" y="748"/>
			<point x="271" y="877"/>
			<point x="640" y="843" type="curve" smooth="yes"/>
			<point x="901" y="819" type="line" smooth="yes"/>
			<point x="913" y="818"/>
			<point x="916" y="814"/>
			<point x="908" y="808" type="curve" smooth="yes"/>
			<point x="859" y="771"/>
			<point x="813" y="700"/>
			<point x="783" y="573" type="curve" smooth="yes"/>
			<point x="695" y="206" type="line" smooth="yes"/>
			<point x="642" y="-17"/>
			<point x="533" y="-288"/>
			<point x="293" y="-288" type="curve" smooth="yes"/>
			<point x="178" y="-288"/>
			<point x="133" y="-214"/>
			<point x="133" y="-152" type="curve" smooth="yes"/>
			<point x="133" y="-94"/>
			<point x="171" y="-48"/>
			<point x="223" y="-48" type="curve" smooth="yes"/>
			<point x="246" y="-48"/>
			<point x="268" y="-59"/>
			<point x="273" y="-81" type="curve"/>
			<point x="278" y="-74"/>
			<point x="279" y="-65"/>
			<point x="279" y="-57" type="curve" smooth="yes"/>
			<point x="279" y="-10"/>
			<point x="248" y="17"/>
			<point x="201" y="17" type="curve" smooth="yes"/>
			<point x="137" y="17"/>
			<point x="84" y="-38"/>
			<point x="84" y="-105" type="curve" smooth="yes"/>
			<point x="84" y="-224"/>
			<point x="177" y="-297"/>
			<point x="316" y="-297" type="curve" smooth="yes"/>
			<point x="505" y="-297"/>
			<point x="701" y="-126"/>
			<point x="770" y="165" type="curve" smooth="yes"/>
			<point x="825" y="397" type="line" smooth="yes"/>
			<point x="828" y="411"/>
			<point x="837" y="417"/>
			<point x="851" y="417" type="curve" smooth="yes"/>
			<point x="1246" y="417" type="line" smooth="yes"/>
			<point x="1260" y="417"/>
			<point x="1264" y="411"/>
			<point x="1261" y="398" type="curve" smooth="yes"/>
			<point x="1188" y="86" type="line" smooth="yes"/>
			<point x="1175" y="30"/>
			<point x="1157" y="10"/>
			<point x="1093" y="6" type="curve" smooth="yes"/>
			<point x="1063" y="4" type="line"/>
			<point x="1063" y="0" type="line"/>
			<point x="1204" y="0" type="line"/>
			<point x="1302" y="418" type="line" smooth="yes"/>
			<point x="1336" y="564"/>
			<point x="1380" y="794"/>
			<point x="1502" y="882" type="curve"/>
			<point x="1504" y="881" type="line"/>
			<point x="1379" y="778"/>
			<point x="1349" y="564"/>
			<point x="1315" y="418" type="curve" smooth="yes"/>
			<point x="1217" y="0" type="line"/>
			<point x="1362" y="0" type="line"/>
			<point x="1363" y="4" type="line"/>
			<point x="1328" y="7" type="line" smooth="yes"/>
			<point x="1273" y="12"/>
			<point x="1260" y="26"/>
			<point x="1272" y="79" type="curve" smooth="yes"/>
			<point x="1381" y="550" type="line" smooth="yes"/>
			<point x="1404" y="649"/>
			<point x="1455" y="919"/>
			<point x="1605" y="919" type="curve" smooth="yes"/>
			<point x="1640" y="919"/>
			<point x="1668" y="898"/>
			<point x="1668" y="869" type="curve" smooth="yes"/>
			<point x="1668" y="841"/>
			<point x="1645" y="810"/>
			<point x="1612" y="810" type="curve" smooth="yes"/>
			<point x="1601" y="810"/>
			<point x="1591" y="812"/>
			<point x="1582" y="823" type="curve"/>
			<point x="1578" y="788"/>
			<point x="1606" y="759"/>
			<point x="1644" y="759" type="curve" smooth="yes"/>
			<point x="1688" y="759"/>
			<point x="1726" y="799"/>
			<point x="1726" y="849" type="curve" smooth="yes"/>
			<point x="1726" y="903"/>
			<point x="1673" y="928"/>
			<point x="1629" y="928" type="curve" smooth="yes"/>
			<point x="1465" y="928"/>
			<point x="1351" y="763"/>
			<point x="1297" y="542" type="curve" smooth="yes"/>
			<point x="1277" y="460" type="line" smooth="yes"/>
			<point x="1268" y="424"/>
			<point x="1260" y="422"/>
			<point x="1247" y="422" type="curve" smooth="yes"/>
			<point x="852" y="422" type="line" smooth="yes"/>
			<point x="838" y="422"/>
			<point x="833" y="428"/>
			<point x="836" y="442" type="curve" smooth="yes"/>
			<point x="873" y="598" type="line" smooth="yes"/>
			<point x="915" y="776"/>
			<point x="938" y="857"/>
			<point x="1036" y="860" type="curve"/>
			<point x="1036" y="863" type="line"/>
			<point x="674" y="901" type="line" smooth="yes"/>
			<point x="346" y="935"/>
			<point x="0" y="704"/>
		</contour>
		<contour>
			<point x="357" y="-289" type="curve"/>
			<point x="354" y="-288" type="line"/>
			<point x="549" y="-265"/>
			<point x="674" y="-22"/>
			<point x="725" y="187" type="curve" smooth="yes"/>
			<point x="816" y="560" type="line" smooth="yes"/>
			<point x="840" y="660"/>
			<point x="887" y="793"/>
			<point x="954" y="841" type="curve"/>
			<point x="662" y="871" type="line" smooth="yes"/>
			<point x="561" y="881"/>
			<point x="439" y="881"/>
			<point x="359" y="840" type="curve"/>
			<point x="359" y="842" type="line"/>
			<point x="439" y="881"/>
			<point x="566" y="888"/>
			<point x="667" y="878" type="curve" smooth="yes"/>
			<point x="963" y="848" type="line"/>
			<point x="962" y="847"/>
			<point x="963" y="847"/>
			<point x="964" y="848" type="curve"/>
			<point x="968" y="847" type="line"/>
			<point x="900" y="811"/>
			<point x="857" y="675"/>
			<point x="828" y="558" type="curve" smooth="yes"/>
			<point x="737" y="185" type="line" smooth="yes"/>
			<point x="685" y="-27"/>
			<point x="547" y="-273"/>
		</contour>
		<contour>
			<point x="29" y="462" type="curve" smooth="yes"/>
			<point x="29" y="576"/>
			<point x="78" y="669"/>
			<point x="165" y="741" type="curve"/>
			<point x="163" y="739"/>
			<point x="162" y="737"/>
			<point x="160" y="735" type="curve" smooth="yes"/>
			<point x="81" y="667"/>
			<point x="41" y="572"/>
			<point x="41" y="466" type="curve" smooth="yes"/>
			<point x="41" y="265"/>
			<point x="188" y="162"/>
			<point x="346" y="162" type="curve"/>
			<point x="346" y="160" type="line"/>
			<point x="181" y="160"/>
			<point x="29" y="261"/>
		</contour>
		<contour>
			<point x="208" y="-12" type="curve" smooth="yes"/>
			<point x="224" y="-12"/>
			<point x="239" y="-16"/>
			<point x="249" y="-27" type="curve"/>
			<point x="247" y="-29" type="line"/>
			<point x="238" y="-20"/>
			<point x="228" y="-18"/>
			<point x="217" y="-18" type="curve" smooth="yes"/>
			<point x="148" y="-18"/>
			<point x="111" y="-85"/>
			<point x="111" y="-138" type="curve" smooth="yes"/>
			<point x="111" y="-160"/>
			<point x="116" y="-180"/>
			<point x="124" y="-197" type="curve"/>
			<point x="122" y="-197" type="line"/>
			<point x="111" y="-177"/>
			<point x="104" y="-150"/>
			<point x="104" y="-123" type="curve" smooth="yes"/>
			<point x="104" y="-71"/>
			<point x="139" y="-12"/>
		</contour>
		<contour>
			<point x="535" y="486" type="curve" smooth="yes"/>
			<point x="583" y="486"/>
			<point x="617" y="442"/>
			<point x="617" y="384" type="curve" smooth="yes"/>
			<point x="617" y="367"/>
			<point x="614" y="349"/>
			<point x="607" y="331" type="curve" smooth="yes"/>
			<point x="602" y="319"/>
			<point x="596" y="308"/>
			<point x="588" y="298" type="curve"/>
			<point x="606" y="326"/>
			<point x="612" y="355"/>
			<point x="612" y="383" type="curve" smooth="yes"/>
			<point x="612" y="442"/>
			<point x="569" y="479"/>
			<point x="523" y="479" type="curve" smooth="yes"/>
			<point x="510" y="479"/>
			<point x="496" y="475"/>
			<point x="490" y="465" type="curve"/>
			<point x="488" y="465" type="line"/>
			<point x="497" y="479"/>
			<point x="516" y="486"/>
		</contour>
		<contour>
			<point x="1598" y="794" type="curve"/>
			<point x="1599" y="795" type="line"/>
			<point x="1606" y="788"/>
			<point x="1616" y="785"/>
			<point x="1624" y="785" type="curve" smooth="yes"/>
			<point x="1665" y="785"/>
			<point x="1692" y="820"/>
			<point x="1692" y="857" type="curve" smooth="yes"/>
			<point x="1692" y="887"/>
			<point x="1671" y="913"/>
			<point x="1639" y="920" type="curve"/>
			<point x="1641" y="921" type="line"/>
			<point x="1678" y="914"/>
			<point x="1701" y="886"/>
			<point x="1701" y="854" type="curve" smooth="yes"/>
			<point x="1701" y="816"/>
			<point x="1674" y="780"/>
			<point x="1631" y="780" type="curve" smooth="yes"/>
			<point x="1620" y="780"/>
			<point x="1607" y="785"/>
		</contour>
	</outline>
</glyph>
<glyph name="I" format="2">
	<advance width="792"/>
	<unicode hex="0049"/>
	<anchor x="877" y="951" name="top"/>
	<outline>
		<contour>
			<point x="294" y="-104" type="curve" smooth="yes"/>
			<point x="512" y="-104"/>
			<point x="673" y="44"/>
			<point x="734" y="300" type="curve" smooth="yes"/>
			<point x="799" y="575" type="line" smooth="yes"/>
			<point x="841" y="753"/>
			<point x="877" y="840"/>
			<point x="962" y="837" type="curve"/>
			<point x="962" y="841" type="line"/>
			<point x="823" y="872"/>
			<point x="679" y="888"/>
			<point x="560" y="888" type="curve" smooth="yes"/>
			<point x="312" y="888"/>
			<point x="67" y="698"/>
			<point x="67" y="505" type="curve" smooth="yes"/>
			<point x="67" y="373"/>
			<point x="180" y="270"/>
			<point x="307" y="270" type="curve" smooth="yes"/>
			<point x="428" y="270"/>
			<point x="563" y="361"/>
			<point x="563" y="472" type="curve" smooth="yes"/>
			<point x="563" y="520"/>
			<point x="525" y="558"/>
			<point x="481" y="558" type="curve" smooth="yes"/>
			<point x="434" y="558"/>
			<point x="415" y="520"/>
			<point x="415" y="489" type="curve" smooth="yes"/>
			<point x="415" y="483"/>
			<point x="415" y="478"/>
			<point x="416" y="472" type="curve"/>
			<point x="424" y="493"/>
			<point x="443" y="504"/>
			<point x="462" y="504" type="curve" smooth="yes"/>
			<point x="497" y="504"/>
			<point x="519" y="473"/>
			<point x="519" y="433" type="curve" smooth="yes"/>
			<point x="519" y="339"/>
			<point x="421" y="285"/>
			<point x="333" y="285" type="curve" smooth="yes"/>
			<point x="221" y="285"/>
			<point x="126" y="370"/>
			<point x="126" y="529" type="curve" smooth="yes"/>
			<point x="126" y="727"/>
			<point x="268" y="845"/>
			<point x="507" y="845" type="curve" smooth="yes"/>
			<point x="582" y="845"/>
			<point x="746" y="825"/>
			<point x="842" y="799" type="curve"/>
			<point x="854" y="798"/>
			<point x="858" y="793"/>
			<point x="849" y="788" type="curve" smooth="yes"/>
			<point x="772" y="748"/>
			<point x="722" y="626"/>
			<point x="702" y="536" type="curve" smooth="yes"/>
			<point x="653" y="312" type="line" smooth="yes"/>
			<point x="594" y="42"/>
			<point x="464" y="-95"/>
			<point x="271" y="-95" type="curve" smooth="yes"/>
			<point x="156" y="-95"/>
			<point x="111" y="-21"/>
			<point x="111" y="41" type="curve" smooth="yes"/>
			<point x="111" y="99"/>
			<point x="149" y="145"/>
			<point x="201" y="145" type="curve" smooth="yes"/>
			<point x="224" y="145"/>
			<point x="246" y="132"/>
			<point x="252" y="107" type="curve"/>
			<point x="256" y="116"/>
			<point x="257" y="126"/>
			<point x="257" y="136" type="curve" smooth="yes"/>
			<point x="257" y="171"/>
			<point x="237" y="211"/>
			<point x="182" y="211" type="curve" smooth="yes"/>
			<point x="119" y="211"/>
			<point x="62" y="157"/>
			<point x="62" y="88" type="curve" smooth="yes"/>
			<point x="62" y="-31"/>
			<point x="155" y="-104"/>
		</contour>
		<contour>
			<point x="842" y="769" type="curve"/>
			<point x="846" y="769" type="line"/>
			<point x="804" y="722"/>
			<point x="778" y="644"/>
			<point x="754" y="540" type="curve" smooth="yes"/>
			<point x="701" y="306" type="line" smooth="yes"/>
			<point x="657" y="113"/>
			<point x="545" y="-70"/>
			<point x="331" y="-98" type="curve"/>
			<point x="328" y="-97" type="line"/>
			<point x="549" y="-62"/>
			<point x="645" y="116"/>
			<point x="688" y="307" type="curve" smooth="yes"/>
			<point x="741" y="542" type="line" smooth="yes"/>
			<point x="765" y="647"/>
			<point x="798" y="725"/>
		</contour>
		<contour>
			<point x="319" y="280" type="curve"/>
			<point x="319" y="278" type="line"/>
			<point x="194" y="278"/>
			<point x="89" y="360"/>
			<point x="89" y="517" type="curve" smooth="yes"/>
			<point x="89" y="601"/>
			<point x="137" y="691"/>
			<point x="207" y="752" type="curve"/>
			<point x="209" y="752" type="line"/>
			<point x="144" y="693"/>
			<point x="101" y="601"/>
			<point x="101" y="521" type="curve" smooth="yes"/>
			<point x="101" y="364"/>
			<point x="201" y="280"/>
		</contour>
		<contour>
			<point x="229" y="166" type="curve"/>
			<point x="227" y="164" type="line"/>
			<point x="218" y="173"/>
			<point x="208" y="177"/>
			<point x="197" y="177" type="curve" smooth="yes"/>
			<point x="127" y="177"/>
			<point x="89" y="107"/>
			<point x="89" y="53" type="curve" smooth="yes"/>
			<point x="89" y="31"/>
			<point x="94" y="11"/>
			<point x="102" y="-6" type="curve"/>
			<point x="100" y="-6" type="line"/>
			<point x="89" y="14"/>
			<point x="82" y="41"/>
			<point x="82" y="68" type="curve" smooth="yes"/>
			<point x="82" y="120"/>
			<point x="116" y="181"/>
			<point x="190" y="181" type="curve" smooth="yes"/>
			<point x="205" y="181"/>
			<point x="220" y="175"/>
		</contour>
		<contour>
			<point x="433" y="517" type="curve"/>
			<point x="431" y="517" type="line"/>
			<point x="439" y="528"/>
			<point x="451" y="537"/>
			<point x="472" y="537" type="curve" smooth="yes"/>
			<point x="512" y="537"/>
			<point x="541" y="501"/>
			<point x="541" y="452" type="curve" smooth="yes"/>
			<point x="541" y="418"/>
			<point x="527" y="382"/>
			<point x="499" y="353" type="curve"/>
			<point x="497" y="355" type="line"/>
			<point x="527" y="385"/>
			<point x="537" y="419"/>
			<point x="537" y="451" type="curve" smooth="yes"/>
			<point x="537" y="500"/>
			<point x="499" y="529"/>
			<point x="460" y="529" type="curve" smooth="yes"/>
			<point x="449" y="529"/>
			<point x="438" y="525"/>
		</contour>
		<contour>
			<point x="887" y="828" type="curve"/>
			<point x="878" y="821" type="line"/>
			<point x="776" y="846"/>
			<point x="664" y="864"/>
			<point x="550" y="864" type="curve" smooth="yes"/>
			<point x="460" y="864"/>
			<point x="362" y="850"/>
			<point x="305" y="816" type="curve"/>
			<point x="305" y="818" type="line"/>
			<point x="362" y="847"/>
			<point x="442" y="871"/>
			<point x="555" y="871" type="curve" smooth="yes"/>
			<point x="667" y="871"/>
			<point x="783" y="853"/>
		</contour>
	</outline>
</glyph>
<glyph name="J" format="2">
	<advance width="792"/>
	<unicode hex="004A"/>
	<outline>
		<contour>
			<point x="262" y="-250" type="curve" smooth="yes"/>
			<point x="480" y="-250"/>
			<point x="643" y="-103"/>
			<point x="702" y="154" type="curve" smooth="yes"/>
			<point x="799" y="575" type="line" smooth="yes"/>
			<point x="840" y="753"/>
			<point x="877" y="840"/>
			<point x="962" y="837" type="curve"/>
			<point x="962" y="841" type="line"/>
			<point x="823" y="872"/>
			<point x="679" y="888"/>
			<point x="560" y="888" type="curve" smooth="yes"/>
			<point x="312" y="888"/>
			<point x="54" y="688"/>
			<point x="54" y="477" type="curve" smooth="yes"/>
			<point x="54" y="332"/>
			<point x="171" y="215"/>
			<point x="315" y="215" type="curve" smooth="yes"/>
			<point x="441" y="215"/>
			<point x="563" y="308"/>
			<point x="563" y="417" type="curve" smooth="yes"/>
			<point x="563" y="465"/>
			<point x="525" y="503"/>
			<point x="481" y="503" type="curve" smooth="yes"/>
			<point x="434" y="503"/>
			<point x="415" y="465"/>
			<point x="415" y="434" type="curve" smooth="yes"/>
			<point x="415" y="428"/>
			<point x="415" y="423"/>
			<point x="416" y="417" type="curve"/>
			<point x="424" y="438"/>
			<point x="443" y="449"/>
			<point x="462" y="449" type="curve" smooth="yes"/>
			<point x="497" y="449"/>
			<point x="519" y="418"/>
			<point x="519" y="378" type="curve" smooth="yes"/>
			<point x="519" y="282"/>
			<point x="422" y="227"/>
			<point x="334" y="227" type="curve" smooth="yes"/>
			<point x="203" y="227"/>
			<point x="114" y="332"/>
			<point x="114" y="485" type="curve" smooth="yes"/>
			<point x="114" y="707"/>
			<point x="265" y="845"/>
			<point x="507" y="845" type="curve" smooth="yes"/>
			<point x="582" y="845"/>
			<point x="746" y="825"/>
			<point x="842" y="799" type="curve"/>
			<point x="854" y="798"/>
			<point x="858" y="793"/>
			<point x="849" y="788" type="curve" smooth="yes"/>
			<point x="772" y="748"/>
			<point x="722" y="626"/>
			<point x="702" y="536" type="curve" smooth="yes"/>
			<point x="621" y="166" type="line" smooth="yes"/>
			<point x="562" y="-104"/>
			<point x="432" y="-241"/>
			<point x="239" y="-241" type="curve" smooth="yes"/>
			<point x="124" y="-241"/>
			<point x="79" y="-167"/>
			<point x="79" y="-105" type="curve" smooth="yes"/>
			<point x="79" y="-47"/>
			<point x="117" y="-1"/>
			<point x="169" y="-1" type="curve" smooth="yes"/>
			<point x="192" y="-1"/>
			<point x="214" y="-14"/>
			<point x="220" y="-39" type="curve"/>
			<point x="224" y="-30"/>
			<point x="225" y="-20"/>
			<point x="225" y="-10" type="curve" smooth="yes"/>
			<point x="225" y="25"/>
			<point x="205" y="65"/>
			<point x="150" y="65" type="curve" smooth="yes"/>
			<point x="87" y="65"/>
			<point x="30" y="11"/>
			<point x="30" y="-58" type="curve" smooth="yes"/>
			<point x="30" y="-177"/>
			<point x="123" y="-250"/>
		</contour>
		<contour>
			<point x="842" y="769" type="curve"/>
			<point x="846" y="769" type="line"/>
			<point x="804" y="722"/>
			<point x="778" y="644"/>
			<point x="754" y="540" type="curve" smooth="yes"/>
			<point x="668" y="161" type="line" smooth="yes"/>
			<point x="624" y="-32"/>
			<point x="512" y="-215"/>
			<point x="298" y="-243" type="curve"/>
			<point x="295" y="-242" type="line"/>
			<point x="516" y="-207"/>
			<point x="612" y="-29"/>
			<point x="655" y="162" type="curve" smooth="yes"/>
			<point x="741" y="542" type="line" smooth="yes"/>
			<point x="765" y="647"/>
			<point x="798" y="725"/>
		</contour>
		<contour>
			<point x="332" y="222" type="curve"/>
			<point x="332" y="220" type="line"/>
			<point x="198" y="220"/>
			<point x="78" y="310"/>
			<point x="78" y="480" type="curve" smooth="yes"/>
			<point x="78" y="577"/>
			<point x="131" y="679"/>
			<point x="209" y="750" type="curve"/>
			<point x="211" y="750" type="line"/>
			<point x="138" y="682"/>
			<point x="90" y="576"/>
			<point x="90" y="484" type="curve" smooth="yes"/>
			<point x="90" y="314"/>
			<point x="205" y="222"/>
		</contour>
		<contour>
			<point x="197" y="25" type="curve"/>
			<point x="195" y="23" type="line"/>
			<point x="186" y="32"/>
			<point x="176" y="36"/>
			<point x="165" y="36" type="curve" smooth="yes"/>
			<point x="95" y="36"/>
			<point x="57" y="-34"/>
			<point x="57" y="-88" type="curve" smooth="yes"/>
			<point x="57" y="-110"/>
			<point x="62" y="-130"/>
			<point x="70" y="-147" type="curve"/>
			<point x="68" y="-147" type="line"/>
			<point x="57" y="-127"/>
			<point x="50" y="-100"/>
			<point x="50" y="-73" type="curve" smooth="yes"/>
			<point x="50" y="-21"/>
			<point x="84" y="40"/>
			<point x="158" y="40" type="curve" smooth="yes"/>
			<point x="173" y="40"/>
			<point x="188" y="34"/>
		</contour>
		<contour>
			<point x="435" y="463" type="curve"/>
			<point x="433" y="463" type="line"/>
			<point x="441" y="474"/>
			<point x="453" y="483"/>
			<point x="474" y="483" type="curve" smooth="yes"/>
			<point x="514" y="483"/>
			<point x="543" y="447"/>
			<point x="543" y="398" type="curve" smooth="yes"/>
			<point x="543" y="362"/>
			<point x="529" y="324"/>
			<point x="500" y="294" type="curve"/>
			<point x="498" y="296" type="line"/>
			<point x="529" y="327"/>
			<point x="539" y="363"/>
			<point x="539" y="397" type="curve" smooth="yes"/>
			<point x="539" y="446"/>
			<point x="501" y="475"/>
			<point x="462" y="475" type="curve" smooth="yes"/>
			<point x="451" y="475"/>
			<point x="440" y="471"/>
		</contour>
		<contour>
			<point x="887" y="828" type="curve"/>
			<point x="878" y="821" type="line"/>
			<point x="776" y="846"/>
			<point x="664" y="864"/>
			<point x="550" y="864" type="curve" smooth="yes"/>
			<point x="460" y="864"/>
			<point x="362" y="846"/>
			<point x="304" y="812" type="curve"/>
			<point x="304" y="814" type="line"/>
			<point x="361" y="845"/>
			<point x="442" y="871"/>
			<point x="555" y="871" type="curve" smooth="yes"/>
			<point x="667" y="871"/>
			<point x="783" y="853"/>
		</contour>
	</outline>
</glyph>
<glyph name="L" format="2">
	<advance width="391"/>
	<unicode hex="004C"/>
	<anchor x="655" y="988" name="top"/>
	<outline>
		<contour>
			<point x="79" y="-42" type="curve"/>
			<point x="64" y="-53" type="line"/>
			<point x="254" y="-193"/>
			<point x="392" y="-479"/>
			<point x="711" y="-479" type="curve" smooth="yes"/>
			<point x="864" y="-479"/>
			<point x="1096" y="-362"/>
			<point x="1096" y="-203" type="curve" smooth="yes"/>
			<point x="1096" y="-145"/>
			<point x="1051" y="-100"/>
			<point x="998" y="-100" type="curve" smooth="yes"/>
			<point x="942" y="-100"/>
			<point x="919" y="-145"/>
			<point x="919" y="-182" type="curve" smooth="yes"/>
			<point x="919" y="-189"/>
			<point x="919" y="-196"/>
			<point x="921" y="-203" type="curve"/>
			<point x="930" y="-178"/>
			<point x="953" y="-165"/>
			<point x="976" y="-165" type="curve" smooth="yes"/>
			<point x="1017" y="-165"/>
			<point x="1043" y="-202"/>
			<point x="1043" y="-249" type="curve" smooth="yes"/>
			<point x="1043" y="-368"/>
			<point x="913" y="-436"/>
			<point x="799" y="-436" type="curve" smooth="yes"/>
			<point x="534" y="-436"/>
			<point x="314" y="-173"/>
		</contour>
		<contour>
			<point x="56" y="-48" type="curve"/>
			<point x="70" y="-37" type="line"/>
			<point x="-5" y="3"/>
			<point x="-81" y="30"/>
			<point x="-161" y="30" type="curve" smooth="yes"/>
			<point x="-230" y="30"/>
			<point x="-269" y="8"/>
			<point x="-269" y="-31" type="curve" smooth="yes"/>
			<point x="-269" y="-68"/>
			<point x="-199" y="-104"/>
			<point x="-127" y="-104" type="curve" smooth="yes"/>
			<point x="145" y="-104"/>
			<point x="256" y="125"/>
			<point x="325" y="419" type="curve" smooth="yes"/>
			<point x="369" y="606" type="line" smooth="yes"/>
			<point x="420" y="823"/>
			<point x="516" y="934"/>
			<point x="655" y="934" type="curve" smooth="yes"/>
			<point x="734" y="934"/>
			<point x="793" y="890"/>
			<point x="793" y="831" type="curve" smooth="yes"/>
			<point x="793" y="786"/>
			<point x="766" y="750"/>
			<point x="734" y="750" type="curve" smooth="yes"/>
			<point x="718" y="750"/>
			<point x="707" y="760"/>
			<point x="705" y="775" type="curve"/>
			<point x="701" y="768"/>
			<point x="699" y="757"/>
			<point x="699" y="748" type="curve" smooth="yes"/>
			<point x="699" y="719"/>
			<point x="720" y="699"/>
			<point x="751" y="699" type="curve" smooth="yes"/>
			<point x="800" y="699"/>
			<point x="843" y="747"/>
			<point x="843" y="802" type="curve" smooth="yes"/>
			<point x="843" y="877"/>
			<point x="752" y="941"/>
			<point x="645" y="941" type="curve" smooth="yes"/>
			<point x="477" y="941"/>
			<point x="319" y="777"/>
			<point x="271" y="567" type="curve" smooth="yes"/>
			<point x="234" y="404" type="line" smooth="yes"/>
			<point x="197" y="240"/>
			<point x="160" y="79"/>
			<point x="91" y="-8" type="curve" smooth="yes"/>
			<point x="37" y="-77"/>
			<point x="-42" y="-96"/>
			<point x="-116" y="-96" type="curve" smooth="yes"/>
			<point x="-195" y="-96"/>
			<point x="-229" y="-71"/>
			<point x="-229" y="-38" type="curve" smooth="yes"/>
			<point x="-229" y="-3"/>
			<point x="-194" y="22"/>
			<point x="-146" y="22" type="curve" smooth="yes"/>
			<point x="-69" y="22"/>
			<point x="-4" y="-6"/>
		</contour>
		<contour>
			<point x="713" y="740" type="curve"/>
			<point x="714" y="741" type="line"/>
			<point x="721" y="734"/>
			<point x="731" y="731"/>
			<point x="739" y="731" type="curve" smooth="yes"/>
			<point x="783" y="731"/>
			<point x="812" y="770"/>
			<point x="812" y="810" type="curve" smooth="yes"/>
			<point x="812" y="857"/>
			<point x="786" y="889"/>
			<point x="756" y="909" type="curve"/>
			<point x="758" y="910" type="line"/>
			<point x="793" y="890"/>
			<point x="821" y="856"/>
			<point x="821" y="807" type="curve" smooth="yes"/>
			<point x="821" y="766"/>
			<point x="792" y="726"/>
			<point x="746" y="726" type="curve" smooth="yes"/>
			<point x="735" y="726"/>
			<point x="722" y="731"/>
		</contour>
		<contour>
			<point x="24" y="-71" type="curve"/>
			<point x="24" y="-69" type="line"/>
			<point x="139" y="-24"/>
			<point x="223" y="187"/>
			<point x="271" y="400" type="curve" smooth="yes"/>
			<point x="311" y="576" type="line" smooth="yes"/>
			<point x="351" y="752"/>
			<point x="442" y="867"/>
			<point x="521" y="903" type="curve"/>
			<point x="521" y="901" type="line"/>
			<point x="449" y="865"/>
			<point x="364" y="747"/>
			<point x="325" y="576" type="curve" smooth="yes"/>
			<point x="285" y="400" type="line" smooth="yes"/>
			<point x="235" y="181"/>
			<point x="150" y="-24"/>
		</contour>
		<contour>
			<point x="852" y="-443" type="curve"/>
			<point x="852" y="-445" type="line"/>
			<point x="819" y="-454"/>
			<point x="787" y="-458"/>
			<point x="756" y="-458" type="curve" smooth="yes"/>
			<point x="636" y="-458"/>
			<point x="516" y="-407"/>
			<point x="403" y="-324" type="curve" smooth="yes"/>
			<point x="289" y="-240"/>
			<point x="198" y="-135"/>
			<point x="73" y="-50" type="curve"/>
			<point x="74" y="-50"/>
			<point x="75" y="-49"/>
			<point x="76" y="-48" type="curve"/>
			<point x="200" y="-132"/>
			<point x="301" y="-232"/>
			<point x="412" y="-315" type="curve" smooth="yes"/>
			<point x="525" y="-399"/>
			<point x="639" y="-455"/>
			<point x="761" y="-455" type="curve" smooth="yes"/>
			<point x="791" y="-455"/>
			<point x="821" y="-451"/>
		</contour>
		<contour>
			<point x="945" y="-148" type="curve"/>
			<point x="943" y="-148" type="line"/>
			<point x="952" y="-134"/>
			<point x="971" y="-127"/>
			<point x="990" y="-127" type="curve" smooth="yes"/>
			<point x="1038" y="-127"/>
			<point x="1072" y="-170"/>
			<point x="1072" y="-227" type="curve" smooth="yes"/>
			<point x="1072" y="-267"/>
			<point x="1055" y="-310"/>
			<point x="1022" y="-345" type="curve"/>
			<point x="1020" y="-343" type="line"/>
			<point x="1055" y="-307"/>
			<point x="1067" y="-266"/>
			<point x="1067" y="-228" type="curve" smooth="yes"/>
			<point x="1067" y="-170"/>
			<point x="1024" y="-134"/>
			<point x="978" y="-134" type="curve" smooth="yes"/>
			<point x="965" y="-134"/>
			<point x="951" y="-138"/>
		</contour>
	</outline>
</glyph>
<glyph name="M" format="2">
	<advance width="1415"/>
	<unicode hex="004D"/>
	<outline>
		<contour>
			<point x="849" y="841" type="curve"/>
			<point x="840" y="847" type="line"/>
			<point x="795" y="546"/>
			<point x="715" y="316"/>
			<point x="611" y="176" type="curve" smooth="yes"/>
			<point x="495" y="19"/>
			<point x="350" y="-21"/>
			<point x="247" y="-21" type="curve" smooth="yes"/>
			<point x="98" y="-21"/>
			<point x="0" y="80"/>
			<point x="0" y="227" type="curve" smooth="yes"/>
			<point x="0" y="373"/>
			<point x="100" y="516"/>
			<point x="267" y="516" type="curve" smooth="yes"/>
			<point x="353" y="516"/>
			<point x="437" y="470"/>
			<point x="437" y="388" type="curve" smooth="yes"/>
			<point x="437" y="337"/>
			<point x="406" y="288"/>
			<point x="363" y="288" type="curve" smooth="yes"/>
			<point x="345" y="288"/>
			<point x="328" y="299"/>
			<point x="326" y="319" type="curve"/>
			<point x="320" y="309"/>
			<point x="318" y="296"/>
			<point x="318" y="285" type="curve" smooth="yes"/>
			<point x="318" y="257"/>
			<point x="339" y="231"/>
			<point x="383" y="231" type="curve" smooth="yes"/>
			<point x="440" y="231"/>
			<point x="486" y="288"/>
			<point x="486" y="351" type="curve" smooth="yes"/>
			<point x="486" y="449"/>
			<point x="383" y="521"/>
			<point x="260" y="521" type="curve" smooth="yes"/>
			<point x="69" y="521"/>
			<point x="-58" y="377"/>
			<point x="-58" y="238" type="curve" smooth="yes"/>
			<point x="-58" y="109"/>
			<point x="48" y="-31"/>
			<point x="265" y="-31" type="curve" smooth="yes"/>
			<point x="384" y="-31"/>
			<point x="524" y="4"/>
			<point x="640" y="161" type="curve" smooth="yes"/>
			<point x="738" y="295"/>
			<point x="804" y="537"/>
		</contour>
		<contour>
			<point x="1510" y="829" type="curve"/>
			<point x="1516" y="823" type="line"/>
			<point x="1317" y="616"/>
			<point x="1217" y="333"/>
			<point x="1217" y="66" type="curve" smooth="yes"/>
			<point x="1217" y="-242"/>
			<point x="1345" y="-428"/>
			<point x="1558" y="-428" type="curve" smooth="yes"/>
			<point x="1687" y="-428"/>
			<point x="1783" y="-318"/>
			<point x="1783" y="-235" type="curve" smooth="yes"/>
			<point x="1783" y="-178"/>
			<point x="1743" y="-143"/>
			<point x="1697" y="-143" type="curve" smooth="yes"/>
			<point x="1654" y="-143"/>
			<point x="1625" y="-175"/>
			<point x="1625" y="-213" type="curve" smooth="yes"/>
			<point x="1625" y="-219"/>
			<point x="1625" y="-225"/>
			<point x="1626" y="-231" type="curve"/>
			<point x="1634" y="-210"/>
			<point x="1654" y="-198"/>
			<point x="1673" y="-198" type="curve" smooth="yes"/>
			<point x="1702" y="-198"/>
			<point x="1738" y="-221"/>
			<point x="1738" y="-276" type="curve" smooth="yes"/>
			<point x="1738" y="-343"/>
			<point x="1678" y="-419"/>
			<point x="1573" y="-419" type="curve" smooth="yes"/>
			<point x="1407" y="-419"/>
			<point x="1306" y="-235"/>
			<point x="1306" y="67" type="curve" smooth="yes"/>
			<point x="1306" y="481"/>
			<point x="1464" y="891"/>
			<point x="1708" y="891" type="curve" smooth="yes"/>
			<point x="1770" y="891"/>
			<point x="1829" y="859"/>
			<point x="1829" y="798" type="curve" smooth="yes"/>
			<point x="1829" y="761"/>
			<point x="1808" y="726"/>
			<point x="1777" y="726" type="curve" smooth="yes"/>
			<point x="1764" y="726"/>
			<point x="1753" y="734"/>
			<point x="1751" y="748" type="curve"/>
			<point x="1748" y="741"/>
			<point x="1746" y="731"/>
			<point x="1746" y="724" type="curve" smooth="yes"/>
			<point x="1746" y="702"/>
			<point x="1761" y="681"/>
			<point x="1792" y="681" type="curve" smooth="yes"/>
			<point x="1836" y="681"/>
			<point x="1874" y="724"/>
			<point x="1874" y="772" type="curve" smooth="yes"/>
			<point x="1874" y="839"/>
			<point x="1802" y="895"/>
			<point x="1717" y="895" type="curve" smooth="yes"/>
			<point x="1443" y="895"/>
			<point x="1144" y="530"/>
			<point x="1007" y="334" type="curve"/>
			<point x="1008" y="327" type="line"/>
			<point x="1152" y="534"/>
			<point x="1329" y="722"/>
		</contour>
		<contour>
			<point x="832" y="843" type="curve"/>
			<point x="895" y="727"/>
			<point x="967" y="427"/>
			<point x="967" y="196" type="curve" smooth="yes"/>
			<point x="967" y="104"/>
			<point x="944" y="38"/>
			<point x="912" y="38" type="curve" smooth="yes"/>
			<point x="891" y="38"/>
			<point x="880" y="50"/>
			<point x="880" y="73" type="curve" smooth="yes"/>
			<point x="880" y="115"/>
			<point x="917" y="191"/>
			<point x="975" y="278" type="curve"/>
			<point x="975" y="284" type="line"/>
			<point x="906" y="184"/>
			<point x="860" y="102"/>
			<point x="860" y="52" type="curve" smooth="yes"/>
			<point x="860" y="25"/>
			<point x="869" y="12"/>
			<point x="889" y="12" type="curve" smooth="yes"/>
			<point x="957" y="12"/>
			<point x="1027" y="188"/>
			<point x="1027" y="361" type="curve" smooth="yes"/>
			<point x="1027" y="505"/>
			<point x="979" y="758"/>
			<point x="910" y="867" type="curve"/>
			<point x="899" y="884"/>
			<point x="738" y="908"/>
			<point x="655" y="908" type="curve" smooth="yes"/>
			<point x="455" y="908"/>
			<point x="319" y="795"/>
			<point x="319" y="702" type="curve" smooth="yes"/>
			<point x="319" y="656"/>
			<point x="356" y="611"/>
			<point x="398" y="611" type="curve" smooth="yes"/>
			<point x="461" y="611"/>
			<point x="480" y="657"/>
			<point x="478" y="705" type="curve"/>
			<point x="468" y="686"/>
			<point x="451" y="678"/>
			<point x="436" y="678" type="curve" smooth="yes"/>
			<point x="405" y="678"/>
			<point x="372" y="703"/>
			<point x="372" y="750" type="curve" smooth="yes"/>
			<point x="372" y="816"/>
			<point x="448" y="877"/>
			<point x="548" y="877" type="curve" smooth="yes"/>
			<point x="615" y="877"/>
			<point x="783" y="859"/>
		</contour>
		<contour>
			<point x="562" y="888" type="curve"/>
			<point x="562" y="890" type="line"/>
			<point x="757" y="901"/>
			<point x="854" y="862"/>
			<point x="878" y="856" type="curve" smooth="yes"/>
			<point x="900" y="850"/>
			<point x="999" y="558"/>
			<point x="999" y="307" type="curve" smooth="yes"/>
			<point x="999" y="237"/>
			<point x="989" y="141"/>
			<point x="958" y="80" type="curve"/>
			<point x="956" y="80" type="line"/>
			<point x="985" y="129"/>
			<point x="991" y="239"/>
			<point x="991" y="301" type="curve" smooth="yes"/>
			<point x="991" y="551"/>
			<point x="888" y="845"/>
			<point x="866" y="851" type="curve" smooth="yes"/>
			<point x="842" y="858"/>
			<point x="722" y="900"/>
		</contour>
		<contour>
			<point x="337" y="273" type="curve"/>
			<point x="339" y="273" type="line"/>
			<point x="345" y="264"/>
			<point x="356" y="260"/>
			<point x="368" y="260" type="curve" smooth="yes"/>
			<point x="414" y="260"/>
			<point x="458" y="309"/>
			<point x="458" y="368" type="curve" smooth="yes"/>
			<point x="458" y="400"/>
			<point x="449" y="431"/>
			<point x="418" y="460" type="curve"/>
			<point x="420" y="462" type="line"/>
			<point x="450" y="433"/>
			<point x="463" y="401"/>
			<point x="463" y="367" type="curve" smooth="yes"/>
			<point x="463" y="309"/>
			<point x="430" y="254"/>
			<point x="382" y="254" type="curve" smooth="yes"/>
			<point x="364" y="254"/>
			<point x="346" y="260"/>
		</contour>
		<contour>
			<point x="136" y="-4" type="curve"/>
			<point x="133" y="-4" type="line"/>
			<point x="20" y="40"/>
			<point x="-35" y="131"/>
			<point x="-35" y="235" type="curve" smooth="yes"/>
			<point x="-35" y="348"/>
			<point x="33" y="457"/>
			<point x="169" y="505" type="curve"/>
			<point x="169" y="503" type="line"/>
			<point x="40" y="455"/>
			<point x="-23" y="345"/>
			<point x="-23" y="235" type="curve" smooth="yes"/>
			<point x="-23" y="132"/>
			<point x="28" y="40"/>
		</contour>
		<contour>
			<point x="389" y="814" type="curve"/>
			<point x="390" y="813" type="line"/>
			<point x="364" y="787"/>
			<point x="350" y="757"/>
			<point x="350" y="728" type="curve" smooth="yes"/>
			<point x="350" y="684"/>
			<point x="379" y="648"/>
			<point x="415" y="648" type="curve" smooth="yes"/>
			<point x="431" y="648"/>
			<point x="446" y="654"/>
			<point x="457" y="664" type="curve"/>
			<point x="458" y="662" type="line"/>
			<point x="445" y="648"/>
			<point x="426" y="640"/>
			<point x="407" y="640" type="curve" smooth="yes"/>
			<point x="369" y="640"/>
			<point x="341" y="671"/>
			<point x="341" y="713" type="curve" smooth="yes"/>
			<point x="341" y="745"/>
			<point x="360" y="785"/>
		</contour>
		<contour>
			<point x="1755" y="724" type="curve"/>
			<point x="1756" y="724" type="line"/>
			<point x="1762" y="712"/>
			<point x="1771" y="705"/>
			<point x="1791" y="705" type="curve" smooth="yes"/>
			<point x="1823" y="705"/>
			<point x="1849" y="749"/>
			<point x="1849" y="784" type="curve" smooth="yes"/>
			<point x="1849" y="818"/>
			<point x="1831" y="847"/>
			<point x="1801" y="866" type="curve"/>
			<point x="1802" y="868" type="line"/>
			<point x="1836" y="846"/>
			<point x="1856" y="813"/>
			<point x="1856" y="777" type="curve" smooth="yes"/>
			<point x="1856" y="736"/>
			<point x="1826" y="699"/>
			<point x="1793" y="699" type="curve" smooth="yes"/>
			<point x="1771" y="699"/>
			<point x="1760" y="713"/>
		</contour>
		<contour>
			<point x="1644" y="-186" type="curve"/>
			<point x="1642" y="-186" type="line"/>
			<point x="1650" y="-173"/>
			<point x="1670" y="-164"/>
			<point x="1687" y="-164" type="curve" smooth="yes"/>
			<point x="1731" y="-164"/>
			<point x="1762" y="-201"/>
			<point x="1762" y="-251" type="curve" smooth="yes"/>
			<point x="1762" y="-288"/>
			<point x="1746" y="-327"/>
			<point x="1716" y="-359" type="curve"/>
			<point x="1714" y="-358" type="line"/>
			<point x="1746" y="-325"/>
			<point x="1757" y="-287"/>
			<point x="1757" y="-252" type="curve" smooth="yes"/>
			<point x="1757" y="-201"/>
			<point x="1718" y="-170"/>
			<point x="1676" y="-170" type="curve" smooth="yes"/>
			<point x="1664" y="-170"/>
			<point x="1649" y="-177"/>
		</contour>
		<contour>
			<point x="1528" y="-420" type="curve"/>
			<point x="1528" y="-422" type="line"/>
			<point x="1358" y="-389"/>
			<point x="1255" y="-236"/>
			<point x="1255" y="67" type="curve" smooth="yes"/>
			<point x="1255" y="389"/>
			<point x="1383" y="671"/>
			<point x="1508" y="802" type="curve"/>
			<point x="1510" y="800" type="line"/>
			<point x="1390" y="671"/>
			<point x="1267" y="389"/>
			<point x="1267" y="67" type="curve" smooth="yes"/>
			<point x="1267" y="-236"/>
			<point x="1366" y="-387"/>
		</contour>
	</outline>
</glyph>
<glyph name="N" format="2">
	<advance width="1233"/>
	<unicode hex="004E"/>
	<anchor x="1123" y="951" name="top"/>
	<outline>
		<contour>
			<point x="2005" y="-325" type="curve" smooth="yes"/>
			<point x="2005" y="-280"/>
			<point x="1978" y="-243"/>
			<point x="1930" y="-243" type="curve" smooth="yes"/>
			<point x="1881" y="-243"/>
			<point x="1856" y="-285"/>
			<point x="1857" y="-329" type="curve"/>
			<point x="1866" y="-313"/>
			<point x="1881" y="-304"/>
			<point x="1899" y="-304" type="curve" smooth="yes"/>
			<point x="1927" y="-304"/>
			<point x="1948" y="-326"/>
			<point x="1948" y="-365" type="curve" smooth="yes"/>
			<point x="1948" y="-454"/>
			<point x="1849" y="-514"/>
			<point x="1701" y="-514" type="curve" smooth="yes"/>
			<point x="1389" y="-514"/>
			<point x="1166" y="-250"/>
			<point x="1017" y="296" type="curve" smooth="yes"/>
			<point x="862" y="866" type="line"/>
			<point x="858" y="893"/>
			<point x="568" y="901"/>
			<point x="553" y="901" type="curve" smooth="yes"/>
			<point x="295" y="901"/>
			<point x="48" y="732"/>
			<point x="48" y="534" type="curve" smooth="yes"/>
			<point x="48" y="391"/>
			<point x="179" y="288"/>
			<point x="328" y="288" type="curve" smooth="yes"/>
			<point x="480" y="288"/>
			<point x="618" y="394"/>
			<point x="618" y="512" type="curve" smooth="yes"/>
			<point x="618" y="565"/>
			<point x="576" y="607"/>
			<point x="527" y="607" type="curve" smooth="yes"/>
			<point x="475" y="607"/>
			<point x="454" y="565"/>
			<point x="454" y="532" type="curve" smooth="yes"/>
			<point x="454" y="525"/>
			<point x="454" y="518"/>
			<point x="456" y="512" type="curve"/>
			<point x="464" y="535"/>
			<point x="485" y="547"/>
			<point x="507" y="547" type="curve" smooth="yes"/>
			<point x="545" y="547"/>
			<point x="569" y="513"/>
			<point x="569" y="470" type="curve" smooth="yes"/>
			<point x="569" y="376"/>
			<point x="474" y="300"/>
			<point x="357" y="300" type="curve" smooth="yes"/>
			<point x="225" y="300"/>
			<point x="113" y="389"/>
			<point x="113" y="554" type="curve" smooth="yes"/>
			<point x="113" y="724"/>
			<point x="214" y="861"/>
			<point x="492" y="861" type="curve" smooth="yes"/>
			<point x="520" y="861"/>
			<point x="550" y="860"/>
			<point x="779" y="838" type="curve"/>
			<point x="782" y="827" type="line"/>
			<point x="684" y="420" type="line" smooth="yes"/>
			<point x="609" y="108"/>
			<point x="451" y="-29"/>
			<point x="249" y="-29" type="curve" smooth="yes"/>
			<point x="176" y="-29"/>
			<point x="155" y="15"/>
			<point x="155" y="52" type="curve" smooth="yes"/>
			<point x="155" y="93"/>
			<point x="183" y="132"/>
			<point x="227" y="132" type="curve" smooth="yes"/>
			<point x="240" y="132"/>
			<point x="259" y="126"/>
			<point x="262" y="107" type="curve"/>
			<point x="270" y="151"/>
			<point x="252" y="193"/>
			<point x="192" y="193" type="curve" smooth="yes"/>
			<point x="144" y="193"/>
			<point x="102" y="149"/>
			<point x="102" y="98" type="curve" smooth="yes"/>
			<point x="102" y="23"/>
			<point x="188" y="-44"/>
			<point x="282" y="-44" type="curve" smooth="yes"/>
			<point x="471" y="-44"/>
			<point x="613" y="90"/>
			<point x="693" y="419" type="curve" smooth="yes"/>
			<point x="787" y="805" type="line"/>
			<point x="930" y="268" type="line" smooth="yes"/>
			<point x="1073" y="-267"/>
			<point x="1317" y="-523"/>
			<point x="1683" y="-523" type="curve" smooth="yes"/>
			<point x="1869" y="-523"/>
			<point x="2005" y="-439"/>
		</contour>
		<contour>
			<point x="1178" y="379" type="curve" smooth="yes"/>
			<point x="1088" y="-8" type="line"/>
			<point x="1094" y="-20" type="line"/>
			<point x="1187" y="376" type="line" smooth="yes"/>
			<point x="1272" y="739"/>
			<point x="1445" y="952"/>
			<point x="1640" y="952" type="curve" smooth="yes"/>
			<point x="1735" y="952"/>
			<point x="1755" y="903"/>
			<point x="1755" y="862" type="curve" smooth="yes"/>
			<point x="1755" y="821"/>
			<point x="1719" y="776"/>
			<point x="1675" y="776" type="curve" smooth="yes"/>
			<point x="1662" y="776"/>
			<point x="1643" y="782"/>
			<point x="1640" y="801" type="curve"/>
			<point x="1632" y="757"/>
			<point x="1650" y="715"/>
			<point x="1710" y="715" type="curve" smooth="yes"/>
			<point x="1767" y="715"/>
			<point x="1801" y="773"/>
			<point x="1801" y="824" type="curve" smooth="yes"/>
			<point x="1801" y="891"/>
			<point x="1744" y="962"/>
			<point x="1627" y="962" type="curve" smooth="yes"/>
			<point x="1334" y="962"/>
			<point x="1230" y="603"/>
		</contour>
		<contour>
			<point x="1498" y="-486" type="curve"/>
			<point x="1498" y="-488" type="line"/>
			<point x="1184" y="-365"/>
			<point x="1050" y="-26"/>
			<point x="967" y="283" type="curve" smooth="yes"/>
			<point x="814" y="851" type="line"/>
			<point x="802" y="872"/>
			<point x="528" y="880"/>
			<point x="513" y="880" type="curve" smooth="yes"/>
			<point x="422" y="880"/>
			<point x="335" y="857"/>
			<point x="264" y="821" type="curve"/>
			<point x="264" y="823" type="line"/>
			<point x="335" y="859"/>
			<point x="432" y="886"/>
			<point x="523" y="886" type="curve" smooth="yes"/>
			<point x="538" y="886"/>
			<point x="816" y="875"/>
			<point x="826" y="855" type="curve"/>
			<point x="980" y="284" type="line" smooth="yes"/>
			<point x="1064" y="-26"/>
			<point x="1197" y="-367"/>
		</contour>
		<contour>
			<point x="303" y="298" type="curve"/>
			<point x="303" y="296" type="line"/>
			<point x="176" y="315"/>
			<point x="75" y="401"/>
			<point x="75" y="547" type="curve" smooth="yes"/>
			<point x="75" y="633"/>
			<point x="114" y="703"/>
			<point x="180" y="765" type="curve"/>
			<point x="179" y="762" type="line"/>
			<point x="118" y="702"/>
			<point x="87" y="633"/>
			<point x="87" y="551" type="curve" smooth="yes"/>
			<point x="87" y="405"/>
			<point x="183" y="317"/>
		</contour>
		<contour>
			<point x="475" y="562" type="curve"/>
			<point x="473" y="562" type="line"/>
			<point x="482" y="576"/>
			<point x="501" y="583"/>
			<point x="520" y="583" type="curve" smooth="yes"/>
			<point x="564" y="583"/>
			<point x="594" y="545"/>
			<point x="594" y="493" type="curve" smooth="yes"/>
			<point x="594" y="452"/>
			<point x="575" y="409"/>
			<point x="540" y="373" type="curve"/>
			<point x="538" y="375" type="line"/>
			<point x="575" y="412"/>
			<point x="589" y="453"/>
			<point x="589" y="492" type="curve" smooth="yes"/>
			<point x="589" y="545"/>
			<point x="550" y="576"/>
			<point x="508" y="576" type="curve" smooth="yes"/>
			<point x="495" y="576"/>
			<point x="481" y="572"/>
		</contour>
		<contour>
			<point x="160" y="6" type="curve"/>
			<point x="158" y="5" type="line"/>
			<point x="135" y="26"/>
			<point x="124" y="55"/>
			<point x="124" y="83" type="curve" smooth="yes"/>
			<point x="124" y="126"/>
			<point x="154" y="170"/>
			<point x="200" y="170" type="curve" smooth="yes"/>
			<point x="214" y="170"/>
			<point x="228" y="166"/>
			<point x="241" y="156" type="curve"/>
			<point x="241" y="154" type="line"/>
			<point x="230" y="162"/>
			<point x="219" y="165"/>
			<point x="208" y="165" type="curve" smooth="yes"/>
			<point x="164" y="165"/>
			<point x="132" y="118"/>
			<point x="132" y="77" type="curve" smooth="yes"/>
			<point x="132" y="47"/>
			<point x="144" y="19"/>
		</contour>
		<contour>
			<point x="1921" y="-451" type="curve"/>
			<point x="1919" y="-449" type="line"/>
			<point x="1949" y="-429"/>
			<point x="1976" y="-384"/>
			<point x="1976" y="-343" type="curve" smooth="yes"/>
			<point x="1976" y="-310"/>
			<point x="1953" y="-275"/>
			<point x="1917" y="-275" type="curve" smooth="yes"/>
			<point x="1902" y="-275"/>
			<point x="1887" y="-282"/>
			<point x="1875" y="-296" type="curve"/>
			<point x="1874" y="-295" type="line"/>
			<point x="1886" y="-278"/>
			<point x="1906" y="-266"/>
			<point x="1926" y="-266" type="curve" smooth="yes"/>
			<point x="1962" y="-266"/>
			<point x="1983" y="-298"/>
			<point x="1983" y="-332" type="curve" smooth="yes"/>
			<point x="1983" y="-376"/>
			<point x="1952" y="-429"/>
		</contour>
		<contour>
			<point x="1652" y="764" type="curve"/>
			<point x="1654" y="766" type="line"/>
			<point x="1666" y="753"/>
			<point x="1680" y="748"/>
			<point x="1694" y="748" type="curve" smooth="yes"/>
			<point x="1743" y="748"/>
			<point x="1777" y="799"/>
			<point x="1777" y="845" type="curve" smooth="yes"/>
			<point x="1777" y="871"/>
			<point x="1767" y="903"/>
			<point x="1737" y="924" type="curve"/>
			<point x="1740" y="923" type="line"/>
			<point x="1770" y="902"/>
			<point x="1784" y="866"/>
			<point x="1784" y="838" type="curve" smooth="yes"/>
			<point x="1784" y="789"/>
			<point x="1753" y="742"/>
			<point x="1701" y="742" type="curve" smooth="yes"/>
			<point x="1683" y="742"/>
			<point x="1665" y="749"/>
		</contour>
	</outline>
</glyph>
<glyph name="O" format="2">
	<advance width="984"/>
	<unicode hex="004F"/>
	<anchor x="655" y="951" name="top"/>
	<outline>
		<contour>
			<point x="111" y="319" type="curve" smooth="yes"/>
			<point x="111" y="102"/>
			<point x="237" y="-45"/>
			<point x="450" y="-45" type="curve" smooth="yes"/>
			<point x="737" y="-45"/>
			<point x="984" y="248"/>
			<point x="984" y="525" type="curve" smooth="yes"/>
			<point x="984" y="746"/>
			<point x="848" y="896"/>
			<point x="646" y="896" type="curve" smooth="yes"/>
			<point x="371" y="896"/>
			<point x="111" y="616"/>
		</contour>
		<contour>
			<point x="636" y="890" type="curve" smooth="yes"/>
			<point x="795" y="890"/>
			<point x="903" y="746"/>
			<point x="903" y="536" type="curve" smooth="yes"/>
			<point x="903" y="244"/>
			<point x="680" y="-39"/>
			<point x="451" y="-39" type="curve" smooth="yes"/>
			<point x="296" y="-39"/>
			<point x="191" y="103"/>
			<point x="191" y="314" type="curve" smooth="yes"/>
			<point x="191" y="603"/>
			<point x="413" y="890"/>
		</contour>
		<contour>
			<point x="750" y="871" type="curve"/>
			<point x="750" y="873" type="line"/>
			<point x="874" y="820"/>
			<point x="949" y="691"/>
			<point x="949" y="531" type="curve" smooth="yes"/>
			<point x="949" y="303"/>
			<point x="798" y="71"/>
			<point x="590" y="-20" type="curve"/>
			<point x="590" y="-18" type="line"/>
			<point x="790" y="73"/>
			<point x="935" y="304"/>
			<point x="935" y="531" type="curve" smooth="yes"/>
			<point x="935" y="691"/>
			<point x="866" y="818"/>
		</contour>
		<contour>
			<point x="372" y="-37" type="curve"/>
			<point x="372" y="-39" type="line"/>
			<point x="230" y="-1"/>
			<point x="142" y="134"/>
			<point x="142" y="314" type="curve" smooth="yes"/>
			<point x="142" y="548"/>
			<point x="304" y="790"/>
			<point x="514" y="870" type="curve"/>
			<point x="514" y="868" type="line"/>
			<point x="312" y="790"/>
			<point x="156" y="547"/>
			<point x="156" y="314" type="curve" smooth="yes"/>
			<point x="156" y="134"/>
			<point x="238" y="1"/>
		</contour>
	</outline>
</glyph>
<glyph name="P" format="2">
	<advance width="1244"/>
	<unicode hex="0050"/>
	<outline>
		<contour>
			<point x="4" y="393" type="curve" smooth="yes"/>
			<point x="4" y="245"/>
			<point x="127" y="123"/>
			<point x="304" y="123" type="curve" smooth="yes"/>
			<point x="464" y="123"/>
			<point x="618" y="229"/>
			<point x="618" y="370" type="curve" smooth="yes"/>
			<point x="618" y="428"/>
			<point x="573" y="473"/>
			<point x="520" y="473" type="curve" smooth="yes"/>
			<point x="464" y="473"/>
			<point x="441" y="428"/>
			<point x="441" y="391" type="curve" smooth="yes"/>
			<point x="441" y="384"/>
			<point x="441" y="377"/>
			<point x="443" y="370" type="curve"/>
			<point x="452" y="395"/>
			<point x="475" y="408"/>
			<point x="498" y="408" type="curve" smooth="yes"/>
			<point x="539" y="408"/>
			<point x="565" y="371"/>
			<point x="565" y="324" type="curve" smooth="yes"/>
			<point x="565" y="200"/>
			<point x="433" y="128"/>
			<point x="315" y="128" type="curve" smooth="yes"/>
			<point x="153" y="128"/>
			<point x="73" y="281"/>
			<point x="73" y="422" type="curve" smooth="yes"/>
			<point x="73" y="719"/>
			<point x="285" y="890"/>
			<point x="648" y="890" type="curve" smooth="yes"/>
			<point x="771" y="890"/>
			<point x="815" y="885"/>
			<point x="790" y="789" type="curve" smooth="yes"/>
			<point x="610" y="86" type="line" smooth="yes"/>
			<point x="596" y="30"/>
			<point x="579" y="11"/>
			<point x="515" y="6" type="curve" smooth="yes"/>
			<point x="491" y="4" type="line"/>
			<point x="491" y="0" type="line"/>
			<point x="621" y="0" type="line"/>
			<point x="851" y="894" type="line"/>
			<point x="758" y="900"/>
			<point x="633" y="900"/>
			<point x="626" y="900" type="curve" smooth="yes"/>
			<point x="288" y="900"/>
			<point x="4" y="670"/>
		</contour>
		<contour>
			<point x="864" y="894" type="curve"/>
			<point x="635" y="0" type="line"/>
			<point x="785" y="0" type="line"/>
			<point x="786" y="4" type="line"/>
			<point x="748" y="7" type="line" smooth="yes"/>
			<point x="693" y="11"/>
			<point x="681" y="33"/>
			<point x="694" y="86" type="curve" smooth="yes"/>
			<point x="897" y="876" type="line"/>
			<point x="917" y="885"/>
			<point x="975" y="893"/>
			<point x="1026" y="893" type="curve" smooth="yes"/>
			<point x="1170" y="893"/>
			<point x="1253" y="805"/>
			<point x="1253" y="654" type="curve" smooth="yes"/>
			<point x="1253" y="473"/>
			<point x="1123" y="321"/>
			<point x="969" y="321" type="curve" smooth="yes"/>
			<point x="908" y="321"/>
			<point x="845" y="342"/>
			<point x="818" y="372" type="curve"/>
			<point x="810" y="362"/>
			<point x="821" y="344"/>
			<point x="846" y="333" type="curve" smooth="yes"/>
			<point x="870" y="323"/>
			<point x="913" y="316"/>
			<point x="957" y="316" type="curve" smooth="yes"/>
			<point x="1166" y="316"/>
			<point x="1335" y="460"/>
			<point x="1335" y="638" type="curve" smooth="yes"/>
			<point x="1335" y="796"/>
			<point x="1208" y="899"/>
			<point x="1013" y="899" type="curve" smooth="yes"/>
			<point x="965" y="899"/>
			<point x="914" y="893"/>
			<point x="896" y="891" type="curve"/>
			<point x="886" y="892"/>
			<point x="876" y="893"/>
		</contour>
		<contour>
			<point x="1057" y="333" type="curve"/>
			<point x="1057" y="335" type="line"/>
			<point x="1164" y="364"/>
			<point x="1285" y="484"/>
			<point x="1287" y="645" type="curve" smooth="yes"/>
			<point x="1288" y="749"/>
			<point x="1235" y="839"/>
			<point x="1143" y="874" type="curve"/>
			<point x="1143" y="876" type="line"/>
			<point x="1245" y="840"/>
			<point x="1302" y="754"/>
			<point x="1301" y="645" type="curve" smooth="yes"/>
			<point x="1299" y="480"/>
			<point x="1175" y="363"/>
		</contour>
		<contour>
			<point x="176" y="732" type="curve"/>
			<point x="178" y="730" type="line"/>
			<point x="98" y="654"/>
			<point x="44" y="528"/>
			<point x="44" y="421" type="curve" smooth="yes"/>
			<point x="44" y="259"/>
			<point x="134" y="162"/>
			<point x="246" y="133" type="curve"/>
			<point x="244" y="133" type="line"/>
			<point x="127" y="161"/>
			<point x="32" y="255"/>
			<point x="32" y="417" type="curve" smooth="yes"/>
			<point x="32" y="528"/>
			<point x="91" y="656"/>
		</contour>
		<contour>
			<point x="514" y="447" type="curve" smooth="yes"/>
			<point x="562" y="447"/>
			<point x="596" y="403"/>
			<point x="596" y="345" type="curve" smooth="yes"/>
			<point x="596" y="305"/>
			<point x="579" y="262"/>
			<point x="546" y="227" type="curve"/>
			<point x="544" y="229" type="line"/>
			<point x="579" y="265"/>
			<point x="591" y="306"/>
			<point x="591" y="344" type="curve" smooth="yes"/>
			<point x="591" y="403"/>
			<point x="548" y="440"/>
			<point x="502" y="440" type="curve" smooth="yes"/>
			<point x="489" y="440"/>
			<point x="475" y="436"/>
			<point x="469" y="426" type="curve"/>
			<point x="467" y="426" type="line"/>
			<point x="476" y="440"/>
			<point x="495" y="447"/>
		</contour>
	</outline>
</glyph>
<glyph name="Q" format="2">
	<advance width="878"/>
	<unicode hex="0051"/>
	<outline>
		<contour>
			<point x="416" y="-50" type="curve"/>
			<point x="409" y="-44" type="line"/>
			<point x="358" y="-60"/>
			<point x="305" y="-69"/>
			<point x="250" y="-69" type="curve" smooth="yes"/>
			<point x="141" y="-69"/>
			<point x="70" y="-37"/>
			<point x="70" y="13" type="curve" smooth="yes"/>
			<point x="70" y="50"/>
			<point x="110" y="77"/>
			<point x="167" y="77" type="curve" smooth="yes"/>
			<point x="231" y="77"/>
			<point x="301" y="45"/>
			<point x="376" y="-18" type="curve" smooth="yes"/>
			<point x="569" y="-180"/>
			<point x="702" y="-473"/>
			<point x="997" y="-473" type="curve" smooth="yes"/>
			<point x="1181" y="-473"/>
			<point x="1409" y="-359"/>
			<point x="1414" y="-203" type="curve" smooth="yes"/>
			<point x="1416" y="-145"/>
			<point x="1373" y="-100"/>
			<point x="1320" y="-100" type="curve" smooth="yes"/>
			<point x="1264" y="-100"/>
			<point x="1239" y="-145"/>
			<point x="1238" y="-182" type="curve"/>
			<point x="1238" y="-189"/>
			<point x="1237" y="-196"/>
			<point x="1239" y="-203" type="curve"/>
			<point x="1249" y="-178"/>
			<point x="1272" y="-165"/>
			<point x="1295" y="-165" type="curve" smooth="yes"/>
			<point x="1336" y="-165"/>
			<point x="1361" y="-202"/>
			<point x="1360" y="-249" type="curve" smooth="yes"/>
			<point x="1356" y="-371"/>
			<point x="1219" y="-441"/>
			<point x="1103" y="-441" type="curve" smooth="yes"/>
			<point x="858" y="-441"/>
			<point x="565" y="-132"/>
			<point x="377" y="-2" type="curve" smooth="yes"/>
			<point x="293" y="56"/>
			<point x="223" y="83"/>
			<point x="151" y="83" type="curve" smooth="yes"/>
			<point x="80" y="83"/>
			<point x="32" y="56"/>
			<point x="32" y="17" type="curve" smooth="yes"/>
			<point x="32" y="-35"/>
			<point x="124" y="-74"/>
			<point x="248" y="-74" type="curve" smooth="yes"/>
			<point x="305" y="-74"/>
			<point x="361" y="-65"/>
		</contour>
		<contour>
			<point x="423" y="-39" type="curve"/>
			<point x="430" y="-46" type="line"/>
			<point x="693" y="36"/>
			<point x="906" y="282"/>
			<point x="906" y="540" type="curve" smooth="yes"/>
			<point x="906" y="742"/>
			<point x="763" y="894"/>
			<point x="552" y="894" type="curve" smooth="yes"/>
			<point x="312" y="894"/>
			<point x="75" y="679"/>
			<point x="75" y="411" type="curve" smooth="yes"/>
			<point x="75" y="280"/>
			<point x="182" y="174"/>
			<point x="339" y="174" type="curve" smooth="yes"/>
			<point x="464" y="174"/>
			<point x="633" y="258"/>
			<point x="633" y="403" type="curve" smooth="yes"/>
			<point x="633" y="453"/>
			<point x="594" y="492"/>
			<point x="547" y="492" type="curve" smooth="yes"/>
			<point x="496" y="492"/>
			<point x="474" y="451"/>
			<point x="472" y="418" type="curve"/>
			<point x="472" y="411"/>
			<point x="472" y="405"/>
			<point x="474" y="399" type="curve"/>
			<point x="483" y="421"/>
			<point x="504" y="433"/>
			<point x="525" y="433" type="curve" smooth="yes"/>
			<point x="561" y="433"/>
			<point x="583" y="401"/>
			<point x="583" y="360" type="curve" smooth="yes"/>
			<point x="583" y="242"/>
			<point x="451" y="178"/>
			<point x="350" y="178" type="curve" smooth="yes"/>
			<point x="207" y="178"/>
			<point x="138" y="310"/>
			<point x="138" y="435" type="curve" smooth="yes"/>
			<point x="138" y="678"/>
			<point x="323" y="889"/>
			<point x="551" y="889" type="curve" smooth="yes"/>
			<point x="719" y="889"/>
			<point x="822" y="747"/>
			<point x="822" y="555" type="curve" smooth="yes"/>
			<point x="822" y="279"/>
			<point x="653" y="42"/>
		</contour>
		<contour>
			<point x="1158" y="-440" type="curve"/>
			<point x="1158" y="-442" type="line"/>
			<point x="1123" y="-452"/>
			<point x="1088" y="-457"/>
			<point x="1053" y="-457" type="curve" smooth="yes"/>
			<point x="935" y="-457"/>
			<point x="822" y="-404"/>
			<point x="707" y="-315" type="curve" smooth="yes"/>
			<point x="589" y="-224"/>
			<point x="492" y="-99"/>
			<point x="370" y="-6" type="curve"/>
			<point x="372" y="-4" type="line"/>
			<point x="493" y="-96"/>
			<point x="601" y="-215"/>
			<point x="716" y="-305" type="curve" smooth="yes"/>
			<point x="831" y="-395"/>
			<point x="939" y="-454"/>
			<point x="1058" y="-454" type="curve" smooth="yes"/>
			<point x="1090" y="-454"/>
			<point x="1124" y="-450"/>
		</contour>
		<contour>
			<point x="1263" y="-148" type="curve"/>
			<point x="1261" y="-148" type="line"/>
			<point x="1270" y="-134"/>
			<point x="1289" y="-127"/>
			<point x="1308" y="-127" type="curve" smooth="yes"/>
			<point x="1353" y="-127"/>
			<point x="1386" y="-170"/>
			<point x="1386" y="-229" type="curve" smooth="yes"/>
			<point x="1386" y="-270"/>
			<point x="1366" y="-313"/>
			<point x="1330" y="-349" type="curve"/>
			<point x="1328" y="-347" type="line"/>
			<point x="1366" y="-310"/>
			<point x="1381" y="-269"/>
			<point x="1381" y="-230" type="curve" smooth="yes"/>
			<point x="1381" y="-171"/>
			<point x="1340" y="-134"/>
			<point x="1296" y="-134" type="curve" smooth="yes"/>
			<point x="1283" y="-134"/>
			<point x="1269" y="-138"/>
		</contour>
		<contour>
			<point x="435" y="-41" type="curve"/>
			<point x="433" y="-39" type="line"/>
			<point x="694" y="58"/>
			<point x="860" y="319"/>
			<point x="860" y="542" type="curve" smooth="yes"/>
			<point x="860" y="681"/>
			<point x="800" y="809"/>
			<point x="698" y="855" type="curve"/>
			<point x="698" y="857" type="line"/>
			<point x="811" y="809"/>
			<point x="872" y="689"/>
			<point x="872" y="540" type="curve" smooth="yes"/>
			<point x="872" y="311"/>
			<point x="700" y="54"/>
		</contour>
		<contour>
			<point x="280" y="186" type="curve"/>
			<point x="280" y="184" type="line"/>
			<point x="161" y="211"/>
			<point x="101" y="321"/>
			<point x="101" y="429" type="curve" smooth="yes"/>
			<point x="101" y="606"/>
			<point x="194" y="734"/>
			<point x="330" y="826" type="curve"/>
			<point x="330" y="824" type="line"/>
			<point x="201" y="733"/>
			<point x="113" y="605"/>
			<point x="113" y="429" type="curve" smooth="yes"/>
			<point x="113" y="323"/>
			<point x="168" y="212"/>
		</contour>
		<contour>
			<point x="493" y="447" type="curve"/>
			<point x="491" y="447" type="line"/>
			<point x="500" y="462"/>
			<point x="522" y="470"/>
			<point x="544" y="470" type="curve" smooth="yes"/>
			<point x="584" y="470"/>
			<point x="610" y="433"/>
			<point x="610" y="382" type="curve" smooth="yes"/>
			<point x="610" y="342"/>
			<point x="593" y="299"/>
			<point x="560" y="264" type="curve"/>
			<point x="558" y="266" type="line"/>
			<point x="593" y="302"/>
			<point x="605" y="343"/>
			<point x="605" y="381" type="curve" smooth="yes"/>
			<point x="605" y="433"/>
			<point x="570" y="463"/>
			<point x="532" y="463" type="curve" smooth="yes"/>
			<point x="516" y="463"/>
			<point x="499" y="458"/>
		</contour>
	</outline>
</glyph>
<glyph name="R" format="2">
	<advance width="1254"/>
	<unicode hex="0052"/>
	<anchor x="1049" y="951" name="top"/>
	<outline>
		<contour>
			<point x="859" y="892" type="curve"/>
			<point x="649" y="0" type="line"/>
			<point x="796" y="0" type="line"/>
			<point x="797" y="4" type="line"/>
			<point x="759" y="7" type="line" smooth="yes"/>
			<point x="704" y="11"/>
			<point x="692" y="33"/>
			<point x="705" y="86" type="curve" smooth="yes"/>
			<point x="888" y="861" type="line"/>
			<point x="913" y="886"/>
			<point x="989" y="894"/>
			<point x="1016" y="894" type="curve" smooth="yes"/>
			<point x="1192" y="894"/>
			<point x="1263" y="788"/>
			<point x="1263" y="661" type="curve" smooth="yes"/>
			<point x="1263" y="468"/>
			<point x="1131" y="326"/>
			<point x="954" y="326" type="curve" smooth="yes"/>
			<point x="949" y="326"/>
			<point x="927" y="329"/>
			<point x="914" y="335" type="curve" smooth="yes"/>
			<point x="894" y="344"/>
			<point x="873" y="348"/>
			<point x="851" y="348" type="curve" smooth="yes"/>
			<point x="841" y="348"/>
			<point x="831" y="346"/>
			<point x="821" y="344" type="curve"/>
			<point x="816" y="325" type="line"/>
			<point x="856" y="338"/>
			<point x="910" y="333"/>
			<point x="940" y="306" type="curve" smooth="yes"/>
			<point x="970" y="278"/>
			<point x="988" y="237"/>
			<point x="1011" y="181" type="curve" smooth="yes"/>
			<point x="1053" y="83"/>
			<point x="1079" y="-64"/>
			<point x="1125" y="-151" type="curve" smooth="yes"/>
			<point x="1226" y="-343"/>
			<point x="1346" y="-412"/>
			<point x="1512" y="-412" type="curve" smooth="yes"/>
			<point x="1644" y="-412"/>
			<point x="1800" y="-333"/>
			<point x="1800" y="-198" type="curve" smooth="yes"/>
			<point x="1800" y="-142"/>
			<point x="1756" y="-99"/>
			<point x="1705" y="-99" type="curve" smooth="yes"/>
			<point x="1647" y="-99"/>
			<point x="1623" y="-142"/>
			<point x="1623" y="-177" type="curve" smooth="yes"/>
			<point x="1623" y="-184"/>
			<point x="1623" y="-191"/>
			<point x="1625" y="-198" type="curve"/>
			<point x="1634" y="-173"/>
			<point x="1657" y="-160"/>
			<point x="1680" y="-160" type="curve" smooth="yes"/>
			<point x="1721" y="-160"/>
			<point x="1747" y="-197"/>
			<point x="1747" y="-244" type="curve" smooth="yes"/>
			<point x="1747" y="-346"/>
			<point x="1632" y="-405"/>
			<point x="1532" y="-405" type="curve" smooth="yes"/>
			<point x="1250" y="-405"/>
			<point x="1145" y="178"/>
			<point x="939" y="315" type="curve" smooth="yes"/>
			<point x="933" y="319"/>
			<point x="935" y="322"/>
			<point x="942" y="321" type="curve" smooth="yes"/>
			<point x="950" y="320"/>
			<point x="958" y="320"/>
			<point x="965" y="320" type="curve" smooth="yes"/>
			<point x="1147" y="320"/>
			<point x="1342" y="443"/>
			<point x="1342" y="656" type="curve" smooth="yes"/>
			<point x="1342" y="790"/>
			<point x="1220" y="899"/>
			<point x="1028" y="899" type="curve" smooth="yes"/>
			<point x="965" y="899"/>
			<point x="914" y="893"/>
			<point x="896" y="891" type="curve"/>
			<point x="882" y="891" type="line" smooth="yes"/>
			<point x="874" y="891"/>
			<point x="866" y="892"/>
		</contour>
		<contour>
			<point x="304" y="123" type="curve" smooth="yes"/>
			<point x="464" y="123"/>
			<point x="618" y="229"/>
			<point x="618" y="370" type="curve" smooth="yes"/>
			<point x="618" y="428"/>
			<point x="573" y="473"/>
			<point x="520" y="473" type="curve" smooth="yes"/>
			<point x="464" y="473"/>
			<point x="441" y="428"/>
			<point x="441" y="391" type="curve" smooth="yes"/>
			<point x="441" y="384"/>
			<point x="441" y="377"/>
			<point x="443" y="370" type="curve"/>
			<point x="452" y="395"/>
			<point x="475" y="408"/>
			<point x="498" y="408" type="curve" smooth="yes"/>
			<point x="539" y="408"/>
			<point x="565" y="371"/>
			<point x="565" y="324" type="curve" smooth="yes"/>
			<point x="565" y="200"/>
			<point x="433" y="128"/>
			<point x="315" y="128" type="curve" smooth="yes"/>
			<point x="153" y="128"/>
			<point x="73" y="281"/>
			<point x="73" y="422" type="curve" smooth="yes"/>
			<point x="73" y="758"/>
			<point x="378" y="892"/>
			<point x="656" y="892" type="curve" smooth="yes"/>
			<point x="709" y="892"/>
			<point x="810" y="894"/>
			<point x="791" y="814" type="curve" smooth="yes"/>
			<point x="621" y="86" type="line" smooth="yes"/>
			<point x="608" y="30"/>
			<point x="590" y="11"/>
			<point x="526" y="6" type="curve" smooth="yes"/>
			<point x="502" y="4" type="line"/>
			<point x="502" y="0" type="line"/>
			<point x="635" y="0" type="line"/>
			<point x="844" y="893" type="line"/>
			<point x="710" y="899"/>
			<point x="718" y="899"/>
			<point x="622" y="899" type="curve" smooth="yes"/>
			<point x="347" y="899"/>
			<point x="3" y="715"/>
			<point x="3" y="417" type="curve" smooth="yes"/>
			<point x="3" y="243"/>
			<point x="131" y="123"/>
		</contour>
		<contour>
			<point x="981" y="261" type="curve"/>
			<point x="985" y="261" type="line"/>
			<point x="1076" y="146"/>
			<point x="1117" y="1"/>
			<point x="1179" y="-129" type="curve" smooth="yes"/>
			<point x="1256" y="-291"/>
			<point x="1335" y="-377"/>
			<point x="1449" y="-399" type="curve"/>
			<point x="1449" y="-401" type="line"/>
			<point x="1334" y="-379"/>
			<point x="1240" y="-297"/>
			<point x="1162" y="-133" type="curve" smooth="yes"/>
			<point x="1099" y="0"/>
			<point x="1074" y="143"/>
		</contour>
		<contour>
			<point x="1295" y="659" type="curve" smooth="yes"/>
			<point x="1295" y="760"/>
			<point x="1234" y="851"/>
			<point x="1118" y="880" type="curve"/>
			<point x="1118" y="882" type="line"/>
			<point x="1245" y="852"/>
			<point x="1309" y="764"/>
			<point x="1309" y="659" type="curve" smooth="yes"/>
			<point x="1309" y="485"/>
			<point x="1182" y="354"/>
			<point x="1015" y="326" type="curve"/>
			<point x="1015" y="328" type="line"/>
			<point x="1177" y="357"/>
			<point x="1295" y="494"/>
		</contour>
		<contour>
			<point x="209" y="759" type="curve"/>
			<point x="211" y="757" type="line"/>
			<point x="111" y="680"/>
			<point x="44" y="538"/>
			<point x="44" y="421" type="curve" smooth="yes"/>
			<point x="44" y="259"/>
			<point x="134" y="162"/>
			<point x="246" y="133" type="curve"/>
			<point x="244" y="133" type="line"/>
			<point x="127" y="161"/>
			<point x="32" y="255"/>
			<point x="32" y="417" type="curve" smooth="yes"/>
			<point x="32" y="538"/>
			<point x="104" y="683"/>
		</contour>
		<contour>
			<point x="1653" y="-142" type="curve"/>
			<point x="1653" y="-140" type="line"/>
			<point x="1679" y="-117"/>
			<point x="1719" y="-117"/>
			<point x="1744" y="-139" type="curve" smooth="yes"/>
			<point x="1768" y="-160"/>
			<point x="1777" y="-186"/>
			<point x="1777" y="-214" type="curve" smooth="yes"/>
			<point x="1777" y="-266"/>
			<point x="1741" y="-322"/>
			<point x="1701" y="-352" type="curve"/>
			<point x="1701" y="-350" type="line"/>
			<point x="1740" y="-318"/>
			<point x="1770" y="-271"/>
			<point x="1770" y="-226" type="curve" smooth="yes"/>
			<point x="1770" y="-198"/>
			<point x="1760" y="-170"/>
			<point x="1735" y="-148" type="curve" smooth="yes"/>
			<point x="1710" y="-125"/>
			<point x="1679" y="-119"/>
		</contour>
		<contour>
			<point x="469" y="426" type="curve"/>
			<point x="467" y="426" type="line"/>
			<point x="476" y="440"/>
			<point x="495" y="447"/>
			<point x="514" y="447" type="curve" smooth="yes"/>
			<point x="562" y="447"/>
			<point x="596" y="403"/>
			<point x="596" y="345" type="curve" smooth="yes"/>
			<point x="596" y="305"/>
			<point x="579" y="262"/>
			<point x="546" y="227" type="curve"/>
			<point x="544" y="229" type="line"/>
			<point x="579" y="265"/>
			<point x="591" y="306"/>
			<point x="591" y="344" type="curve" smooth="yes"/>
			<point x="591" y="403"/>
			<point x="548" y="440"/>
			<point x="502" y="440" type="curve" smooth="yes"/>
			<point x="489" y="440"/>
			<point x="475" y="436"/>
		</contour>
	</outline>
</glyph>
<glyph name="X" format="2">
	<advance width="1105"/>
	<unicode hex="0058"/>
	<outline>
		<contour>
			<point x="-97" y="165" type="curve" smooth="yes"/>
			<point x="-97" y="-36"/>
			<point x="52" y="-137"/>
			<point x="241" y="-137" type="curve" smooth="yes"/>
			<point x="601" y="-137"/>
			<point x="690" y="173"/>
			<point x="828" y="421" type="curve"/>
			<point x="935" y="82" type="line" smooth="yes"/>
			<point x="952" y="29"/>
			<point x="935" y="4"/>
			<point x="864" y="4" type="curve"/>
			<point x="864" y="0" type="line"/>
			<point x="998" y="0" type="line"/>
			<point x="722" y="879" type="line"/>
			<point x="592" y="879" type="line"/>
			<point x="594" y="875" type="line"/>
			<point x="661" y="875"/>
			<point x="694" y="845"/>
			<point x="711" y="790" type="curve" smooth="yes"/>
			<point x="826" y="427" type="line"/>
			<point x="693" y="190"/>
			<point x="539" y="-131"/>
			<point x="226" y="-131" type="curve" smooth="yes"/>
			<point x="78" y="-131"/>
			<point x="-39" y="-3"/>
			<point x="-39" y="153" type="curve" smooth="yes"/>
			<point x="-39" y="329"/>
			<point x="90" y="463"/>
			<point x="259" y="463" type="curve" smooth="yes"/>
			<point x="356" y="463"/>
			<point x="429" y="408"/>
			<point x="429" y="335" type="curve" smooth="yes"/>
			<point x="429" y="280"/>
			<point x="395" y="235"/>
			<point x="355" y="235" type="curve" smooth="yes"/>
			<point x="335" y="235"/>
			<point x="320" y="248"/>
			<point x="318" y="266" type="curve"/>
			<point x="313" y="257"/>
			<point x="310" y="245"/>
			<point x="310" y="232" type="curve" smooth="yes"/>
			<point x="310" y="200"/>
			<point x="336" y="178"/>
			<point x="375" y="178" type="curve" smooth="yes"/>
			<point x="431" y="178"/>
			<point x="478" y="233"/>
			<point x="478" y="298" type="curve" smooth="yes"/>
			<point x="478" y="393"/>
			<point x="379" y="468"/>
			<point x="252" y="468" type="curve" smooth="yes"/>
			<point x="62" y="468"/>
			<point x="-97" y="330"/>
		</contour>
		<contour>
			<point x="872" y="875" type="curve"/>
			<point x="873" y="879" type="line"/>
			<point x="737" y="879" type="line"/>
			<point x="1013" y="0" type="line"/>
			<point x="1145" y="0" type="line"/>
			<point x="1142" y="4" type="line"/>
			<point x="1075" y="4"/>
			<point x="1037" y="41"/>
			<point x="1020" y="95" type="curve" smooth="yes"/>
			<point x="893" y="504" type="line"/>
			<point x="1021" y="732"/>
			<point x="1213" y="997"/>
			<point x="1450" y="997" type="curve" smooth="yes"/>
			<point x="1559" y="997"/>
			<point x="1611" y="939"/>
			<point x="1611" y="871" type="curve" smooth="yes"/>
			<point x="1611" y="828"/>
			<point x="1588" y="790"/>
			<point x="1556" y="790" type="curve" smooth="yes"/>
			<point x="1541" y="790"/>
			<point x="1529" y="799"/>
			<point x="1527" y="814" type="curve"/>
			<point x="1524" y="806"/>
			<point x="1521" y="796"/>
			<point x="1521" y="788" type="curve" smooth="yes"/>
			<point x="1521" y="757"/>
			<point x="1548" y="742"/>
			<point x="1576" y="742" type="curve" smooth="yes"/>
			<point x="1625" y="742"/>
			<point x="1662" y="784"/>
			<point x="1662" y="840" type="curve" smooth="yes"/>
			<point x="1662" y="906"/>
			<point x="1604" y="1005"/>
			<point x="1423" y="1005" type="curve" smooth="yes"/>
			<point x="1166" y="1005"/>
			<point x="1018" y="744"/>
			<point x="891" y="510" type="curve"/>
			<point x="802" y="797" type="line" smooth="yes"/>
			<point x="785" y="851"/>
			<point x="801" y="875"/>
		</contour>
		<contour>
			<point x="85" y="-99" type="curve"/>
			<point x="82" y="-99" type="line"/>
			<point x="-18" y="-49"/>
			<point x="-74" y="46"/>
			<point x="-74" y="158" type="curve" smooth="yes"/>
			<point x="-74" y="279"/>
			<point x="1" y="392"/>
			<point x="129" y="443" type="curve"/>
			<point x="129" y="441" type="line"/>
			<point x="8" y="390"/>
			<point x="-62" y="277"/>
			<point x="-62" y="158" type="curve" smooth="yes"/>
			<point x="-62" y="48"/>
			<point x="-10" y="-49"/>
		</contour>
		<contour>
			<point x="322" y="229" type="curve"/>
			<point x="324" y="229" type="line"/>
			<point x="330" y="216"/>
			<point x="345" y="209"/>
			<point x="365" y="209" type="curve" smooth="yes"/>
			<point x="408" y="209"/>
			<point x="449" y="260"/>
			<point x="449" y="321" type="curve" smooth="yes"/>
			<point x="449" y="356"/>
			<point x="439" y="390"/>
			<point x="396" y="422" type="curve"/>
			<point x="399" y="422" type="line"/>
			<point x="440" y="390"/>
			<point x="454" y="357"/>
			<point x="454" y="320" type="curve" smooth="yes"/>
			<point x="454" y="267"/>
			<point x="429" y="202"/>
			<point x="367" y="202" type="curve" smooth="yes"/>
			<point x="342" y="202"/>
			<point x="329" y="214"/>
		</contour>
		<contour>
			<point x="1530" y="789" type="curve"/>
			<point x="1531" y="789" type="line"/>
			<point x="1537" y="776"/>
			<point x="1546" y="768"/>
			<point x="1566" y="768" type="curve" smooth="yes"/>
			<point x="1601" y="768"/>
			<point x="1631" y="820"/>
			<point x="1631" y="861" type="curve" smooth="yes"/>
			<point x="1631" y="898"/>
			<point x="1615" y="935"/>
			<point x="1588" y="954" type="curve"/>
			<point x="1590" y="954" type="line"/>
			<point x="1621" y="932"/>
			<point x="1638" y="893"/>
			<point x="1638" y="854" type="curve" smooth="yes"/>
			<point x="1638" y="806"/>
			<point x="1604" y="762"/>
			<point x="1568" y="762" type="curve" smooth="yes"/>
			<point x="1546" y="762"/>
			<point x="1535" y="777"/>
		</contour>
	</outline>
</glyph>
<glyph name="Z" format="2">
	<advance width="758"/>
	<unicode hex="005A"/>
	<anchor x="726" y="951" name="top"/>
	<outline>
		<contour>
			<point x="568.441" y="393.703" type="curve" smooth="yes"/>
			<point x="562.736" y="384.514"/>
			<point x="554.662" y="380.254"/>
			<point x="543.924" y="380.766" type="curve" smooth="yes"/>
			<point x="392" y="388" type="line"/>
			<point x="384" y="368" type="line"/>
			<point x="540.913" y="374.349" type="line" smooth="yes"/>
			<point x="551.684" y="374.785"/>
			<point x="554.241" y="370.469"/>
			<point x="548.696" y="361.212" type="curve" smooth="yes"/>
			<point x="489.767" y="262.837"/>
			<point x="413.362" y="125.907"/>
			<point x="316" y="40" type="curve"/>
			<point x="246" y="81"/>
			<point x="174" y="107"/>
			<point x="98" y="107" type="curve" smooth="yes"/>
			<point x="13" y="107"/>
			<point x="-33" y="65"/>
			<point x="-33" y="24" type="curve" smooth="yes"/>
			<point x="-33" y="-14"/>
			<point x="-2" y="-55"/>
			<point x="90" y="-55" type="curve" smooth="yes"/>
			<point x="176" y="-55"/>
			<point x="249" y="-24"/>
			<point x="313" y="24" type="curve"/>
			<point x="511" y="-124"/>
			<point x="635" y="-474"/>
			<point x="983" y="-474" type="curve" smooth="yes"/>
			<point x="1151" y="-474"/>
			<point x="1333" y="-351"/>
			<point x="1338" y="-203" type="curve" smooth="yes"/>
			<point x="1340" y="-145"/>
			<point x="1297" y="-100"/>
			<point x="1244" y="-100" type="curve" smooth="yes"/>
			<point x="1188" y="-100"/>
			<point x="1163" y="-145"/>
			<point x="1162" y="-182" type="curve"/>
			<point x="1162" y="-189"/>
			<point x="1161" y="-196"/>
			<point x="1163" y="-203" type="curve"/>
			<point x="1173" y="-178"/>
			<point x="1196" y="-165"/>
			<point x="1219" y="-165" type="curve" smooth="yes"/>
			<point x="1260" y="-165"/>
			<point x="1286" y="-202"/>
			<point x="1284" y="-249" type="curve" smooth="yes"/>
			<point x="1280" y="-358"/>
			<point x="1191" y="-436"/>
			<point x="1070" y="-436" type="curve" smooth="yes"/>
			<point x="786" y="-436"/>
			<point x="568" y="-115"/>
			<point x="325" y="34" type="curve"/>
			<point x="432.465" y="119.397"/>
			<point x="513.231" y="252.667"/>
			<point x="581.432" y="361.375" type="curve" smooth="yes"/>
			<point x="587.158" y="370.502"/>
			<point x="595.298" y="374.806"/>
			<point x="606.083" y="374.411" type="curve" smooth="yes"/>
			<point x="781" y="368" type="line"/>
			<point x="787" y="386" type="line"/>
			<point x="609.087" y="380.498" type="line" smooth="yes"/>
			<point x="598.307" y="380.164"/>
			<point x="595.813" y="384.508"/>
			<point x="601.538" y="393.644" type="curve" smooth="yes"/>
			<point x="694.028" y="541.239"/>
			<point x="792.546" y="690.589"/>
			<point x="940" y="807" type="curve"/>
			<point x="963" y="826"/>
			<point x="988" y="858"/>
			<point x="989" y="893" type="curve" smooth="yes"/>
			<point x="990" y="920"/>
			<point x="975" y="938"/>
			<point x="951" y="938" type="curve" smooth="yes"/>
			<point x="932" y="938"/>
			<point x="916" y="924"/>
			<point x="914" y="904" type="curve"/>
			<point x="923" y="911"/>
			<point x="933" y="915"/>
			<point x="943" y="915" type="curve" smooth="yes"/>
			<point x="961" y="915"/>
			<point x="973" y="900"/>
			<point x="972" y="877" type="curve"/>
			<point x="971" y="831"/>
			<point x="929" y="794"/>
			<point x="873" y="794" type="curve" smooth="yes"/>
			<point x="763" y="794"/>
			<point x="623" y="878"/>
			<point x="500" y="878" type="curve" smooth="yes"/>
			<point x="385" y="878"/>
			<point x="194" y="787"/>
			<point x="188" y="664" type="curve" smooth="yes"/>
			<point x="186" y="618"/>
			<point x="222" y="573"/>
			<point x="264" y="573" type="curve" smooth="yes"/>
			<point x="327" y="573"/>
			<point x="348" y="619"/>
			<point x="348" y="667" type="curve"/>
			<point x="337" y="648"/>
			<point x="319" y="640"/>
			<point x="304" y="640" type="curve" smooth="yes"/>
			<point x="273" y="640"/>
			<point x="241" y="665"/>
			<point x="243" y="712" type="curve" smooth="yes"/>
			<point x="247" y="789"/>
			<point x="323" y="833"/>
			<point x="396" y="833" type="curve" smooth="yes"/>
			<point x="528" y="833"/>
			<point x="643" y="750"/>
			<point x="766" y="750" type="curve" smooth="yes"/>
			<point x="807" y="750"/>
			<point x="853" y="759"/>
			<point x="890" y="776" type="curve"/>
			<point x="893" y="774" type="line"/>
			<point x="763.249" y="673.298"/>
			<point x="655.063" y="533.217"/>
		</contour>
		<contour>
			<point x="305" y="31" type="curve"/>
			<point x="253" y="-13"/>
			<point x="194" y="-41"/>
			<point x="129" y="-41" type="curve" smooth="yes"/>
			<point x="54" y="-41"/>
			<point x="27" y="-6"/>
			<point x="27" y="26" type="curve" smooth="yes"/>
			<point x="27" y="58"/>
			<point x="62" y="90"/>
			<point x="132" y="90" type="curve" smooth="yes"/>
			<point x="198" y="90"/>
			<point x="254" y="67"/>
		</contour>
		<contour>
			<point x="1129" y="-437" type="curve"/>
			<point x="1129" y="-439" type="line"/>
			<point x="1094" y="-449"/>
			<point x="1059" y="-454"/>
			<point x="1024" y="-454" type="curve" smooth="yes"/>
			<point x="907" y="-454"/>
			<point x="795" y="-405"/>
			<point x="683" y="-319" type="curve" smooth="yes"/>
			<point x="546" y="-214"/>
			<point x="445" y="-58"/>
			<point x="297" y="44" type="curve"/>
			<point x="299" y="46" type="line"/>
			<point x="446" y="-55"/>
			<point x="559" y="-204"/>
			<point x="692" y="-309" type="curve" smooth="yes"/>
			<point x="803" y="-397"/>
			<point x="912" y="-451"/>
			<point x="1029" y="-451" type="curve" smooth="yes"/>
			<point x="1061" y="-451"/>
			<point x="1095" y="-447"/>
		</contour>
		<contour>
			<point x="1191" y="-144" type="curve"/>
			<point x="1189" y="-144" type="line"/>
			<point x="1198" y="-130"/>
			<point x="1217" y="-123"/>
			<point x="1236" y="-123" type="curve" smooth="yes"/>
			<point x="1281" y="-123"/>
			<point x="1314" y="-166"/>
			<point x="1314" y="-225" type="curve" smooth="yes"/>
			<point x="1314" y="-271"/>
			<point x="1292" y="-320"/>
			<point x="1253" y="-360" type="curve"/>
			<point x="1251" y="-358" type="line"/>
			<point x="1293" y="-317"/>
			<point x="1309" y="-270"/>
			<point x="1309" y="-226" type="curve" smooth="yes"/>
			<point x="1309" y="-167"/>
			<point x="1268" y="-130"/>
			<point x="1224" y="-130" type="curve" smooth="yes"/>
			<point x="1211" y="-130"/>
			<point x="1197" y="-134"/>
		</contour>
		<contour>
			<point x="863" y="783" type="curve"/>
			<point x="864" y="782" type="line"/>
			<point x="841" y="778"/>
			<point x="811" y="776"/>
			<point x="792" y="776" type="curve" smooth="yes"/>
			<point x="661" y="776"/>
			<point x="569" y="853"/>
			<point x="445" y="853" type="curve" smooth="yes"/>
			<point x="414" y="853"/>
			<point x="394" y="850"/>
			<point x="373" y="839" type="curve"/>
			<point x="373" y="841" type="line"/>
			<point x="394" y="852"/>
			<point x="426" y="859"/>
			<point x="457" y="859" type="curve" smooth="yes"/>
			<point x="589" y="859"/>
			<point x="683" y="781"/>
			<point x="805" y="781" type="curve" smooth="yes"/>
			<point x="822" y="781"/>
			<point x="844" y="781"/>
		</contour>
		<contour>
			<point x="257" y="775" type="curve"/>
			<point x="258" y="774" type="line"/>
			<point x="237" y="751"/>
			<point x="223" y="721"/>
			<point x="223" y="689" type="curve" smooth="yes"/>
			<point x="223" y="650"/>
			<point x="243" y="609"/>
			<point x="287" y="609" type="curve" smooth="yes"/>
			<point x="302" y="609"/>
			<point x="317" y="615"/>
			<point x="328" y="625" type="curve"/>
			<point x="329" y="623" type="line"/>
			<point x="316" y="608"/>
			<point x="297" y="601"/>
			<point x="278" y="601" type="curve" smooth="yes"/>
			<point x="235" y="601"/>
			<point x="214" y="634"/>
			<point x="214" y="673" type="curve" smooth="yes"/>
			<point x="214" y="711"/>
			<point x="235" y="750"/>
		</contour>
		<contour>
			<point x="110" y="-48" type="curve" smooth="yes"/>
			<point x="23" y="-48"/>
			<point x="-9" y="-10"/>
			<point x="-9" y="26" type="curve" smooth="yes"/>
			<point x="-9" y="63"/>
			<point x="29" y="95"/>
			<point x="99" y="98" type="curve"/>
			<point x="100" y="98"/>
			<point x="100" y="96"/>
			<point x="99" y="96" type="curve"/>
			<point x="36" y="93"/>
			<point x="3" y="61"/>
			<point x="3" y="26" type="curve" smooth="yes"/>
			<point x="3" y="-8"/>
			<point x="30" y="-46"/>
			<point x="110" y="-46" type="curve" smooth="yes"/>
			<point x="111" y="-46"/>
			<point x="111" y="-48"/>
		</contour>
	</outline>
</glyph>
<glyph name="bracketleft" format="2">
	<advance width="337"/>
	<unicode hex="005B"/>
	<outline>
		<contour>
			<point x="253" y="859" type="line"/>
			<point x="20" y="-169" type="line"/>
			<point x="54" y="-169" type="line"/>
			<point x="288" y="859" type="line"/>
		</contour>
		<contour>
			<point x="65" y="-169" type="line"/>
			<point x="262" y="-169" type="line"/>
			<point x="262" y="-164" type="line"/>
			<point x="98" y="-164" type="line"/>
			<point x="330" y="854" type="line"/>
			<point x="488" y="854" type="line"/>
			<point x="488" y="859" type="line"/>
			<point x="299" y="859" type="line"/>
		</contour>
	</outline>
</glyph>
<glyph name="asciicircum" format="2">
	<advance width="678"/>
	<unicode hex="005E"/>
	<outline>
		<contour>
			<point x="613" y="384" type="curve" smooth="yes"/>
			<point x="469" y="717" type="line" smooth="yes"/>
			<point x="457" y="745"/>
			<point x="435" y="741"/>
			<point x="420" y="724" type="curve" smooth="yes"/>
			<point x="125" y="393" type="line"/>
			<point x="122" y="384"/>
			<point x="126" y="384"/>
			<point x="129" y="384" type="curve"/>
			<point x="435" y="683" type="line"/>
			<point x="606" y="377" type="line"/>
			<point x="611" y="373"/>
			<point x="620" y="368"/>
		</contour>
		<contour>
			<point x="153" y="414" type="line"/>
			<point x="151" y="416" type="line"/>
			<point x="441" y="721" type="line"/>
			<point x="598" y="408" type="line"/>
			<point x="596" y="408" type="line"/>
			<point x="438" y="705" type="line"/>
		</contour>
	</outline>
</glyph>
<glyph name="grave" format="2">
	<advance width="418"/>
	<unicode hex="0060"/>
	<anchor x="380" y="677" name="_top"/>
	<outline>
		<contour>
			<point x="294" y="777" type="curve" smooth="yes"/>
			<point x="457" y="676" type="line"/>
			<point x="463" y="676" type="line"/>
			<point x="341" y="829" type="line" smooth="yes"/>
			<point x="317" y="859"/>
			<point x="297" y="859"/>
			<point x="283" y="850" type="curve"/>
			<point x="434" y="698" type="line"/>
			<point x="435" y="697"/>
			<point x="433" y="695"/>
			<point x="432" y="696" type="curve"/>
			<point x="271" y="834" type="line"/>
			<point x="262" y="818"/>
			<point x="268" y="793"/>
		</contour>
	</outline>
</glyph>
<glyph name="b" format="2">
	<advance width="495"/>
	<unicode hex="0062"/>
	<outline>
		<contour>
			<point x="80" y="48" type="curve" smooth="yes"/>
			<point x="104" y="48"/>
			<point x="123" y="25"/>
			<point x="153" y="9" type="curve" smooth="yes"/>
			<point x="176" y="-3"/>
			<point x="198" y="-10"/>
			<point x="219" y="-10" type="curve" smooth="yes"/>
			<point x="225" y="-10" type="line" smooth="yes"/>
			<point x="397" y="-10"/>
			<point x="509" y="226"/>
			<point x="509" y="385" type="curve" smooth="yes"/>
			<point x="509" y="499"/>
			<point x="452" y="574"/>
			<point x="372" y="574" type="curve" smooth="yes"/>
			<point x="302" y="574"/>
			<point x="240" y="517"/>
			<point x="194" y="410" type="curve"/>
			<point x="190" y="410" type="line"/>
			<point x="310" y="910" type="line"/>
			<point x="277" y="905" type="line"/>
			<point x="78" y="48" type="line"/>
			<point x="79" y="48"/>
			<point x="79" y="48"/>
		</contour>
		<contour>
			<point x="133" y="150" type="curve" smooth="yes"/>
			<point x="176" y="334" type="line"/>
			<point x="220" y="486"/>
			<point x="288" y="564"/>
			<point x="355" y="564" type="curve" smooth="yes"/>
			<point x="407" y="564"/>
			<point x="437" y="518"/>
			<point x="437" y="436" type="curve" smooth="yes"/>
			<point x="437" y="300"/>
			<point x="354" y="-6"/>
			<point x="220" y="-6" type="curve" smooth="yes"/>
			<point x="178" y="-6"/>
			<point x="142" y="14"/>
			<point x="127" y="66" type="curve" smooth="yes"/>
			<point x="120" y="90"/>
			<point x="125" y="115"/>
		</contour>
		<contour>
			<point x="14" y="-22" type="line"/>
			<point x="19" y="-22" type="line"/>
			<point x="26" y="1" type="line" smooth="yes"/>
			<point x="34" y="27"/>
			<point x="46" y="42"/>
			<point x="65" y="46" type="curve"/>
			<point x="264" y="903" type="line"/>
			<point x="154" y="888" type="line"/>
			<point x="154" y="884" type="line"/>
			<point x="188" y="884" type="line" smooth="yes"/>
			<point x="222" y="884"/>
			<point x="228" y="878"/>
			<point x="218" y="836" type="curve" smooth="yes"/>
			<point x="35" y="45" type="line"/>
		</contour>
		<contour>
			<point x="268" y="1" type="curve"/>
			<point x="268" y="3" type="line"/>
			<point x="349" y="35"/>
			<point x="412" y="126"/>
			<point x="452" y="282" type="curve" smooth="yes"/>
			<point x="475" y="371"/>
			<point x="495" y="538"/>
			<point x="382" y="566" type="curve"/>
			<point x="382" y="567" type="line"/>
			<point x="496" y="540"/>
			<point x="490" y="373"/>
			<point x="466" y="282" type="curve" smooth="yes"/>
			<point x="425" y="128"/>
			<point x="350" y="33"/>
		</contour>
	</outline>
</glyph>
<glyph name="c" format="2">
	<advance width="427"/>
	<unicode hex="0063"/>
	<anchor x="344" y="677" name="top"/>
	<outline>
		<contour>
			<point x="217" y="-4" type="curve" smooth="yes"/>
			<point x="130" y="-4"/>
			<point x="85" y="85"/>
			<point x="131" y="280" type="curve" smooth="yes"/>
			<point x="175" y="467"/>
			<point x="246" y="565"/>
			<point x="319" y="565" type="curve" smooth="yes"/>
			<point x="351" y="565"/>
			<point x="375" y="547"/>
			<point x="390" y="510" type="curve" smooth="yes"/>
			<point x="402" y="478"/>
			<point x="411" y="432"/>
			<point x="419" y="377" type="curve"/>
			<point x="423" y="377" type="line"/>
			<point x="433" y="581" type="line"/>
			<point x="429" y="581" type="line"/>
			<point x="425" y="569"/>
			<point x="421" y="554"/>
			<point x="408" y="554" type="curve" smooth="yes"/>
			<point x="380" y="554"/>
			<point x="363" y="570"/>
			<point x="322" y="570" type="curve" smooth="yes"/>
			<point x="207" y="570"/>
			<point x="77" y="442"/>
			<point x="48" y="280" type="curve" smooth="yes"/>
			<point x="18" y="115"/>
			<point x="91" y="-10"/>
			<point x="215" y="-10" type="curve" smooth="yes"/>
			<point x="314" y="-10"/>
			<point x="394" y="87"/>
			<point x="394" y="159" type="curve" smooth="yes"/>
			<point x="394" y="202"/>
			<point x="365" y="236"/>
			<point x="328" y="236" type="curve" smooth="yes"/>
			<point x="279" y="236"/>
			<point x="247" y="201"/>
			<point x="248" y="150" type="curve"/>
			<point x="257" y="166"/>
			<point x="271" y="175"/>
			<point x="289" y="175" type="curve" smooth="yes"/>
			<point x="319" y="175"/>
			<point x="339" y="150"/>
			<point x="339" y="114" type="curve" smooth="yes"/>
			<point x="339" y="65"/>
			<point x="306" y="-4"/>
		</contour>
		<contour>
			<point x="182" y="-2" type="curve"/>
			<point x="182" y="-3" type="line"/>
			<point x="67" y="24"/>
			<point x="61" y="192"/>
			<point x="83" y="285" type="curve" smooth="yes"/>
			<point x="121" y="446"/>
			<point x="210" y="534"/>
			<point x="278" y="561" type="curve"/>
			<point x="278" y="559" type="line"/>
			<point x="211" y="532"/>
			<point x="138" y="447"/>
			<point x="98" y="285" type="curve" smooth="yes"/>
			<point x="75" y="194"/>
			<point x="68" y="26"/>
		</contour>
		<contour>
			<point x="363" y="558" type="curve"/>
			<point x="364" y="559" type="line"/>
			<point x="388" y="548"/>
			<point x="401" y="539"/>
			<point x="410" y="519" type="curve" smooth="yes"/>
			<point x="419" y="499"/>
			<point x="420" y="468"/>
			<point x="418" y="447" type="curve"/>
			<point x="416" y="447" type="line"/>
			<point x="415" y="472"/>
			<point x="411" y="493"/>
			<point x="402" y="514" type="curve" smooth="yes"/>
			<point x="393" y="536"/>
			<point x="379" y="551"/>
		</contour>
		<contour>
			<point x="265" y="180" type="curve"/>
			<point x="264" y="181" type="line"/>
			<point x="276" y="198"/>
			<point x="295" y="209"/>
			<point x="313" y="209" type="curve" smooth="yes"/>
			<point x="350" y="209"/>
			<point x="369" y="173"/>
			<point x="369" y="141" type="curve" smooth="yes"/>
			<point x="369" y="102"/>
			<point x="347" y="58"/>
			<point x="315" y="33" type="curve"/>
			<point x="314" y="35" type="line"/>
			<point x="343" y="57"/>
			<point x="362" y="96"/>
			<point x="362" y="131" type="curve" smooth="yes"/>
			<point x="362" y="167"/>
			<point x="339" y="200"/>
			<point x="304" y="200" type="curve" smooth="yes"/>
			<point x="291" y="200"/>
			<point x="276" y="195"/>
		</contour>
	</outline>
</glyph>
<glyph name="e" format="2">
	<advance width="425"/>
	<unicode hex="0065"/>
	<anchor x="363" y="677" name="top"/>
	<outline>
		<contour>
			<point x="223" y="-10" type="curve" smooth="yes"/>
			<point x="333" y="-10"/>
			<point x="410" y="88"/>
			<point x="410" y="161" type="curve" smooth="yes"/>
			<point x="410" y="202"/>
			<point x="380" y="236"/>
			<point x="342" y="236" type="curve" smooth="yes"/>
			<point x="286" y="236"/>
			<point x="261" y="194"/>
			<point x="262" y="150" type="curve"/>
			<point x="272" y="168"/>
			<point x="287" y="175"/>
			<point x="303" y="175" type="curve" smooth="yes"/>
			<point x="333" y="175"/>
			<point x="353" y="150"/>
			<point x="353" y="114" type="curve" smooth="yes"/>
			<point x="353" y="65"/>
			<point x="325" y="-4"/>
			<point x="225" y="-4" type="curve" smooth="yes"/>
			<point x="130" y="-4"/>
			<point x="83" y="85"/>
			<point x="131" y="280" type="curve" smooth="yes"/>
			<point x="135" y="297"/>
			<point x="140" y="313"/>
			<point x="144" y="329" type="curve"/>
			<point x="406" y="329" type="line"/>
			<point x="417" y="367"/>
			<point x="424" y="408"/>
			<point x="424" y="439" type="curve" smooth="yes"/>
			<point x="424" y="498"/>
			<point x="407" y="542"/>
			<point x="365" y="559" type="curve"/>
			<point x="365" y="561" type="line"/>
			<point x="413" y="542"/>
			<point x="436" y="499"/>
			<point x="436" y="439" type="curve" smooth="yes"/>
			<point x="436" y="408"/>
			<point x="429" y="367"/>
			<point x="418" y="329" type="curve"/>
			<point x="448" y="329" type="line"/>
			<point x="458" y="365"/>
			<point x="462" y="396"/>
			<point x="462" y="423" type="curve" smooth="yes"/>
			<point x="462" y="530"/>
			<point x="397" y="570"/>
			<point x="328" y="570" type="curve" smooth="yes"/>
			<point x="204" y="570"/>
			<point x="78" y="439"/>
			<point x="48" y="280" type="curve" smooth="yes"/>
			<point x="24" y="151"/>
			<point x="66" y="-10"/>
		</contour>
		<contour>
			<point x="363" y="333" type="curve" smooth="yes"/>
			<point x="146" y="333" type="line"/>
			<point x="191" y="482"/>
			<point x="258" y="566"/>
			<point x="323" y="566" type="curve" smooth="yes"/>
			<point x="393" y="566"/>
			<point x="415" y="479"/>
			<point x="382" y="348" type="curve" smooth="yes"/>
			<point x="379" y="338"/>
			<point x="373" y="333"/>
		</contour>
		<contour>
			<point x="83" y="285" type="curve" smooth="yes"/>
			<point x="121" y="446"/>
			<point x="213" y="534"/>
			<point x="281" y="561" type="curve"/>
			<point x="281" y="559" type="line"/>
			<point x="214" y="532"/>
			<point x="138" y="447"/>
			<point x="98" y="285" type="curve" smooth="yes"/>
			<point x="75" y="194"/>
			<point x="68" y="27"/>
			<point x="182" y="-1" type="curve"/>
			<point x="182" y="-2" type="line"/>
			<point x="67" y="25"/>
			<point x="61" y="192"/>
		</contour>
		<contour>
			<point x="281" y="180" type="curve"/>
			<point x="280" y="181" type="line"/>
			<point x="292" y="198"/>
			<point x="311" y="209"/>
			<point x="329" y="209" type="curve" smooth="yes"/>
			<point x="366" y="209"/>
			<point x="385" y="173"/>
			<point x="385" y="141" type="curve" smooth="yes"/>
			<point x="385" y="102"/>
			<point x="363" y="58"/>
			<point x="331" y="33" type="curve"/>
			<point x="330" y="35" type="line"/>
			<point x="359" y="57"/>
			<point x="378" y="96"/>
			<point x="378" y="131" type="curve" smooth="yes"/>
			<point x="378" y="167"/>
			<point x="355" y="200"/>
			<point x="320" y="200" type="curve" smooth="yes"/>
			<point x="307" y="200"/>
			<point x="292" y="195"/>
		</contour>
	</outline>
</glyph>
<glyph name="f" format="2">
	<advance width="236"/>
	<unicode hex="0066"/>
	<outline>
		<contour>
			<point x="529" y="926" type="curve"/>
			<point x="531" y="927" type="line"/>
			<point x="569" y="919"/>
			<point x="593" y="889"/>
			<point x="593" y="854" type="curve" smooth="yes"/>
			<point x="593" y="815"/>
			<point x="567" y="778"/>
			<point x="526" y="778" type="curve" smooth="yes"/>
			<point x="511" y="778"/>
			<point x="495" y="784"/>
			<point x="482" y="795" type="curve"/>
			<point x="483" y="796" type="line"/>
			<point x="494" y="787"/>
			<point x="507" y="783"/>
			<point x="519" y="783" type="curve" smooth="yes"/>
			<point x="558" y="783"/>
			<point x="584" y="819"/>
			<point x="584" y="857" type="curve" smooth="yes"/>
			<point x="584" y="890"/>
			<point x="562" y="919"/>
		</contour>
		<contour>
			<point x="182" y="589" type="curve" smooth="yes"/>
			<point x="175" y="558" type="line" smooth="yes"/>
			<point x="173" y="551"/>
			<point x="169" y="547"/>
			<point x="161" y="547" type="curve" smooth="yes"/>
			<point x="101" y="547" type="line"/>
			<point x="100" y="541" type="line"/>
			<point x="157" y="541" type="line" smooth="yes"/>
			<point x="166" y="541"/>
			<point x="169" y="537"/>
			<point x="167" y="528" type="curve" smooth="yes"/>
			<point x="82" y="162" type="line" smooth="yes"/>
			<point x="43" y="-5"/>
			<point x="-24" y="-382"/>
			<point x="-234" y="-382" type="curve" smooth="yes"/>
			<point x="-276" y="-382"/>
			<point x="-314" y="-356"/>
			<point x="-314" y="-311" type="curve" smooth="yes"/>
			<point x="-314" y="-281"/>
			<point x="-290" y="-248"/>
			<point x="-254" y="-248" type="curve" smooth="yes"/>
			<point x="-242" y="-248"/>
			<point x="-232" y="-250"/>
			<point x="-222" y="-261" type="curve"/>
			<point x="-220" y="-243"/>
			<point x="-229" y="-193"/>
			<point x="-282" y="-193" type="curve" smooth="yes"/>
			<point x="-329" y="-193"/>
			<point x="-376" y="-234"/>
			<point x="-376" y="-289" type="curve" smooth="yes"/>
			<point x="-376" y="-362"/>
			<point x="-313" y="-391"/>
			<point x="-256" y="-391" type="curve" smooth="yes"/>
			<point x="29" y="-391"/>
			<point x="109" y="-79"/>
			<point x="157" y="150" type="curve" smooth="yes"/>
			<point x="237" y="532" type="line"/>
			<point x="238" y="538"/>
			<point x="242" y="541"/>
			<point x="249" y="541" type="curve" smooth="yes"/>
			<point x="332" y="541" type="line"/>
			<point x="333" y="547" type="line"/>
			<point x="251" y="547" type="line" smooth="yes"/>
			<point x="244" y="547"/>
			<point x="241" y="550"/>
			<point x="243" y="556" type="curve"/>
			<point x="249" y="585" type="line" smooth="yes"/>
			<point x="271" y="690"/>
			<point x="338" y="931"/>
			<point x="482" y="931" type="curve" smooth="yes"/>
			<point x="532" y="931"/>
			<point x="559" y="901"/>
			<point x="559" y="864" type="curve" smooth="yes"/>
			<point x="559" y="831"/>
			<point x="533" y="804"/>
			<point x="501" y="804" type="curve" smooth="yes"/>
			<point x="489" y="804"/>
			<point x="480" y="808"/>
			<point x="473" y="817" type="curve"/>
			<point x="469" y="783"/>
			<point x="495" y="753"/>
			<point x="528" y="753" type="curve" smooth="yes"/>
			<point x="576" y="753"/>
			<point x="617" y="794"/>
			<point x="617" y="843" type="curve" smooth="yes"/>
			<point x="617" y="900"/>
			<point x="566" y="939"/>
			<point x="491" y="939" type="curve" smooth="yes"/>
			<point x="333" y="939"/>
			<point x="216" y="738"/>
		</contour>
		<contour>
			<point x="113" y="153" type="curve" smooth="yes"/>
			<point x="199" y="543" type="line" smooth="yes"/>
			<point x="217" y="625"/>
			<point x="269" y="820"/>
			<point x="387" y="902" type="curve"/>
			<point x="391" y="903" type="line"/>
			<point x="273" y="821"/>
			<point x="229" y="625"/>
			<point x="211" y="543" type="curve" smooth="yes"/>
			<point x="125" y="153" type="line" smooth="yes"/>
			<point x="67" y="-110"/>
			<point x="3" y="-287"/>
			<point x="-142" y="-363" type="curve"/>
			<point x="-146" y="-364" type="line"/>
			<point x="-1" y="-288"/>
			<point x="52" y="-122"/>
		</contour>
		<contour>
			<point x="-256" y="-385" type="curve"/>
			<point x="-256" y="-386" type="line"/>
			<point x="-312" y="-386"/>
			<point x="-352" y="-343"/>
			<point x="-352" y="-297" type="curve" smooth="yes"/>
			<point x="-352" y="-250"/>
			<point x="-318" y="-216"/>
			<point x="-279" y="-216" type="curve" smooth="yes"/>
			<point x="-265" y="-216"/>
			<point x="-251" y="-222"/>
			<point x="-239" y="-232" type="curve"/>
			<point x="-240" y="-233" type="line"/>
			<point x="-250" y="-224"/>
			<point x="-261" y="-220"/>
			<point x="-272" y="-220" type="curve" smooth="yes"/>
			<point x="-309" y="-220"/>
			<point x="-342" y="-254"/>
			<point x="-342" y="-300" type="curve" smooth="yes"/>
			<point x="-342" y="-345"/>
			<point x="-306" y="-385"/>
		</contour>
	</outline>
</glyph>
<glyph name="g" format="2">
	<advance width="458"/>
	<unicode hex="0067"/>
	<outline>
		<contour>
			<point x="395" y="557" type="curve"/>
			<point x="396" y="560" type="line"/>
			<point x="472" y="557"/>
			<point x="548" y="609"/>
			<point x="548" y="678" type="curve" smooth="yes"/>
			<point x="548" y="711"/>
			<point x="523" y="741"/>
			<point x="490" y="741" type="curve" smooth="yes"/>
			<point x="460" y="741"/>
			<point x="438" y="722"/>
			<point x="439" y="693" type="curve"/>
			<point x="448" y="703"/>
			<point x="458" y="706"/>
			<point x="467" y="706" type="curve" smooth="yes"/>
			<point x="492" y="706"/>
			<point x="507" y="686"/>
			<point x="507" y="664" type="curve" smooth="yes"/>
			<point x="507" y="595"/>
			<point x="435" y="553"/>
			<point x="369" y="565" type="curve" smooth="yes"/>
			<point x="356" y="567"/>
			<point x="342" y="569"/>
			<point x="328" y="569" type="curve" smooth="yes"/>
			<point x="225" y="569"/>
			<point x="117" y="479"/>
			<point x="91" y="368" type="curve" smooth="yes"/>
			<point x="72" y="290"/>
			<point x="96" y="221"/>
			<point x="149" y="188" type="curve"/>
			<point x="87" y="188"/>
			<point x="30" y="141"/>
			<point x="30" y="84" type="curve" smooth="yes"/>
			<point x="30" y="23"/>
			<point x="67" y="-9"/>
			<point x="121" y="-29" type="curve"/>
			<point x="112" y="-29" type="line" smooth="yes"/>
			<point x="-32" y="-29"/>
			<point x="-197" y="-123"/>
			<point x="-197" y="-275" type="curve" smooth="yes"/>
			<point x="-197" y="-400"/>
			<point x="-78" y="-460"/>
			<point x="50" y="-460" type="curve" smooth="yes"/>
			<point x="211" y="-460"/>
			<point x="452" y="-354"/>
			<point x="452" y="-176" type="curve" smooth="yes"/>
			<point x="452" y="-70"/>
			<point x="388" y="-30"/>
			<point x="299" y="-3" type="curve" smooth="yes"/>
			<point x="204" y="26" type="line" smooth="yes"/>
			<point x="143" y="45"/>
			<point x="86" y="73"/>
			<point x="86" y="120" type="curve" smooth="yes"/>
			<point x="86" y="158"/>
			<point x="111" y="182"/>
			<point x="144" y="182" type="curve" smooth="yes"/>
			<point x="151" y="182"/>
			<point x="158" y="181"/>
			<point x="166" y="179" type="curve"/>
			<point x="186" y="170"/>
			<point x="209" y="166"/>
			<point x="236" y="166" type="curve" smooth="yes"/>
			<point x="339" y="166"/>
			<point x="447" y="256"/>
			<point x="473" y="368" type="curve" smooth="yes"/>
			<point x="493" y="454"/>
			<point x="465" y="529"/>
		</contour>
		<contour>
			<point x="221" y="-58" type="curve" smooth="yes"/>
			<point x="303" y="-81"/>
			<point x="381" y="-111"/>
			<point x="381" y="-211" type="curve" smooth="yes"/>
			<point x="381" y="-354"/>
			<point x="240" y="-446"/>
			<point x="93" y="-446" type="curve" smooth="yes"/>
			<point x="-10" y="-446"/>
			<point x="-131" y="-396"/>
			<point x="-131" y="-261" type="curve" smooth="yes"/>
			<point x="-131" y="-113"/>
			<point x="8" y="-33"/>
			<point x="126" y="-33" type="curve" smooth="yes"/>
			<point x="132" y="-33" type="line"/>
			<point x="160" y="-42"/>
			<point x="191" y="-50"/>
		</contour>
		<contour>
			<point x="178" y="368" type="curve" smooth="yes"/>
			<point x="214" y="498"/>
			<point x="271" y="563"/>
			<point x="332" y="563" type="curve" smooth="yes"/>
			<point x="395" y="563"/>
			<point x="419" y="496"/>
			<point x="386" y="368" type="curve" smooth="yes"/>
			<point x="353" y="240"/>
			<point x="293" y="172"/>
			<point x="231" y="172" type="curve" smooth="yes"/>
			<point x="169" y="172"/>
			<point x="141" y="238"/>
		</contour>
		<contour>
			<point x="478" y="584" type="curve"/>
			<point x="476" y="586" type="line"/>
			<point x="508" y="605"/>
			<point x="527" y="636"/>
			<point x="527" y="673" type="curve" smooth="yes"/>
			<point x="527" y="700"/>
			<point x="502" y="723"/>
			<point x="479" y="723" type="curve" smooth="yes"/>
			<point x="471" y="723"/>
			<point x="462" y="720"/>
			<point x="453" y="713" type="curve"/>
			<point x="452" y="714" type="line"/>
			<point x="461" y="723"/>
			<point x="474" y="728"/>
			<point x="487" y="728" type="curve" smooth="yes"/>
			<point x="510" y="728"/>
			<point x="533" y="704"/>
			<point x="533" y="677" type="curve" smooth="yes"/>
			<point x="533" y="638"/>
			<point x="510" y="603"/>
		</contour>
		<contour>
			<point x="184" y="180" type="curve"/>
			<point x="181" y="180" type="line"/>
			<point x="116" y="196"/>
			<point x="106" y="288"/>
			<point x="128" y="370" type="curve" smooth="yes"/>
			<point x="156" y="475"/>
			<point x="219" y="538"/>
			<point x="290" y="561" type="curve"/>
			<point x="290" y="559" type="line"/>
			<point x="221" y="534"/>
			<point x="170" y="477"/>
			<point x="142" y="373" type="curve" smooth="yes"/>
			<point x="121" y="295"/>
			<point x="124" y="198"/>
		</contour>
		<contour>
			<point x="383" y="554" type="curve"/>
			<point x="383" y="556" type="line"/>
			<point x="449" y="518"/>
			<point x="458" y="436"/>
			<point x="441" y="373" type="curve" smooth="yes"/>
			<point x="413" y="272"/>
			<point x="340" y="189"/>
			<point x="266" y="172" type="curve"/>
			<point x="266" y="174" type="line"/>
			<point x="340" y="191"/>
			<point x="399" y="268"/>
			<point x="425" y="369" type="curve" smooth="yes"/>
			<point x="442" y="432"/>
			<point x="447" y="521"/>
		</contour>
		<contour>
			<point x="317" y="-375" type="curve"/>
			<point x="315" y="-373" type="line"/>
			<point x="373" y="-328"/>
			<point x="413" y="-271"/>
			<point x="413" y="-197" type="curve" smooth="yes"/>
			<point x="413" y="-108"/>
			<point x="354" y="-65"/>
			<point x="282" y="-43" type="curve" smooth="yes"/>
			<point x="184" y="-13" type="line" smooth="yes"/>
			<point x="115" y="8"/>
			<point x="52" y="38"/>
			<point x="52" y="95" type="curve" smooth="yes"/>
			<point x="52" y="114"/>
			<point x="59" y="136"/>
			<point x="76" y="153" type="curve"/>
			<point x="78" y="151" type="line"/>
			<point x="63" y="136"/>
			<point x="59" y="121"/>
			<point x="59" y="103" type="curve" smooth="yes"/>
			<point x="59" y="46"/>
			<point x="120" y="19"/>
			<point x="189" y="-2" type="curve" smooth="yes"/>
			<point x="286" y="-32" type="line" smooth="yes"/>
			<point x="382" y="-62"/>
			<point x="421" y="-105"/>
			<point x="421" y="-190" type="curve" smooth="yes"/>
			<point x="421" y="-266"/>
			<point x="381" y="-330"/>
		</contour>
		<contour>
			<point x="37" y="-40" type="curve"/>
			<point x="37" y="-42" type="line"/>
			<point x="-66" y="-71"/>
			<point x="-160" y="-150"/>
			<point x="-160" y="-268" type="curve" smooth="yes"/>
			<point x="-160" y="-389"/>
			<point x="-57" y="-453"/>
			<point x="58" y="-453" type="curve"/>
			<point x="58" y="-455" type="line"/>
			<point x="-64" y="-455"/>
			<point x="-172" y="-392"/>
			<point x="-172" y="-270" type="curve" smooth="yes"/>
			<point x="-172" y="-149"/>
			<point x="-73" y="-69"/>
		</contour>
	</outline>
</glyph>
